SplineFontDB: 3.0
FontName: CabinSketch-Regular
FullName: Cabin Sketch Regular
FamilyName: Cabin Sketch
Weight: Regular
Copyright: Copyright (c) 2011 by Pablo Impallari. www.impallari.com Copyright (c) 2011 by Igino Marini. www.ikern.com All rights reserved.
Version: 001.002
ItalicAngle: 0
UnderlinePosition: -45
UnderlineWidth: 45
Ascent: 800
Descent: 200
sfntRevision: 0x00010083
LayerCount: 2
Layer: 0 1 "Back"  1
Layer: 1 1 "Fore"  0
XUID: [1021 288 713564382 12521214]
FSType: 0
OS2Version: 2
OS2_WeightWidthSlopeOnly: 0
OS2_UseTypoMetrics: 1
CreationTime: 1319099393
ModificationTime: 1319123078
PfmFamily: 81
TTFWeight: 400
TTFWidth: 5
LineGap: 0
VLineGap: 0
Panose: 2 11 5 3 5 2 2 2 0 4
OS2TypoAscent: 873
OS2TypoAOffset: 0
OS2TypoDescent: -298
OS2TypoDOffset: 0
OS2TypoLinegap: 0
OS2WinAscent: 873
OS2WinAOffset: 0
OS2WinDescent: 298
OS2WinDOffset: 0
HheadAscent: 873
HheadAOffset: 0
HheadDescent: -298
HheadDOffset: 0
OS2SubXSize: 700
OS2SubYSize: 650
OS2SubXOff: 0
OS2SubYOff: 140
OS2SupXSize: 700
OS2SupYSize: 650
OS2SupXOff: 0
OS2SupYOff: 477
OS2StrikeYSize: 50
OS2StrikeYPos: 250
OS2FamilyClass: 2050
OS2Vendor: 'pyrs'
OS2CodePages: 00000001.00000000
OS2UnicodeRanges: 800000af.0000004a.00000000.00000000
Lookup: 258 0 0 "'kern' Horizontal Kerning in Latin lookup 0"  {"'kern' Horizontal Kerning in Latin lookup 0 per glyph data 0"  "'kern' Horizontal Kerning in Latin lookup 0 kerning class 1"  } ['kern' ('latn' <'dflt' > ) ]
MarkAttachClasses: 1
DEI: 91125
KernClass2: 74+ 68 "'kern' Horizontal Kerning in Latin lookup 0 kerning class 1" 
 9 parenleft
 10 registered
 9 trademark
 5 seven
 5 slash
 20 emdash endash hyphen
 20 quotedbl quotesingle
 8 asterisk
 5 comma
 4 four
 11 bracketleft
 9 backslash
 9 braceleft
 22 quotedblleft quoteleft
 6 period
 27 guillemotleft guilsinglleft
 10 exclamdown
 12 questiondown
 29 guillemotright guilsinglright
 27 quotedblbase quotesinglbase
 24 quotedblright quoteright
 9 ampersand

StartChar: .notdef
Encoding: 65536 -1 0
Width: 216
Flags: MW
HStem: 176 144<36.5 82.5> 177 21G<170.5 179> 259 61<75 101.5> 259 78<94.5 167> 325 20G<70.5 84>
VStem: 21 34<234 288> 21 165<182.5 288>
LayerCount: 2
Fore
SplineSet
21 274 m 0,0,1
 21 289 21 289 25 307.5 c 128,-1,2
 29 326 29 326 29 334 c 0,3,4
 29 345 29 345 75 345 c 0,5,6
 84 345 84 345 110 341.5 c 128,-1,7
 136 338 136 338 146 338 c 2,8,-1
 163 337 l 2,9,10
 168 337 168 337 181 304 c 128,-1,11
 194 271 194 271 194 267 c 0,12,13
 194 265 194 265 190 256 c 128,-1,14
 186 247 186 247 186 245 c 2,15,-1
 186 186 l 2,16,17
 186 177 186 177 176 177 c 0,18,19
 170 177 170 177 157 181.5 c 128,-1,20
 144 186 144 186 142 186 c 0,21,22
 128 186 128 186 101.5 181 c 128,-1,23
 75 176 75 176 45 176 c 0,24,25
 34 176 34 176 27.5 212 c 128,-1,26
 21 248 21 248 21 274 c 0,0,1
55 241 m 0,27,28
 55 224 55 224 60 207 c 1,29,30
 70 212 70 212 84 212 c 1,31,32
 84 228 84 228 115 244 c 128,-1,33
 146 260 146 260 151 267 c 1,34,35
 150 267 150 267 144.5 267.5 c 128,-1,36
 139 268 139 268 137 268 c 0,37,38
 130 268 130 268 115.5 263.5 c 128,-1,39
 101 259 101 259 95 259 c 0,40,41
 90 259 90 259 86 263 c 1,42,43
 80 259 80 259 73.5 257.5 c 128,-1,44
 67 256 67 256 63.5 256 c 128,-1,45
 60 256 60 256 57.5 252.5 c 128,-1,46
 55 249 55 249 55 241 c 0,27,28
155 228 m 1,47,48
 138 217 138 217 108 211 c 1,49,50
 116 211 116 211 131.5 213.5 c 128,-1,51
 147 216 147 216 155 216 c 1,52,-1
 155 228 l 1,47,48
47 276 m 1,53,-1
 52 271 l 1,54,55
 58 272 58 272 93.5 286.5 c 128,-1,56
 129 301 129 301 134 306 c 1,57,58
 130 307 130 307 113.5 307.5 c 128,-1,59
 97 308 97 308 86 310.5 c 128,-1,60
 75 313 75 313 75 320 c 1,61,62
 84 320 84 320 93 319.5 c 128,-1,63
 102 319 102 319 104 319 c 0,64,65
 112 319 112 319 129 323 c 1,66,67
 95 328 95 328 47 328 c 1,68,-1
 47 276 l 1,53,-1
EndSplineSet
EndChar

StartChar: Adieresis
Encoding: 196 196 4
Width: 563
Flags: MW
HStem: -13 38<48.5 88> -5 21G<455.5 465.5> 1 24 155 30 173 36<382.5 422.5> 173 129<254.5 398 385.5 422.5 385.5 463> 223 43 635 25<247.5 265> 635 127<198 265> 790 28<188 235>
VStem: 111 236<258.5 433> 162 185<394 433> 204 143<426 524> 258 34<733 802 745 802 745 806> 258 89 352 70<334 389> 352 100 382 40
LayerCount: 2
Fore
SplineSet
7 0 m 1,0,1
 7 16 7 16 14 38 c 128,-1,2
 21 60 21 60 32 86.5 c 128,-1,3
 43 113 43 113 44 117 c 0,4,5
 55 148 55 148 71.5 212.5 c 128,-1,6
 88 277 88 277 100 309 c 0,7,8
 105 324 105 324 123.5 367 c 128,-1,9
 142 410 142 410 150 439 c 1,10,-1
 155 444 l 1,11,12
 156 447 156 447 159 462.5 c 128,-1,13
 162 478 162 478 164.5 488 c 128,-1,14
 167 498 167 498 173 507 c 128,-1,15
 179 516 179 516 188 516 c 1,16,17
 188 532 188 532 206.5 592 c 128,-1,18
 225 652 225 652 235 660 c 1,19,20
 305 660 305 660 321 652.5 c 128,-1,21
 337 645 337 645 353 598 c 1,22,-1
 356 592.5 l 2,23,24
 359 587 359 587 362 581 c 128,-1,25
 365 575 365 575 365 574 c 0,26,27
 365 572 365 572 364.5 568.5 c 2,28,-1
 364 565 l 1,29,30
 372 565 372 565 376.5 549.5 c 128,-1,31
 381 534 381 534 386.5 514 c 128,-1,32
 392 494 392 494 402 487 c 1,33,34
 401 487 401 487 398 485 c 128,-1,35
 395 483 395 483 395 482 c 0,36,37
 395 475 395 475 401.5 461 c 128,-1,38
 408 447 408 447 408 439 c 1,39,-1
 421 439 l 1,40,41
 415 433 415 433 415 426 c 0,42,43
 415 421 415 421 427 404.5 c 128,-1,44
 439 388 439 388 439 383 c 0,45,46
 440 377 440 377 443 358 c 128,-1,47
 446 339 446 339 449.5 325.5 c 128,-1,48
 453 312 453 312 458 302 c 0,49,50
 464 290 464 290 470.5 284 c 128,-1,51
 477 278 477 278 480 275.5 c 128,-1,52
 483 273 483 273 487 259 c 128,-1,53
 491 245 491 245 495 216 c 0,54,55
 499 186 499 186 513 149.5 c 128,-1,56
 527 113 527 113 546.5 70 c 128,-1,57
 566 27 566 27 574 7 c 1,58,59
 574 -13 574 -13 541 -13 c 0,60,61
 530 -13 530 -13 514 -6 c 128,-1,62
 498 1 498 1 489 1 c 0,63,64
 484 1 484 1 474.5 -2 c 128,-1,65
 465 -5 465 -5 461 -5 c 0,66,67
 456 -5 456 -5 450.5 7 c 128,-1,68
 445 19 445 19 437 42.5 c 128,-1,69
 429 66 429 66 426 75 c 0,70,71
 425 77 425 77 421 87.5 c 128,-1,72
 417 98 417 98 415 103.5 c 128,-1,73
 413 109 413 109 408 120 c 128,-1,74
 403 131 403 131 399 137.5 c 128,-1,75
 395 144 395 144 389 153 c 128,-1,76
 383 162 383 162 378 167 c 128,-1,77
 373 172 373 172 366 175.5 c 128,-1,78
 359 179 359 179 352 179 c 0,79,80
 339 179 339 179 313.5 176 c 128,-1,81
 288 173 288 173 275 173 c 0,82,83
 255 173 255 173 215 176 c 128,-1,84
 175 179 175 179 150 179 c 1,85,86
 133 117 133 117 106 56 c 0,87,88
 103 49 103 49 100.5 29.5 c 128,-1,89
 98 10 98 10 92 -1.5 c 128,-1,90
 86 -13 86 -13 73 -13 c 0,91,92
 43 -13 43 -13 7 0 c 1,0,1
44 40 m 128,-1,94
 44 25 44 25 53 25 c 0,95,96
 58 25 58 25 61 32.5 c 128,-1,97
 64 40 64 40 64 43 c 1,98,-1
 56 43 l 1,99,100
 84 76 84 76 87 86 c 1,101,102
 86 86 86 86 82 86.5 c 2,103,-1
 78 87 l 1,104,105
 64 87 64 87 54 71 c 128,-1,93
 44 55 44 55 44 40 c 128,-1,94
477 43 m 1,106,107
 481 31 481 31 513 31 c 0,108,109
 527 31 527 31 527 42 c 0,110,111
 527 59 527 59 507 93 c 1,112,113
 506 92 506 92 500.5 89 c 128,-1,114
 495 86 495 86 491.5 83 c 128,-1,115
 488 80 488 80 483.5 76.5 c 128,-1,116
 479 73 479 73 476.5 69 c 128,-1,117
 474 65 474 65 474 61 c 1,118,119
 487 61 487 61 501 68 c 1,120,-1
 477 43 l 1,106,107
452 93 m 0,121,122
 452 88 452 88 457 81 c 128,-1,123
 462 74 462 74 467 74 c 1,124,-1
 469 75 l 1,125,-1
 501 104 l 1,126,-1
 501 114 l 1,127,128
 489 114 489 114 470.5 108 c 128,-1,129
 452 102 452 102 452 93 c 0,121,122
480 155 m 0,130,131
 474 155 474 155 445 111 c 1,132,133
 457 111 457 111 473 116.5 c 128,-1,134
 489 122 489 122 489 132 c 0,135,136
 489 155 489 155 480 155 c 0,130,131
106 155 m 2,137,138
 99 155 99 155 92.5 149.5 c 128,-1,139
 86 144 86 144 83 138.5 c 128,-1,140
 80 133 80 133 80 132 c 2,141,-1
 80.5 128.5 l 2,142,143
 81 125 81 125 81 124 c 2,144,-1
 119 154 l 1,145,146
 117 154 117 154 111.5 154.5 c 2,147,-1
 106 155 l 2,137,138
426 143 m 0,148,149
 426 129 426 129 437 129 c 0,150,151
 447 129 447 129 458.5 147 c 128,-1,152
 470 165 470 165 470 176 c 0,153,154
 470 205 470 205 461 205 c 1,155,156
 461.582689219 205 461.582689219 205 454.572728162 200.419078493 c 0,157,158
 425.344805559 180.843780008 425.344805559 180.843780008 421 173 c 1,159,160
 422 173 422 173 424 170 c 128,-1,161
 426 167 426 167 430 167 c 1,162,163
 431 168 431 168 446.5 170.5 c 128,-1,164
 462 173 462 173 463 173 c 1,165,166
 460 167 460 167 443 160 c 128,-1,167
 426 153 426 153 426 143 c 0,148,149
130 192 m 2,168,169
 116 192 116 192 94 167 c 1,170,171
 119 167 119 167 137 192 c 1,172,-1
 130 192 l 2,168,169
395 198 m 1,173,174
 402 185 402 185 415 185 c 0,175,176
 432 185 432 185 442 199.5 c 128,-1,177
 452 214 452 214 452 231 c 0,178,179
 452 256 452 256 434 315 c 1,180,181
 407 315 407 315 395 284 c 1,182,-1
 426 284 l 1,183,-1
 426 278 l 1,184,185
 424 276 424 276 411.5 261.5 c 128,-1,186
 399 247 399 247 387.5 233.5 c 128,-1,187
 376 220 376 220 371 210 c 1,188,189
 372 210 372 210 377.5 209.5 c 2,190,-1
 383 209 l 1,191,192
 395 209 395 209 414.5 218.5 c 128,-1,193
 434 228 434 228 445 228 c 1,194,195
 434 214 434 214 395 198 c 1,173,174
122 223 m 0,196,197
 99 223 99 223 99 198 c 1,198,-1
 100 192 l 1,199,200
 129 207 129 207 137 216 c 1,201,202
 135 223 135 223 122 223 c 0,196,197
155 210 m 1,203,204
 157 204 157 204 164 204 c 2,205,-1
 170 204 l 2,206,207
 217 204 217 204 217 223 c 0,208,209
 217 236 217 236 205 236 c 0,210,211
 202 236 202 236 183 226.5 c 128,-1,212
 164 217 164 217 155 210 c 1,203,204
291 228 m 1,213,214
 258 214 258 214 258 201 c 1,215,216
 262 201 262 201 270.5 200.5 c 128,-1,217
 279 200 279 200 284 200 c 0,218,219
 334 200 334 200 353 228 c 1,220,221
 348 241 348 241 321 241 c 0,222,223
 315 241 315 241 304 230.5 c 128,-1,224
 293 220 293 220 291 216 c 1,225,-1
 291 228 l 1,213,214
254 230 m 0,226,227
 244 231 244 231 236 224.5 c 128,-1,228
 228 218 228 218 228 207 c 1,229,230
 248 207 248 207 267 228 c 1,231,232
 265 228 265 228 260 229 c 128,-1,233
 255 230 255 230 254 230 c 0,226,227
366 222 m 1,234,235
 351 220 351 220 351 206 c 1,236,237
 364 206 364 206 366 222 c 1,234,235
150 259 m 1,238,-1
 124 235 l 1,239,-1
 150 235 l 1,240,-1
 150 259 l 1,238,-1
162 296 m 2,241,242
 136 296 136 296 123.5 288.5 c 128,-1,243
 111 281 111 281 111 259 c 1,244,-1
 111.5 253.5 l 2,245,246
 112 248 112 248 112 247 c 1,247,248
 115 249 115 249 126.5 256 c 128,-1,249
 138 263 138 263 144 267.5 c 128,-1,250
 150 272 150 272 157.5 280 c 128,-1,251
 165 288 165 288 168 296 c 1,252,-1
 162 296 l 2,241,242
409 271 m 1,253,254
 395 271 395 271 395 259 c 1,255,-1
 409 271 l 1,253,254
198 281 m 0,256,257
 198 266 198 266 235 266 c 0,258,259
 254 266 254 266 294 269.5 c 128,-1,260
 334 273 334 273 354 273 c 1,261,262
 354 290 354 290 337.5 328.5 c 128,-1,263
 321 367 321 367 321 376 c 1,264,-1
 273 469 l 1,265,266
 255 366 255 366 199 284 c 1,267,-1
 198.5 283 l 2,268,269
 198 282 198 282 198 281 c 0,256,257
377 319 m 1,270,271
 377 314 377 314 381 308 c 128,-1,272
 385 302 385 302 387 302 c 0,273,274
 402 302 402 302 412 315 c 128,-1,275
 422 328 422 328 422 343 c 0,276,277
 422 357 422 357 417 373 c 128,-1,278
 412 389 412 389 402 389 c 1,279,280
 395 380 395 380 378 352 c 1,281,282
 370 344 370 344 370 343 c 2,283,-1
 371 341 l 2,284,285
 372 339 372 339 374 336.5 c 128,-1,286
 376 334 376 334 378 334 c 0,287,288
 384 334 384 334 397 337 c 128,-1,289
 410 340 410 340 415 340 c 1,290,-1
 378 321 l 1,291,-1
 377 319 l 1,270,271
199 352 m 1,292,-1
 155 352 l 2,293,294
 149 352 149 352 144.5 346.5 c 128,-1,295
 140 341 140 341 138 335 c 128,-1,296
 136 329 136 329 133.5 320 c 128,-1,297
 131 311 131 311 130 309 c 1,298,299
 148 315 148 315 199 352 c 1,292,-1
192 334 m 1,300,301
 190 333 190 333 185 331 c 128,-1,302
 180 329 180 329 177.5 327.5 c 128,-1,303
 175 326 175 326 171 323.5 c 128,-1,304
 167 321 167 321 165 319 c 128,-1,305
 163 317 163 317 161.5 313 c 128,-1,306
 160 309 160 309 160 305 c 1,307,308
 170 305 170 305 181.5 313 c 128,-1,309
 193 321 193 321 193 330 c 1,310,-1
 192.5 332 l 1,311,-1
 192 334 l 1,300,301
352 378 m 0,312,313
 352 359 352 359 359 352 c 1,314,315
 396 383 396 383 396 414 c 0,316,317
 396 458 396 458 380 458 c 0,318,319
 373 458 373 458 359 444 c 2,320,-1
 383 469 l 1,321,322
 383 473 383 473 372.5 499 c 128,-1,323
 362 525 362 525 359 525 c 2,324,-1
 353 525 l 1,325,-1
 310 482 l 1,326,327
 309 479 309 479 309 478 c 0,328,329
 309 473 309 473 315.5 468.5 c 128,-1,330
 322 464 322 464 328 463 c 1,331,332
 321 462 321 462 321 447 c 0,333,334
 321 425 321 425 331 425 c 0,335,336
 334 425 334 425 347 433 c 1,337,338
 347 426 347 426 343.5 416 c 128,-1,339
 340 406 340 406 340 400 c 1,340,341
 347 400 347 400 361 403.5 c 128,-1,342
 375 407 375 407 383 407 c 1,343,344
 380 401 380 401 366 395.5 c 128,-1,345
 352 390 352 390 352 378 c 0,312,313
217 415 m 1,346,347
 208 405 208 405 193 394 c 128,-1,348
 178 383 178 383 168.5 376 c 128,-1,349
 159 369 159 369 159 363 c 1,350,351
 192 363 192 363 204 372.5 c 128,-1,352
 216 382 216 382 223 415 c 1,353,-1
 217 415 l 1,346,347
162 395 m 0,354,355
 162 394 162 394 164.5 391.5 c 128,-1,356
 167 389 167 389 168 389 c 0,357,358
 250 437 250 437 250 476 c 1,359,-1
 243 476 l 2,360,361
 237 476 237 476 210.5 457 c 128,-1,362
 184 438 184 438 184 432 c 1,363,364
 192 432 192 432 204 435.5 c 128,-1,365
 216 439 216 439 223 439 c 1,366,367
 220 430 220 430 209.5 426 c 128,-1,368
 199 422 199 422 188.5 422 c 128,-1,369
 178 422 178 422 170 415.5 c 128,-1,370
 162 409 162 409 162 395 c 0,354,355
217 487 m 1,371,372
 191 487 191 487 191 465 c 1,373,-1
 192 458 l 1,374,375
 217 465 217 465 239 483 c 128,-1,376
 261 501 261 501 273 525 c 1,377,-1
 347 550 l 1,378,379
 347 568 347 568 336.5 586.5 c 128,-1,380
 326 605 326 605 317 614 c 2,381,-1
 308 623 l 2,382,383
 307 623 307 623 303 622.5 c 128,-1,384
 299 622 299 622 296 622 c 0,385,386
 294 622 294 622 280 628.5 c 128,-1,387
 266 635 266 635 260 635 c 0,388,389
 246 635 246 635 240.5 601 c 128,-1,390
 235 567 235 567 229 562 c 1,391,-1
 254 562 l 1,392,393
 250 554 250 554 227 541 c 128,-1,394
 204 528 204 528 204 500 c 0,395,396
 204 487 204 487 217 487 c 1,371,372
286 519 m 1,397,398
 286 514 286 514 292.5 503.5 c 128,-1,399
 299 493 299 493 303 493 c 128,-1,400
 307 493 307 493 315 500.5 c 128,-1,401
 323 508 323 508 334.5 519.5 c 128,-1,402
 346 531 346 531 353 537 c 1,403,404
 308 537 308 537 286 519 c 1,397,398
168 802 m 1,405,-1
 180 812 l 2,406,407
 186 818 186 818 230 818 c 0,408,409
 238 818 238 818 248 814 c 128,-1,410
 258 810 258 810 258 806 c 2,411,-1
 258 740 l 2,412,413
 258 728 258 728 234 728 c 0,414,415
 168 728 168 728 168 745 c 2,416,-1
 168 802 l 1,405,-1
188 790 m 1,417,418
 188 762 188 762 204 762 c 0,419,420
 215 762 215 762 220 762.5 c 128,-1,421
 225 763 225 763 229 766.5 c 128,-1,422
 233 770 233 770 233 778 c 0,423,424
 233 784 233 784 230 790 c 1,425,426
 216 784 216 784 213 784 c 1,427,-1
 220 790 l 1,428,-1
 188 790 l 1,417,418
292 802 m 1,429,-1
 304 812 l 2,430,431
 310 818 310 818 354 818 c 0,432,433
 362 818 362 818 372 814 c 128,-1,434
 382 810 382 810 382 806 c 2,435,-1
 382 740 l 2,436,437
 382 728 382 728 358 728 c 0,438,439
 292 728 292 728 292 745 c 2,440,-1
 292 802 l 1,429,-1
312 790 m 1,441,442
 312 762 312 762 328 762 c 0,443,444
 339 762 339 762 344 762.5 c 128,-1,445
 349 763 349 763 353 766.5 c 128,-1,446
 357 770 357 770 357 778 c 0,447,448
 357 784 357 784 354 790 c 1,449,450
 340 784 340 784 337 784 c 1,451,-1
 344 790 l 1,452,-1
 312 790 l 1,441,442
EndSplineSet
EndChar

StartChar: Agrave
Encoding: 192 192 5
Width: 563
Flags: MW
HStem: -13 38<48.5 88> -5 21G<455.5 465.5> 1 24 155 30 173 36<382.5 422.5> 173 129<254.5 398 385.5 422.5 385.5 463> 223 43 635 25<247.5 265> 842 20G<198 204>
VStem: 111 82<258.5 330.5> 162 31 204 143<426 524> 352 70<334 389> 352 100
LayerCount: 2
Fore
SplineSet
7 0 m 1,0,1
 7 16 7 16 14 38 c 128,-1,2
 21 60 21 60 32 86.5 c 128,-1,3
 43 113 43 113 44 117 c 0,4,5
 55 148 55 148 71.5 212.5 c 128,-1,6
 88 277 88 277 100 309 c 0,7,8
 105 324 105 324 123.5 367 c 128,-1,9
 142 410 142 410 150 439 c 1,10,-1
 155 444 l 1,11,12
 156 447 156 447 159 462.5 c 128,-1,13
 162 478 162 478 164.5 488 c 128,-1,14
 167 498 167 498 173 507 c 128,-1,15
 179 516 179 516 188 516 c 1,16,17
 188 532 188 532 206.5 592 c 128,-1,18
 225 652 225 652 235 660 c 1,19,20
 305 660 305 660 321 652.5 c 128,-1,21
 337 645 337 645 353 598 c 1,22,-1
 356 592.5 l 2,23,24
 359 587 359 587 362 581 c 128,-1,25
 365 575 365 575 365 574 c 0,26,27
 365 572 365 572 364.5 568.5 c 2,28,-1
 364 565 l 1,29,30
 372 565 372 565 376.5 549.5 c 128,-1,31
 381 534 381 534 386.5 514 c 128,-1,32
 392 494 392 494 402 487 c 1,33,34
 401 487 401 487 398 485 c 128,-1,35
 395 483 395 483 395 482 c 0,36,37
 395 475 395 475 401.5 461 c 128,-1,38
 408 447 408 447 408 439 c 1,39,-1
 421 439 l 1,40,41
 415 433 415 433 415 426 c 0,42,43
 415 421 415 421 427 404.5 c 128,-1,44
 439 388 439 388 439 383 c 0,45,46
 440 377 440 377 443 358 c 128,-1,47
 446 339 446 339 449.5 325.5 c 128,-1,48
 453 312 453 312 458 302 c 0,49,50
 464 290 464 290 470.5 284 c 128,-1,51
 477 278 477 278 480 275.5 c 128,-1,52
 483 273 483 273 487 259 c 128,-1,53
 491 245 491 245 495 216 c 0,54,55
 499 186 499 186 513 149.5 c 128,-1,56
 527 113 527 113 546.5 70 c 128,-1,57
 566 27 566 27 574 7 c 1,58,59
 574 -13 574 -13 541 -13 c 0,60,61
 530 -13 530 -13 514 -6 c 128,-1,62
 498 1 498 1 489 1 c 0,63,64
 484 1 484 1 474.5 -2 c 128,-1,65
 465 -5 465 -5 461 -5 c 0,66,67
 456 -5 456 -5 450.5 7 c 128,-1,68
 445 19 445 19 437 42.5 c 128,-1,69
 429 66 429 66 426 75 c 0,70,71
 425 77 425 77 421 87.5 c 128,-1,72
 417 98 417 98 415 103.5 c 128,-1,73
 413 109 413 109 408 120 c 128,-1,74
 403 131 403 131 399 137.5 c 128,-1,75
 395 144 395 144 389 153 c 128,-1,76
 383 162 383 162 378 167 c 128,-1,77
 373 172 373 172 366 175.5 c 128,-1,78
 359 179 359 179 352 179 c 0,79,80
 339 179 339 179 313.5 176 c 128,-1,81
 288 173 288 173 275 173 c 0,82,83
 255 173 255 173 215 176 c 128,-1,84
 175 179 175 179 150 179 c 1,85,86
 133 117 133 117 106 56 c 0,87,88
 103 49 103 49 100.5 29.5 c 128,-1,89
 98 10 98 10 92 -1.5 c 128,-1,90
 86 -13 86 -13 73 -13 c 0,91,92
 43 -13 43 -13 7 0 c 1,0,1
44 40 m 128,-1,94
 44 25 44 25 53 25 c 0,95,96
 58 25 58 25 61 32.5 c 128,-1,97
 64 40 64 40 64 43 c 1,98,-1
 56 43 l 1,99,100
 84 76 84 76 87 86 c 1,101,102
 86 86 86 86 82 86.5 c 2,103,-1
 78 87 l 1,104,105
 64 87 64 87 54 71 c 128,-1,93
 44 55 44 55 44 40 c 128,-1,94
477 43 m 1,106,107
 481 31 481 31 513 31 c 0,108,109
 527 31 527 31 527 42 c 0,110,111
 527 59 527 59 507 93 c 1,112,113
 506 92 506 92 500.5 89 c 128,-1,114
 495 86 495 86 491.5 83 c 128,-1,115
 488 80 488 80 483.5 76.5 c 128,-1,116
 479 73 479 73 476.5 69 c 128,-1,117
 474 65 474 65 474 61 c 1,118,119
 487 61 487 61 501 68 c 1,120,-1
 477 43 l 1,106,107
452 93 m 0,121,122
 452 88 452 88 457 81 c 128,-1,123
 462 74 462 74 467 74 c 1,124,-1
 469 75 l 1,125,-1
 501 104 l 1,126,-1
 501 114 l 1,127,128
 489 114 489 114 470.5 108 c 128,-1,129
 452 102 452 102 452 93 c 0,121,122
480 155 m 0,130,131
 474 155 474 155 445 111 c 1,132,133
 457 111 457 111 473 116.5 c 128,-1,134
 489 122 489 122 489 132 c 0,135,136
 489 155 489 155 480 155 c 0,130,131
106 155 m 2,137,138
 99 155 99 155 92.5 149.5 c 128,-1,139
 86 144 86 144 83 138.5 c 128,-1,140
 80 133 80 133 80 132 c 2,141,-1
 80.5 128.5 l 2,142,143
 81 125 81 125 81 124 c 2,144,-1
 119 154 l 1,145,146
 117 154 117 154 111.5 154.5 c 2,147,-1
 106 155 l 2,137,138
426 143 m 0,148,149
 426 129 426 129 437 129 c 0,150,151
 447 129 447 129 458.5 147 c 128,-1,152
 470 165 470 165 470 176 c 0,153,154
 470 205 470 205 461 205 c 1,155,156
 461.582689219 205 461.582689219 205 454.572728162 200.419078493 c 0,157,158
 425.344805559 180.843780008 425.344805559 180.843780008 421 173 c 1,159,160
 422 173 422 173 424 170 c 128,-1,161
 426 167 426 167 430 167 c 1,162,163
 431 168 431 168 446.5 170.5 c 128,-1,164
 462 173 462 173 463 173 c 1,165,166
 460 167 460 167 443 160 c 128,-1,167
 426 153 426 153 426 143 c 0,148,149
130 192 m 2,168,169
 116 192 116 192 94 167 c 1,170,171
 119 167 119 167 137 192 c 1,172,-1
 130 192 l 2,168,169
395 198 m 1,173,174
 402 185 402 185 415 185 c 0,175,176
 432 185 432 185 442 199.5 c 128,-1,177
 452 214 452 214 452 231 c 0,178,179
 452 256 452 256 434 315 c 1,180,181
 407 315 407 315 395 284 c 1,182,-1
 426 284 l 1,183,-1
 426 278 l 1,184,185
 424 276 424 276 411.5 261.5 c 128,-1,186
 399 247 399 247 387.5 233.5 c 128,-1,187
 376 220 376 220 371 210 c 1,188,189
 372 210 372 210 377.5 209.5 c 2,190,-1
 383 209 l 1,191,192
 395 209 395 209 414.5 218.5 c 128,-1,193
 434 228 434 228 445 228 c 1,194,195
 434 214 434 214 395 198 c 1,173,174
122 223 m 0,196,197
 99 223 99 223 99 198 c 1,198,-1
 100 192 l 1,199,200
 129 207 129 207 137 216 c 1,201,202
 135 223 135 223 122 223 c 0,196,197
155 210 m 1,203,204
 157 204 157 204 164 204 c 2,205,-1
 170 204 l 2,206,207
 217 204 217 204 217 223 c 0,208,209
 217 236 217 236 205 236 c 0,210,211
 202 236 202 236 183 226.5 c 128,-1,212
 164 217 164 217 155 210 c 1,203,204
291 228 m 1,213,214
 258 214 258 214 258 201 c 1,215,216
 262 201 262 201 270.5 200.5 c 128,-1,217
 279 200 279 200 284 200 c 0,218,219
 334 200 334 200 353 228 c 1,220,221
 348 241 348 241 321 241 c 0,222,223
 315 241 315 241 304 230.5 c 128,-1,224
 293 220 293 220 291 216 c 1,225,-1
 291 228 l 1,213,214
254 230 m 0,226,227
 244 231 244 231 236 224.5 c 128,-1,228
 228 218 228 218 228 207 c 1,229,230
 248 207 248 207 267 228 c 1,231,232
 265 228 265 228 260 229 c 128,-1,233
 255 230 255 230 254 230 c 0,226,227
366 222 m 1,234,235
 351 220 351 220 351 206 c 1,236,237
 364 206 364 206 366 222 c 1,234,235
150 259 m 1,238,-1
 124 235 l 1,239,-1
 150 235 l 1,240,-1
 150 259 l 1,238,-1
162 296 m 2,241,242
 136 296 136 296 123.5 288.5 c 128,-1,243
 111 281 111 281 111 259 c 1,244,-1
 111.5 253.5 l 2,245,246
 112 248 112 248 112 247 c 1,247,248
 115 249 115 249 126.5 256 c 128,-1,249
 138 263 138 263 144 267.5 c 128,-1,250
 150 272 150 272 157.5 280 c 128,-1,251
 165 288 165 288 168 296 c 1,252,-1
 162 296 l 2,241,242
409 271 m 1,253,254
 395 271 395 271 395 259 c 1,255,-1
 409 271 l 1,253,254
198 281 m 0,256,257
 198 266 198 266 235 266 c 0,258,259
 254 266 254 266 294 269.5 c 128,-1,260
 334 273 334 273 354 273 c 1,261,262
 354 290 354 290 337.5 328.5 c 128,-1,263
 321 367 321 367 321 376 c 1,264,-1
 273 469 l 1,265,266
 255 366 255 366 199 284 c 1,267,-1
 198.5 283 l 2,268,269
 198 282 198 282 198 281 c 0,256,257
377 319 m 1,270,271
 377 314 377 314 381 308 c 128,-1,272
 385 302 385 302 387 302 c 0,273,274
 402 302 402 302 412 315 c 128,-1,275
 422 328 422 328 422 343 c 0,276,277
 422 357 422 357 417 373 c 128,-1,278
 412 389 412 389 402 389 c 1,279,280
 395 380 395 380 378 352 c 1,281,282
 370 344 370 344 370 343 c 2,283,-1
 371 341 l 2,284,285
 372 339 372 339 374 336.5 c 128,-1,286
 376 334 376 334 378 334 c 0,287,288
 384 334 384 334 397 337 c 128,-1,289
 410 340 410 340 415 340 c 1,290,-1
 378 321 l 1,291,-1
 377 319 l 1,270,271
199 352 m 1,292,-1
 155 352 l 2,293,294
 149 352 149 352 144.5 346.5 c 128,-1,295
 140 341 140 341 138 335 c 128,-1,296
 136 329 136 329 133.5 320 c 128,-1,297
 131 311 131 311 130 309 c 1,298,299
 148 315 148 315 199 352 c 1,292,-1
192 334 m 1,300,301
 190 333 190 333 185 331 c 128,-1,302
 180 329 180 329 177.5 327.5 c 128,-1,303
 175 326 175 326 171 323.5 c 128,-1,304
 167 321 167 321 165 319 c 128,-1,305
 163 317 163 317 161.5 313 c 128,-1,306
 160 309 160 309 160 305 c 1,307,308
 170 305 170 305 181.5 313 c 128,-1,309
 193 321 193 321 193 330 c 1,310,-1
 192.5 332 l 1,311,-1
 192 334 l 1,300,301
352 378 m 0,312,313
 352 359 352 359 359 352 c 1,314,315
 396 383 396 383 396 414 c 0,316,317
 396 458 396 458 380 458 c 0,318,319
 373 458 373 458 359 444 c 2,320,-1
 383 469 l 1,321,322
 383 473 383 473 372.5 499 c 128,-1,323
 362 525 362 525 359 525 c 2,324,-1
 353 525 l 1,325,-1
 310 482 l 1,326,327
 309 479 309 479 309 478 c 0,328,329
 309 473 309 473 315.5 468.5 c 128,-1,330
 322 464 322 464 328 463 c 1,331,332
 321 462 321 462 321 447 c 0,333,334
 321 425 321 425 331 425 c 0,335,336
 334 425 334 425 347 433 c 1,337,338
 347 426 347 426 343.5 416 c 128,-1,339
 340 406 340 406 340 400 c 1,340,341
 347 400 347 400 361 403.5 c 128,-1,342
 375 407 375 407 383 407 c 1,343,344
 380 401 380 401 366 395.5 c 128,-1,345
 352 390 352 390 352 378 c 0,312,313
217 415 m 1,346,347
 208 405 208 405 193 394 c 128,-1,348
 178 383 178 383 168.5 376 c 128,-1,349
 159 369 159 369 159 363 c 1,350,351
 192 363 192 363 204 372.5 c 128,-1,352
 216 382 216 382 223 415 c 1,353,-1
 217 415 l 1,346,347
162 395 m 0,354,355
 162 394 162 394 164.5 391.5 c 128,-1,356
 167 389 167 389 168 389 c 0,357,358
 250 437 250 437 250 476 c 1,359,-1
 243 476 l 2,360,361
 237 476 237 476 210.5 457 c 128,-1,362
 184 438 184 438 184 432 c 1,363,364
 192 432 192 432 204 435.5 c 128,-1,365
 216 439 216 439 223 439 c 1,366,367
 220 430 220 430 209.5 426 c 128,-1,368
 199 422 199 422 188.5 422 c 128,-1,369
 178 422 178 422 170 415.5 c 128,-1,370
 162 409 162 409 162 395 c 0,354,355
217 487 m 1,371,372
 191 487 191 487 191 465 c 1,373,-1
 192 458 l 1,374,375
 217 465 217 465 239 483 c 128,-1,376
 261 501 261 501 273 525 c 1,377,-1
 347 550 l 1,378,379
 347 568 347 568 336.5 586.5 c 128,-1,380
 326 605 326 605 317 614 c 2,381,-1
 308 623 l 2,382,383
 307 623 307 623 303 622.5 c 128,-1,384
 299 622 299 622 296 622 c 0,385,386
 294 622 294 622 280 628.5 c 128,-1,387
 266 635 266 635 260 635 c 0,388,389
 246 635 246 635 240.5 601 c 128,-1,390
 235 567 235 567 229 562 c 1,391,-1
 254 562 l 1,392,393
 250 554 250 554 227 541 c 128,-1,394
 204 528 204 528 204 500 c 0,395,396
 204 487 204 487 217 487 c 1,371,372
286 519 m 1,397,398
 286 514 286 514 292.5 503.5 c 128,-1,399
 299 493 299 493 303 493 c 128,-1,400
 307 493 307 493 315 500.5 c 128,-1,401
 323 508 323 508 334.5 519.5 c 128,-1,402
 346 531 346 531 353 537 c 1,403,404
 308 537 308 537 286 519 c 1,397,398
193 833 m 0,405,406
 193 862 193 862 204 862 c 1,407,408
 236 847 236 847 294 817.5 c 128,-1,409
 352 788 352 788 367 780 c 0,410,411
 376 776 376 776 376 731 c 1,412,-1
 355 731 l 1,413,414
 251 777 251 777 225 787 c 0,415,416
 206 795 206 795 199.5 803.5 c 128,-1,417
 193 812 193 812 193 833 c 0,405,406
270 797 m 1,418,419
 271 794 271 794 271.5 792 c 128,-1,420
 272 790 272 790 273.5 788.5 c 128,-1,421
 275 787 275 787 276 786 c 128,-1,422
 277 785 277 785 279 784.5 c 128,-1,423
 281 784 281 784 282.5 783.5 c 128,-1,424
 284 783 284 783 287.5 783 c 128,-1,425
 291 783 291 783 292.5 783 c 128,-1,426
 294 783 294 783 299 783 c 128,-1,427
 304 783 304 783 307 783 c 1,428,429
 305 786 305 786 302.5 788 c 128,-1,430
 300 790 300 790 298 791.5 c 128,-1,431
 296 793 296 793 293.5 794 c 128,-1,432
 291 795 291 795 289.5 796 c 128,-1,433
 288 797 288 797 285 797 c 128,-1,434
 282 797 282 797 280.5 797 c 128,-1,435
 279 797 279 797 275 797 c 128,-1,436
 271 797 271 797 270 797 c 1,418,419
219 824 m 1,437,438
 221 817 221 817 237 817 c 1,439,440
 234 824 234 824 219 824 c 1,437,438
EndSplineSet
EndChar

StartChar: Atilde
Encoding: 195 195 6
Width: 563
Flags: MW
HStem: -13 38<48.5 88> -5 21G<455.5 465.5> 1 24 155 30 173 36<382.5 422.5> 173 129<254.5 398 385.5 422.5 385.5 463> 223 43 635 25<247.5 265> 744 55<333 346 333 349.5> 812 37<166 243.5 185 243.5 391.5 395>
VStem: 111 236<258.5 433> 162 88<394 476> 204 143<426 524> 352 44<373 419.5> 352 70<334 389> 352 100
LayerCount: 2
Fore
SplineSet
7 0 m 1,0,1
 7 16 7 16 14 38 c 128,-1,2
 21 60 21 60 32 86.5 c 128,-1,3
 43 113 43 113 44 117 c 0,4,5
 55 148 55 148 71.5 212.5 c 128,-1,6
 88 277 88 277 100 309 c 0,7,8
 105 324 105 324 123.5 367 c 128,-1,9
 142 410 142 410 150 439 c 1,10,-1
 155 444 l 1,11,12
 156 447 156 447 159 462.5 c 128,-1,13
 162 478 162 478 164.5 488 c 128,-1,14
 167 498 167 498 173 507 c 128,-1,15
 179 516 179 516 188 516 c 1,16,17
 188 532 188 532 206.5 592 c 128,-1,18
 225 652 225 652 235 660 c 1,19,20
 305 660 305 660 321 652.5 c 128,-1,21
 337 645 337 645 353 598 c 1,22,-1
 356 592.5 l 2,23,24
 359 587 359 587 362 581 c 128,-1,25
 365 575 365 575 365 574 c 0,26,27
 365 572 365 572 364.5 568.5 c 2,28,-1
 364 565 l 1,29,30
 372 565 372 565 376.5 549.5 c 128,-1,31
 381 534 381 534 386.5 514 c 128,-1,32
 392 494 392 494 402 487 c 1,33,34
 401 487 401 487 398 485 c 128,-1,35
 395 483 395 483 395 482 c 0,36,37
 395 475 395 475 401.5 461 c 128,-1,38
 408 447 408 447 408 439 c 1,39,-1
 421 439 l 1,40,41
 415 433 415 433 415 426 c 0,42,43
 415 421 415 421 427 404.5 c 128,-1,44
 439 388 439 388 439 383 c 0,45,46
 440 377 440 377 443 358 c 128,-1,47
 446 339 446 339 449.5 325.5 c 128,-1,48
 453 312 453 312 458 302 c 0,49,50
 464 290 464 290 470.5 284 c 128,-1,51
 477 278 477 278 480 275.5 c 128,-1,52
 483 273 483 273 487 259 c 128,-1,53
 491 245 491 245 495 216 c 0,54,55
 499 186 499 186 513 149.5 c 128,-1,56
 527 113 527 113 546.5 70 c 128,-1,57
 566 27 566 27 574 7 c 1,58,59
 574 -13 574 -13 541 -13 c 0,60,61
 530 -13 530 -13 514 -6 c 128,-1,62
 498 1 498 1 489 1 c 0,63,64
 484 1 484 1 474.5 -2 c 128,-1,65
 465 -5 465 -5 461 -5 c 0,66,67
 456 -5 456 -5 450.5 7 c 128,-1,68
 445 19 445 19 437 42.5 c 128,-1,69
 429 66 429 66 426 75 c 0,70,71
 425 77 425 77 421 87.5 c 128,-1,72
 417 98 417 98 415 103.5 c 128,-1,73
 413 109 413 109 408 120 c 128,-1,74
 403 131 403 131 399 137.5 c 128,-1,75
 395 144 395 144 389 153 c 128,-1,76
 383 162 383 162 378 167 c 128,-1,77
 373 172 373 172 366 175.5 c 128,-1,78
 359 179 359 179 352 179 c 0,79,80
 339 179 339 179 313.5 176 c 128,-1,81
 288 173 288 173 275 173 c 0,82,83
 255 173 255 173 215 176 c 128,-1,84
 175 179 175 179 150 179 c 1,85,86
 133 117 133 117 106 56 c 0,87,88
 103 49 103 49 100.5 29.5 c 128,-1,89
 98 10 98 10 92 -1.5 c 128,-1,90
 86 -13 86 -13 73 -13 c 0,91,92
 43 -13 43 -13 7 0 c 1,0,1
44 40 m 128,-1,94
 44 25 44 25 53 25 c 0,95,96
 58 25 58 25 61 32.5 c 128,-1,97
 64 40 64 40 64 43 c 1,98,-1
 56 43 l 1,99,100
 84 76 84 76 87 86 c 1,101,102
 86 86 86 86 82 86.5 c 2,103,-1
 78 87 l 1,104,105
 64 87 64 87 54 71 c 128,-1,93
 44 55 44 55 44 40 c 128,-1,94
477 43 m 1,106,107
 481 31 481 31 513 31 c 0,108,109
 527 31 527 31 527 42 c 0,110,111
 527 59 527 59 507 93 c 1,112,113
 506 92 506 92 500.5 89 c 128,-1,114
 495 86 495 86 491.5 83 c 128,-1,115
 488 80 488 80 483.5 76.5 c 128,-1,116
 479 73 479 73 476.5 69 c 128,-1,117
 474 65 474 65 474 61 c 1,118,119
 487 61 487 61 501 68 c 1,120,-1
 477 43 l 1,106,107
452 93 m 0,121,122
 452 88 452 88 457 81 c 128,-1,123
 462 74 462 74 467 74 c 1,124,-1
 469 75 l 1,125,-1
 501 104 l 1,126,-1
 501 114 l 1,127,128
 489 114 489 114 470.5 108 c 128,-1,129
 452 102 452 102 452 93 c 0,121,122
480 155 m 0,130,131
 474 155 474 155 445 111 c 1,132,133
 457 111 457 111 473 116.5 c 128,-1,134
 489 122 489 122 489 132 c 0,135,136
 489 155 489 155 480 155 c 0,130,131
106 155 m 2,137,138
 99 155 99 155 92.5 149.5 c 128,-1,139
 86 144 86 144 83 138.5 c 128,-1,140
 80 133 80 133 80 132 c 2,141,-1
 80.5 128.5 l 2,142,143
 81 125 81 125 81 124 c 2,144,-1
 119 154 l 1,145,146
 117 154 117 154 111.5 154.5 c 2,147,-1
 106 155 l 2,137,138
426 143 m 0,148,149
 426 129 426 129 437 129 c 0,150,151
 447 129 447 129 458.5 147 c 128,-1,152
 470 165 470 165 470 176 c 0,153,154
 470 205 470 205 461 205 c 1,155,156
 461.582689219 205 461.582689219 205 454.572728162 200.419078493 c 0,157,158
 425.344805559 180.843780008 425.344805559 180.843780008 421 173 c 1,159,160
 422 173 422 173 424 170 c 128,-1,161
 426 167 426 167 430 167 c 1,162,163
 431 168 431 168 446.5 170.5 c 128,-1,164
 462 173 462 173 463 173 c 1,165,166
 460 167 460 167 443 160 c 128,-1,167
 426 153 426 153 426 143 c 0,148,149
130 192 m 2,168,169
 116 192 116 192 94 167 c 1,170,171
 119 167 119 167 137 192 c 1,172,-1
 130 192 l 2,168,169
395 198 m 1,173,174
 402 185 402 185 415 185 c 0,175,176
 432 185 432 185 442 199.5 c 128,-1,177
 452 214 452 214 452 231 c 0,178,179
 452 256 452 256 434 315 c 1,180,181
 407 315 407 315 395 284 c 1,182,-1
 426 284 l 1,183,-1
 426 278 l 1,184,185
 424 276 424 276 411.5 261.5 c 128,-1,186
 399 247 399 247 387.5 233.5 c 128,-1,187
 376 220 376 220 371 210 c 1,188,189
 372 210 372 210 377.5 209.5 c 2,190,-1
 383 209 l 1,191,192
 395 209 395 209 414.5 218.5 c 128,-1,193
 434 228 434 228 445 228 c 1,194,195
 434 214 434 214 395 198 c 1,173,174
122 223 m 0,196,197
 99 223 99 223 99 198 c 1,198,-1
 100 192 l 1,199,200
 129 207 129 207 137 216 c 1,201,202
 135 223 135 223 122 223 c 0,196,197
155 210 m 1,203,204
 157 204 157 204 164 204 c 2,205,-1
 170 204 l 2,206,207
 217 204 217 204 217 223 c 0,208,209
 217 236 217 236 205 236 c 0,210,211
 202 236 202 236 183 226.5 c 128,-1,212
 164 217 164 217 155 210 c 1,203,204
291 228 m 1,213,214
 258 214 258 214 258 201 c 1,215,216
 262 201 262 201 270.5 200.5 c 128,-1,217
 279 200 279 200 284 200 c 0,218,219
 334 200 334 200 353 228 c 1,220,221
 348 241 348 241 321 241 c 0,222,223
 315 241 315 241 304 230.5 c 128,-1,224
 293 220 293 220 291 216 c 1,225,-1
 291 228 l 1,213,214
254 230 m 0,226,227
 244 231 244 231 236 224.5 c 128,-1,228
 228 218 228 218 228 207 c 1,229,230
 248 207 248 207 267 228 c 1,231,232
 265 228 265 228 260 229 c 128,-1,233
 255 230 255 230 254 230 c 0,226,227
366 222 m 1,234,235
 351 220 351 220 351 206 c 1,236,237
 364 206 364 206 366 222 c 1,234,235
150 259 m 1,238,-1
 124 235 l 1,239,-1
 150 235 l 1,240,-1
 150 259 l 1,238,-1
162 296 m 2,241,242
 136 296 136 296 123.5 288.5 c 128,-1,243
 111 281 111 281 111 259 c 1,244,-1
 111.5 253.5 l 2,245,246
 112 248 112 248 112 247 c 1,247,248
 115 249 115 249 126.5 256 c 128,-1,249
 138 263 138 263 144 267.5 c 128,-1,250
 150 272 150 272 157.5 280 c 128,-1,251
 165 288 165 288 168 296 c 1,252,-1
 162 296 l 2,241,242
409 271 m 1,253,254
 395 271 395 271 395 259 c 1,255,-1
 409 271 l 1,253,254
198 281 m 0,256,257
 198 266 198 266 235 266 c 0,258,259
 254 266 254 266 294 269.5 c 128,-1,260
 334 273 334 273 354 273 c 1,261,262
 354 290 354 290 337.5 328.5 c 128,-1,263
 321 367 321 367 321 376 c 1,264,-1
 273 469 l 1,265,266
 255 366 255 366 199 284 c 1,267,-1
 198.5 283 l 2,268,269
 198 282 198 282 198 281 c 0,256,257
377 319 m 1,270,271
 377 314 377 314 381 308 c 128,-1,272
 385 302 385 302 387 302 c 0,273,274
 402 302 402 302 412 315 c 128,-1,275
 422 328 422 328 422 343 c 0,276,277
 422 357 422 357 417 373 c 128,-1,278
 412 389 412 389 402 389 c 1,279,280
 395 380 395 380 378 352 c 1,281,282
 370 344 370 344 370 343 c 2,283,-1
 371 341 l 2,284,285
 372 339 372 339 374 336.5 c 128,-1,286
 376 334 376 334 378 334 c 0,287,288
 384 334 384 334 397 337 c 128,-1,289
 410 340 410 340 415 340 c 1,290,-1
 378 321 l 1,291,-1
 377 319 l 1,270,271
199 352 m 1,292,-1
 155 352 l 2,293,294
 149 352 149 352 144.5 346.5 c 128,-1,295
 140 341 140 341 138 335 c 128,-1,296
 136 329 136 329 133.5 320 c 128,-1,297
 131 311 131 311 130 309 c 1,298,299
 148 315 148 315 199 352 c 1,292,-1
192 334 m 1,300,301
 190 333 190 333 185 331 c 128,-1,302
 180 329 180 329 177.5 327.5 c 128,-1,303
 175 326 175 326 171 323.5 c 128,-1,304
 167 321 167 321 165 319 c 128,-1,305
 163 317 163 317 161.5 313 c 128,-1,306
 160 309 160 309 160 305 c 1,307,308
 170 305 170 305 181.5 313 c 128,-1,309
 193 321 193 321 193 330 c 1,310,-1
 192.5 332 l 1,311,-1
 192 334 l 1,300,301
352 378 m 0,312,313
 352 359 352 359 359 352 c 1,314,315
 396 383 396 383 396 414 c 0,316,317
 396 458 396 458 380 458 c 0,318,319
 373 458 373 458 359 444 c 2,320,-1
 383 469 l 1,321,322
 383 473 383 473 372.5 499 c 128,-1,323
 362 525 362 525 359 525 c 2,324,-1
 353 525 l 1,325,-1
 310 482 l 1,326,327
 309 479 309 479 309 478 c 0,328,329
 309 473 309 473 315.5 468.5 c 128,-1,330
 322 464 322 464 328 463 c 1,331,332
 321 462 321 462 321 447 c 0,333,334
 321 425 321 425 331 425 c 0,335,336
 334 425 334 425 347 433 c 1,337,338
 347 426 347 426 343.5 416 c 128,-1,339
 340 406 340 406 340 400 c 1,340,341
 347 400 347 400 361 403.5 c 128,-1,342
 375 407 375 407 383 407 c 1,343,344
 380 401 380 401 366 395.5 c 128,-1,345
 352 390 352 390 352 378 c 0,312,313
217 415 m 1,346,347
 208 405 208 405 193 394 c 128,-1,348
 178 383 178 383 168.5 376 c 128,-1,349
 159 369 159 369 159 363 c 1,350,351
 192 363 192 363 204 372.5 c 128,-1,352
 216 382 216 382 223 415 c 1,353,-1
 217 415 l 1,346,347
162 395 m 0,354,355
 162 394 162 394 164.5 391.5 c 128,-1,356
 167 389 167 389 168 389 c 0,357,358
 250 437 250 437 250 476 c 1,359,-1
 243 476 l 2,360,361
 237 476 237 476 210.5 457 c 128,-1,362
 184 438 184 438 184 432 c 1,363,364
 192 432 192 432 204 435.5 c 128,-1,365
 216 439 216 439 223 439 c 1,366,367
 220 430 220 430 209.5 426 c 128,-1,368
 199 422 199 422 188.5 422 c 128,-1,369
 178 422 178 422 170 415.5 c 128,-1,370
 162 409 162 409 162 395 c 0,354,355
217 487 m 1,371,372
 191 487 191 487 191 465 c 1,373,-1
 192 458 l 1,374,375
 217 465 217 465 239 483 c 128,-1,376
 261 501 261 501 273 525 c 1,377,-1
 347 550 l 1,378,379
 347 568 347 568 336.5 586.5 c 128,-1,380
 326 605 326 605 317 614 c 2,381,-1
 308 623 l 2,382,383
 307 623 307 623 303 622.5 c 128,-1,384
 299 622 299 622 296 622 c 0,385,386
 294 622 294 622 280 628.5 c 128,-1,387
 266 635 266 635 260 635 c 0,388,389
 246 635 246 635 240.5 601 c 128,-1,390
 235 567 235 567 229 562 c 1,391,-1
 254 562 l 1,392,393
 250 554 250 554 227 541 c 128,-1,394
 204 528 204 528 204 500 c 0,395,396
 204 487 204 487 217 487 c 1,371,372
286 519 m 1,397,398
 286 514 286 514 292.5 503.5 c 128,-1,399
 299 493 299 493 303 493 c 128,-1,400
 307 493 307 493 315 500.5 c 128,-1,401
 323 508 323 508 334.5 519.5 c 128,-1,402
 346 531 346 531 353 537 c 1,403,404
 308 537 308 537 286 519 c 1,397,398
92 757 m 1,405,406
 92 766 92 766 94.5 772.5 c 128,-1,407
 97 779 97 779 102.5 786.5 c 128,-1,408
 108 794 108 794 111 799 c 0,409,410
 117 811 117 811 122.5 818.5 c 128,-1,411
 128 826 128 826 132.5 830.5 c 128,-1,412
 137 835 137 835 144 837 c 128,-1,413
 151 839 151 839 156.5 839.5 c 128,-1,414
 162 840 162 840 174.5 841 c 128,-1,415
 187 842 187 842 197 843 c 0,416,417
 198 843 198 843 203.5 846 c 2,418,-1
 209 849 l 1,419,420
 247 849 247 849 278.5 825.5 c 128,-1,421
 310 802 310 802 333 799 c 1,422,423
 346 799 346 799 365 824 c 128,-1,424
 384 849 384 849 399 849 c 0,425,426
 411 849 411 849 420 834 c 128,-1,427
 429 819 429 819 432 817 c 1,428,429
 422 790 422 790 390.5 767 c 128,-1,430
 359 744 359 744 330 744 c 0,431,432
 299 744 299 744 257 763 c 128,-1,433
 215 782 215 782 194 782 c 0,434,435
 184 782 184 782 161 776 c 0,436,437
 161 775 161 775 161.5 773.5 c 128,-1,438
 162 772 162 772 162 771 c 0,439,440
 162 762 162 762 152.5 753 c 128,-1,441
 143 744 143 744 135 744 c 0,442,443
 132 744 132 744 112.5 750.5 c 128,-1,444
 93 757 93 757 92 757 c 1,405,406
148 762 m 1,445,-1
 147 763 l 1,446,447
 145 763 145 763 139.5 757.5 c 128,-1,448
 134 752 134 752 134 750 c 1,449,450
 138 750 138 750 143 754 c 128,-1,451
 148 758 148 758 148 762 c 1,445,-1
166 812 m 2,452,453
 155 812 155 812 142 800 c 128,-1,454
 129 788 129 788 129 776 c 1,455,456
 157 804 157 804 172 812 c 1,457,-1
 166 812 l 2,452,453
259 794 m 1,458,459
 266 787 266 787 279 781 c 128,-1,460
 292 775 292 775 296 775 c 0,461,462
 297 775 297 775 299.5 775.5 c 2,463,-1
 302 776 l 1,464,-1
 268 800 l 1,465,466
 265 800 265 800 259 794 c 1,458,459
395 812 m 1,467,468
 388 812 388 812 388 799 c 1,469,470
 395 799 395 799 395 812 c 1,467,468
410 815 m 1,471,-1
 413 799 l 1,472,473
 415 799 415 799 417 803.5 c 128,-1,474
 419 808 419 808 419 809 c 2,475,-1
 410 815 l 1,471,-1
185 812 m 1,476,477
 198 812 198 812 221 808 c 128,-1,478
 244 804 244 804 256 804 c 1,479,480
 256 818 256 818 222 818 c 0,481,482
 213 818 213 818 203 817.5 c 128,-1,483
 193 817 193 817 191 817 c 1,484,-1
 185 812 l 1,476,477
EndSplineSet
EndChar

StartChar: B
Encoding: 66 66 7
Width: 587
Flags: MW
HStem: -15 32<104 104 104 130> -14 21G<80 80 258.5 287.5> -8 21G<222.5 246> -5 21G<331.5 337.5 335 356> 52 25<318.5 330 295 345.5> 288 23 288 103<197 335.5> 319 104<380 443.5> 623 23 623 35<187 200.5 234 236 288 302.5 172 200.5>
VStem: 68 25 68 104<306 334 306 380 306 380> 122 25 122 31<521.5 548.5> 389 24<430 430 430 454.5 478.5 488.5> 426 30 457 24<158 170 446 469> 494 25<129 176.5>
LayerCount: 2
Fore
SplineSet
68 -2 m 1,0,-1
 68 380 l 1,1,2
 61 387 61 387 61 393 c 0,3,4
 66 428 66 428 69 477 c 128,-1,5
 72 526 72 526 75 559 c 128,-1,6
 78 592 78 592 86 608 c 1,7,8
 99 600 99 600 99 573 c 0,9,10
 99 564 99 564 96 545.5 c 128,-1,11
 93 527 93 527 93 516 c 1,12,-1
 99 495 l 2,13,14
 99 493 99 493 97.5 483.5 c 128,-1,15
 96 474 96 474 94.5 455 c 128,-1,16
 93 436 93 436 93 411 c 0,17,18
 93 407 93 407 95 400 c 128,-1,19
 97 393 97 393 98 393 c 2,20,-1
 129 393 l 1,21,-1
 136 406 l 1,22,23
 122 515 122 515 122 534 c 0,24,25
 122 550 122 550 125.5 564 c 128,-1,26
 129 578 129 578 129 584 c 0,27,28
 129 592 129 592 122 597 c 1,29,30
 127 599 127 599 136 604 c 128,-1,31
 145 609 145 609 151.5 613 c 128,-1,32
 158 617 158 617 159 617 c 1,33,34
 159 606 159 606 166 603 c 1,35,36
 189 603 189 603 234 608 c 0,37,38
 236 609 236 609 241 612 c 2,39,-1
 246 615 l 2,40,41
 245 614 245 614 245 612 c 0,42,43
 245 596 245 596 306 596 c 0,44,45
 311 596 311 596 331.5 603.5 c 128,-1,46
 352 611 352 611 352 615 c 2,47,-1
 352 621 l 1,48,-1
 328 623 l 1,49,-1
 172 623 l 1,50,-1
 172 625 l 1,51,52
 164 625 164 625 148 623 c 128,-1,53
 132 621 132 621 122 621 c 0,54,55
 121 621 121 621 102.5 623.5 c 128,-1,56
 84 626 84 626 80 627 c 1,57,58
 80 635 80 635 85 643 c 128,-1,59
 90 651 90 651 93 651 c 0,60,61
 94 651 94 651 105 648.5 c 128,-1,62
 116 646 116 646 118 646 c 0,63,64
 129 646 129 646 158 652 c 128,-1,65
 187 658 187 658 200 658 c 1,66,-1
 204 656 l 2,67,68
 208 654 208 654 213.5 652.5 c 128,-1,69
 219 651 219 651 222 651 c 1,70,-1
 234 658 l 1,71,72
 236 658 236 658 247 654.5 c 128,-1,73
 258 651 258 651 259 651 c 0,74,75
 261 651 261 651 274.5 654.5 c 128,-1,76
 288 658 288 658 289 658 c 0,77,78
 313 658 313 658 351 651 c 128,-1,79
 389 644 389 644 407 633 c 0,80,81
 437 615 437 615 459 553.5 c 128,-1,82
 481 492 481 492 481 449 c 0,83,84
 481 414 481 414 437 344 c 1,85,86
 445 335 445 335 461.5 320.5 c 128,-1,87
 478 306 478 306 487 296.5 c 128,-1,88
 496 287 496 287 503.5 266 c 128,-1,89
 511 245 511 245 511 217 c 0,90,91
 511 212 511 212 515 202 c 128,-1,92
 519 192 519 192 519 180 c 0,93,94
 519 151 519 151 510 125.5 c 128,-1,95
 501 100 501 100 484.5 80 c 128,-1,96
 468 60 468 60 454.5 47.5 c 128,-1,97
 441 35 441 35 422.5 21 c 128,-1,98
 404 7 404 7 401 4 c 0,99,100
 393 -5 393 -5 356 -5 c 2,101,-1
 335 -5 l 2,102,103
 333 -5 333 -5 326 -7.5 c 128,-1,104
 319 -10 319 -10 301.5 -12 c 128,-1,105
 284 -14 284 -14 259 -14 c 0,106,107
 258 -14 258 -14 246 -8 c 1,108,109
 222 -8 222 -8 176 -11.5 c 128,-1,110
 130 -15 130 -15 107 -15 c 2,111,-1
 80 -14 l 1,112,-1
 68 -2 l 1,0,-1
97 52 m 0,113,114
 97 24 97 24 104 17 c 1,115,-1
 142 22 l 1,116,-1
 142 29 l 1,117,-1
 124 29 l 1,118,119
 124 35 124 35 130 43.5 c 128,-1,120
 136 52 136 52 136 56 c 0,121,122
 136 75 136 75 111 84 c 1,123,124
 114 85 114 85 117 88.5 c 128,-1,125
 120 92 120 92 121.5 95.5 c 2,126,-1
 123 99 l 1,127,128
 123 102 123 102 118.5 108 c 128,-1,129
 114 114 114 114 111 115 c 1,130,-1
 124 115 l 1,131,132
 124 122 124 122 121 136.5 c 128,-1,133
 118 151 118 151 118 158 c 0,134,135
 118 159 118 159 120.5 164 c 128,-1,136
 123 169 123 169 123 180 c 0,137,138
 123 188 123 188 121 196 c 128,-1,139
 119 204 119 204 119 211 c 1,140,-1
 122 208 l 1,141,142
 129 213 129 213 129 220 c 2,143,-1
 129 301 l 1,144,145
 172 325 172 325 197 356 c 1,146,-1
 185 368 l 1,147,148
 175 373 175 373 142.5 377.5 c 128,-1,149
 110 382 110 382 91 382 c 1,150,151
 90 381 90 381 90 380 c 0,152,153
 90 378 90 378 94 371.5 c 128,-1,154
 98 365 98 365 98 362 c 0,155,156
 98 352 98 352 95 333 c 128,-1,157
 92 314 92 314 92 290 c 0,158,159
 92 274 92 274 95.5 241 c 128,-1,160
 99 208 99 208 99 191 c 0,161,162
 99 177 99 177 98 170 c 1,163,-1
 104 165 l 1,164,165
 97 163 97 163 97 147 c 0,166,167
 97 136 97 136 100.5 123 c 128,-1,168
 104 110 104 110 104 102 c 0,169,170
 104 96 104 96 100.5 82.5 c 128,-1,171
 97 69 97 69 97 52 c 0,113,114
216 41 m 1,172,173
 211 41 211 41 186 34.5 c 128,-1,174
 161 28 161 28 161 22 c 2,175,-1
 161 14 l 1,176,177
 172 14 172 14 189.5 21.5 c 128,-1,178
 207 29 207 29 210 29 c 0,179,180
 211 29 211 29 222 25.5 c 128,-1,181
 233 22 233 22 234 22 c 2,182,-1
 238 22 l 2,183,184
 240 22 240 22 246 29 c 128,-1,185
 252 36 252 36 253 41 c 1,186,187
 261 17 261 17 265 17 c 2,188,-1
 314 17 l 1,189,-1
 320 10 l 1,190,-1
 328 22 l 1,191,192
 334 21 334 21 344 21 c 0,193,194
 352 21 352 21 364 27.5 c 2,195,-1
 376 34 l 1,196,197
 440 53 440 53 467 80 c 128,-1,198
 494 107 494 107 494 170 c 0,199,200
 494 185 494 185 480.5 240.5 c 128,-1,201
 467 296 467 296 457 301 c 0,202,203
 456 301 456 301 450 302.5 c 128,-1,204
 444 304 444 304 438.5 305 c 2,205,-1
 433 306 l 2,206,207
 427 308 427 308 421 312 c 128,-1,208
 415 316 415 316 407.5 317.5 c 128,-1,209
 400 319 400 319 383 319 c 0,210,211
 370 319 370 319 370 312 c 1,212,213
 382 304 382 304 413 301 c 1,214,215
 412 300 412 300 412 298 c 0,216,217
 412 291 412 291 427.5 278.5 c 128,-1,218
 443 266 443 266 444 263 c 0,219,220
 445 262 445 262 453 243 c 128,-1,221
 461 224 461 224 463 220 c 1,222,223
 449 211 449 211 449 203 c 1,224,225
 463 203 463 203 463 196 c 0,226,227
 463 191 463 191 458.5 178.5 c 128,-1,228
 454 166 454 166 451 165 c 1,229,-1
 457 158 l 1,230,-1
 481 170 l 1,231,232
 481 163 481 163 468.5 155 c 128,-1,233
 456 147 456 147 456 127 c 0,234,235
 456 125 456 125 456.5 117.5 c 128,-1,236
 457 110 457 110 457 109 c 1,237,238
 457 110 457 110 461.5 112.5 c 128,-1,239
 466 115 466 115 468 115 c 128,-1,240
 470 115 470 115 473 113 c 128,-1,241
 476 111 476 111 476 109 c 1,242,243
 466 101 466 101 439 101 c 1,244,245
 439 91 439 91 433 77 c 1,246,247
 377 52 377 52 330 52 c 0,248,249
 316 52 316 52 312.5 56 c 2,250,-1
 309 60 l 1,251,252
 307 60 307 60 296 56.5 c 2,253,-1
 285 53 l 1,254,255
 261 51 261 51 216 51 c 1,256,-1
 216 41 l 1,172,173
154 47 m 1,257,-1
 154 41 l 1,258,259
 161 41 161 41 179 47 c 1,260,-1
 154 47 l 1,257,-1
161 84 m 1,261,262
 165 84 165 84 173 84.5 c 128,-1,263
 181 85 181 85 185 85 c 0,264,265
 207 85 207 85 251 81 c 128,-1,266
 295 77 295 77 317 77 c 0,267,268
 408 77 408 77 420 121 c 1,269,270
 426 153 426 153 426 198 c 0,271,272
 426 229 426 229 416.5 248.5 c 128,-1,273
 407 268 407 268 387 276 c 128,-1,274
 367 284 367 284 351 286 c 128,-1,275
 335 288 335 288 307 288 c 0,276,277
 213 288 213 288 161 269 c 1,278,279
 147 266 147 266 147 141 c 0,280,281
 147 106 147 106 161 84 c 1,261,262
296 362 m 1,282,283
 286 362 286 362 273 361 c 128,-1,284
 260 360 260 360 233 355.5 c 128,-1,285
 206 351 206 351 189 338 c 128,-1,286
 172 325 172 325 172 306 c 1,287,288
 238 334 238 334 259 349 c 1,289,-1
 228 318 l 1,290,-1
 228 311 l 1,291,292
 240 311 240 311 247 314.5 c 128,-1,293
 254 318 254 318 256.5 322.5 c 128,-1,294
 259 327 259 327 264 333.5 c 128,-1,295
 269 340 269 340 277 344 c 0,296,297
 281 346 281 346 302.5 350 c 128,-1,298
 324 354 324 354 333 368 c 0,299,300
 333 369 333 369 331 371.5 c 128,-1,301
 329 374 329 374 328 374 c 0,302,303
 323 374 323 374 310 369.5 c 128,-1,304
 297 365 297 365 296 362 c 1,282,283
363 374 m 0,305,306
 357 374 357 374 329 356 c 128,-1,307
 301 338 301 338 277 318 c 1,308,309
 279 318 279 318 285.5 317.5 c 128,-1,310
 292 317 292 317 293 317 c 0,311,312
 325 317 325 317 339 349 c 1,313,314
 339 342 339 342 335 333.5 c 128,-1,315
 331 325 331 325 331 322 c 1,316,317
 347 322 347 322 371 335 c 128,-1,318
 395 348 395 348 395 359 c 0,319,320
 395 361 395 361 381 367.5 c 128,-1,321
 367 374 367 374 363 374 c 0,305,306
389 380 m 1,322,-1
 389 373 l 1,323,324
 404 373 404 373 421 380.5 c 128,-1,325
 438 388 438 388 438 402 c 1,326,-1
 437.5 404 l 1,327,-1
 437 406 l 1,328,-1
 389 380 l 1,322,-1
161 406 m 1,329,330
 175 391 175 391 208 391 c 0,331,332
 209 391 209 391 218 391 c 128,-1,333
 227 391 227 391 235 391 c 128,-1,334
 243 391 243 391 256.5 391.5 c 128,-1,335
 270 392 270 392 281 393 c 128,-1,336
 292 394 292 394 306 396 c 128,-1,337
 320 398 320 398 331 401 c 128,-1,338
 342 404 342 404 353.5 409 c 128,-1,339
 365 414 365 414 372.5 420 c 128,-1,340
 380 426 380 426 384.5 435 c 128,-1,341
 389 444 389 444 389 454 c 1,342,-1
 385.5 460 l 2,343,344
 382 466 382 466 382 467 c 128,-1,345
 382 468 382 468 385.5 473 c 128,-1,346
 389 478 389 478 389 479 c 0,347,348
 389 502 389 502 363 541 c 0,349,350
 347 564 347 564 259.5 568 c 128,-1,351
 172 572 172 572 166 584 c 1,352,353
 153 571 153 571 153 545 c 0,354,355
 153 521 153 521 157 474.5 c 128,-1,356
 161 428 161 428 161 406 c 1,329,330
401 411 m 1,357,-1
 401 399 l 1,358,359
 415 406 415 406 420 411 c 1,360,-1
 401 411 l 1,357,-1
413 430 m 1,361,362
 414 423 414 423 424 423 c 0,363,364
 431 423 431 423 436.5 423.5 c 128,-1,365
 442 424 442 424 445.5 424.5 c 128,-1,366
 449 425 449 425 451.5 427.5 c 128,-1,367
 454 430 454 430 455 431 c 128,-1,368
 456 432 456 432 456.5 436 c 128,-1,369
 457 440 457 440 457 442.5 c 128,-1,370
 457 445 457 445 457 450.5 c 128,-1,371
 457 456 457 456 457 460 c 0,372,373
 457 487 457 487 448 523 c 128,-1,374
 439 559 439 559 420 559 c 0,375,376
 410 559 410 559 400.5 548.5 c 128,-1,377
 391 538 391 538 391 528 c 1,378,379
 402 528 402 528 420 523 c 1,380,-1
 413 516 l 1,381,-1
 416 515.5 l 2,382,383
 419 515 419 515 420 515 c 0,384,385
 429 515 429 515 433 523 c 1,386,387
 433 514 433 514 423 501.5 c 128,-1,388
 413 489 413 489 413 479 c 0,389,390
 413 477 413 477 418 474 c 128,-1,391
 423 471 423 471 428 469 c 2,392,-1
 433 467 l 1,393,394
 420 462 420 462 413 454 c 1,395,396
 421 454 421 454 429.5 457 c 128,-1,397
 438 460 438 460 444 460 c 1,398,-1
 413 430 l 1,361,362
376 559 m 1,399,400
 385 553 385 553 390 553 c 0,401,402
 396 553 396 553 413 565 c 1,403,404
 412 565 412 565 407.5 565.5 c 128,-1,405
 403 566 403 566 401 566 c 0,406,407
 383 566 383 566 376 559 c 1,399,400
382 604 m 0,408,409
 372 604 372 604 364.5 593 c 128,-1,410
 357 582 357 582 357 571 c 1,411,412
 407 571 407 571 407 580 c 128,-1,413
 407 589 407 589 398 596.5 c 128,-1,414
 389 604 389 604 382 604 c 0,408,409
355 604 m 0,415,416
 326 604 326 604 326 579 c 1,417,418
 354 579 354 579 363 603 c 1,419,-1
 359.5 603.5 l 2,420,421
 356 604 356 604 355 604 c 0,415,416
EndSplineSet
EndChar

StartChar: C
Encoding: 67 67 8
Width: 567
Flags: MW
HStem: -27 93<283 434> -15 32<356 373> -14 21G<320 324> 34 32<385.5 406.5> 541 46<473 538.5> 572 87<378.5 404 267 426.5> 621 38<296 303 302 313>
VStem: 23 37<317.5 336 317.5 376.5> 23 81 111 23<267 270.5>
LayerCount: 2
Fore
SplineSet
23 275 m 0,0,1
 23 432 23 432 121 545.5 c 128,-1,2
 219 659 219 659 372 659 c 0,3,4
 398 659 398 659 408 658.5 c 128,-1,5
 418 658 418 658 445 656 c 128,-1,6
 472 654 472 654 485 648.5 c 128,-1,7
 498 643 498 643 515.5 633 c 128,-1,8
 533 623 533 623 540.5 606 c 128,-1,9
 548 589 548 589 548 566 c 0,10,11
 548 559 548 559 544 550 c 128,-1,12
 540 541 540 541 533 541 c 0,13,14
 516 541 516 541 472 556.5 c 128,-1,15
 428 572 428 572 403 572 c 0,16,17
 346 572 346 572 264 541 c 0,18,19
 134 493 134 493 134 269 c 0,20,21
 134 267 134 267 134.5 256.5 c 128,-1,22
 135 246 135 246 135 244 c 1,23,24
 141 242 141 242 144.5 228 c 128,-1,25
 148 214 148 214 149.5 197.5 c 128,-1,26
 151 181 151 181 153 177 c 0,27,28
 201 66 201 66 410 66 c 0,29,30
 437 66 437 66 479.5 84.5 c 128,-1,31
 522 103 522 103 530 103 c 0,32,33
 548 103 548 103 548 79 c 0,34,35
 548 50 548 50 542.5 26.5 c 128,-1,36
 537 3 537 3 529 3 c 0,37,38
 525 3 525 3 518 3.5 c 2,39,-1
 511 4 l 1,40,41
 405 -15 405 -15 344 -15 c 0,42,43
 340 -15 340 -15 332 -14.5 c 128,-1,44
 324 -14 324 -14 320 -14 c 1,45,46
 317 -19 317 -19 304.5 -23 c 128,-1,47
 292 -27 292 -27 283 -27 c 0,48,49
 177 -19 177 -19 100 74 c 128,-1,50
 23 167 23 167 23 275 c 0,0,1
258 41 m 1,51,52
 257 29 257 29 297.5 23 c 128,-1,53
 338 17 338 17 363 17 c 0,54,55
 403 17 403 17 448.5 23.5 c 128,-1,56
 494 30 494 30 511 41 c 1,57,-1
 511 60 l 1,58,59
 428 34 428 34 388 34 c 0,60,61
 376 34 376 34 331 41 c 0,62,63
 317 44 317 44 237.5 67.5 c 128,-1,64
 158 91 158 91 153 91 c 1,65,-1
 165 102 l 1,66,67
 162 109 162 109 158 109 c 0,68,69
 156 109 156 109 152 108 c 128,-1,70
 148 107 148 107 146 107 c 1,71,72
 146 119 146 119 145.5 123.5 c 128,-1,73
 145 128 145 128 139.5 134 c 128,-1,74
 134 140 134 140 122 140 c 1,75,76
 131 145 131 145 135 158 c 1,77,78
 118 158 118 158 118 180 c 1,79,-1
 98 180 l 1,80,81
 102 183 102 183 108.5 185.5 c 128,-1,82
 115 188 115 188 118.5 190.5 c 128,-1,83
 122 193 122 193 122 196 c 0,84,85
 122 208 122 208 116 220 c 1,86,87
 106 218 106 218 92.5 206.5 c 128,-1,88
 79 195 79 195 79 186 c 0,89,90
 79 183 79 183 85.5 164 c 128,-1,91
 92 145 92 145 93 145 c 0,92,93
 100 145 100 145 111 153 c 1,94,95
 104 148 104 148 104 140 c 0,96,97
 104 125 104 125 108.5 112.5 c 128,-1,98
 113 100 113 100 122.5 90 c 128,-1,99
 132 80 132 80 140.5 73.5 c 128,-1,100
 149 67 149 67 165 60 c 128,-1,101
 181 53 181 53 189.5 50 c 128,-1,102
 198 47 198 47 216 41.5 c 128,-1,103
 234 36 234 36 239 34 c 1,104,-1
 240 34 l 2,105,106
 242 34 242 34 258 41 c 1,51,52
61 226 m 0,107,108
 61 220 61 220 63.5 210.5 c 128,-1,109
 66 201 66 201 67 201 c 2,110,-1
 79 201 l 1,111,-1
 111 232 l 1,112,-1
 111 239 l 1,113,114
 61 239 61 239 61 226 c 0,107,108
101 276 m 0,115,116
 92 276 92 276 80 265.5 c 128,-1,117
 68 255 68 255 67 244 c 1,118,119
 82 244 82 244 89 245 c 128,-1,120
 96 246 96 246 103.5 251.5 c 128,-1,121
 111 257 111 257 111 269 c 0,122,123
 111 271 111 271 106.5 273.5 c 128,-1,124
 102 276 102 276 101 276 c 0,115,116
52 293 m 1,125,-1
 52 287 l 2,126,127
 52 262 52 262 65 262 c 0,128,129
 77 262 77 262 104 293 c 1,130,-1
 52 293 l 1,125,-1
113 358 m 1,131,132
 85 358 85 358 72.5 350.5 c 128,-1,133
 60 343 60 343 60 318 c 1,134,-1
 60.5 313 l 2,135,136
 61 308 61 308 61 307 c 1,137,138
 113 339 113 339 113 358 c 1,131,132
111 332 m 1,139,140
 84 321 84 321 72 307 c 1,141,142
 74 307 74 307 80 306.5 c 128,-1,143
 86 306 86 306 89 306 c 0,144,145
 112 306 112 306 112 322 c 0,146,147
 112 330 112 330 111 332 c 1,139,140
111 399 m 0,148,149
 97 399 97 399 72 368 c 1,150,151
 73 368 73 368 76.0779191081 367.983380306 c 0,152,153
 89 368 89 368 96 369 c 128,-1,154
 103 370 103 370 109.5 375.5 c 128,-1,155
 116 381 116 381 116 393 c 0,156,157
 116 394 116 394 114 396.5 c 128,-1,158
 112 399 112 399 111 399 c 0,148,149
111 417 m 1,159,-1
 79 417 l 2,160,161
 72 417 72 417 72 395 c 2,162,-1
 72 387 l 1,163,-1
 111 411 l 1,164,-1
 111 417 l 1,159,-1
135 460 m 1,165,166
 123 457 123 457 104 436 c 1,167,168
 106 434 106 434 113 434 c 0,169,170
 123 434 123 434 129.5 440.5 c 128,-1,171
 136 447 136 447 136 457 c 0,172,173
 136 458 136 458 135.5 458.5 c 2,174,-1
 135 460 l 1,165,166
132 481 m 1,175,176
 121 481 121 481 109 473.5 c 128,-1,177
 97 466 97 466 97 457 c 0,178,179
 97.2592592593 455.666666667 97.2592592593 455.666666667 98 454 c 1,180,181
 99 455 99 455 105 457.5 c 128,-1,182
 111 460 111 460 114.5 462 c 128,-1,183
 118 464 118 464 122.5 467 c 128,-1,184
 127 470 127 470 129.5 473.5 c 128,-1,185
 132 477 132 477 132 481 c 1,175,176
116 498 m 1,186,-1
 116 484 l 1,187,188
 129 493 129 493 144.5 498.5 c 128,-1,189
 160 504 160 504 165 507 c 128,-1,190
 170 510 170 510 174 522 c 128,-1,191
 178 534 178 534 178 559 c 1,192,-1
 116 498 l 1,186,-1
223 586 m 1,193,194
 211 586 211 586 203 578 c 128,-1,195
 195 570 195 570 195 557 c 1,196,197
 205 557 205 557 214 566.5 c 128,-1,198
 223 576 223 576 223 586 c 1,193,194
239 584 m 1,199,-1
 222 559 l 1,200,201
 240 577 240 577 240 581 c 0,202,203
 240 582 240 582 239.5 582.5 c 2,204,-1
 239 584 l 1,199,-1
317 603 m 2,205,206
 303 603 303 603 277 572 c 1,207,208
 299 573 299 573 320 603 c 1,209,-1
 317 603 l 2,205,206
505 581 m 0,210,211
 505 571 505 571 518 571 c 1,212,-1
 518 603 l 1,213,214
 505 595 505 595 505 581 c 0,210,211
258 597 m 1,215,-1
 264 584 l 1,216,217
 313 619 313 619 313 621 c 1,218,-1
 302 621 l 2,219,220
 294 621 294 621 276 610.5 c 128,-1,221
 258 600 258 600 258 597 c 1,215,-1
479 608 m 1,222,223
 473 598 473 598 473 587 c 1,224,225
 482 587 482 587 490.5 593 c 128,-1,226
 499 599 499 599 499 608 c 128,-1,227
 499 617 499 617 492.5 622.5 c 128,-1,228
 486 628 486 628 477 628 c 0,229,230
 474 628 474 628 470.5 620.5 c 128,-1,231
 467 613 467 613 467 608 c 1,232,-1
 479 608 l 1,222,223
363 616 m 0,233,234
 354 616 354 616 344 597 c 1,235,-1
 347 596.5 l 2,236,237
 350 596 350 596 351 596 c 0,238,239
 362 596 362 596 370 615 c 1,240,-1
 367 615.5 l 2,241,242
 364 616 364 616 363 616 c 0,233,234
459 622 m 1,243,244
 450 622 450 622 442.5 610.5 c 128,-1,245
 435 599 435 599 435 591 c 1,246,247
 446 591 446 591 453 600 c 128,-1,248
 460 609 460 609 462 621 c 1,249,-1
 459 622 l 1,243,244
412 627 m 1,250,-1
 388 603 l 1,251,252
 393 602 393 602 394 602 c 0,253,254
 402 602 402 602 407 610 c 128,-1,255
 412 618 412 618 412 627 c 1,250,-1
325 627 m 1,256,257
 325 619 325 619 339 608 c 1,258,-1
 357 627 l 1,259,-1
 325 627 l 1,256,257
447 629 m 1,260,261
 441 629 441 629 435.5 624.5 c 128,-1,262
 430 620 430 620 427 616.5 c 128,-1,263
 424 613 424 613 424 614 c 1,264,265
 447 614 447 614 447 629 c 1,260,261
382 627 m 1,266,-1
 382 620 l 1,267,268
 390 620 390 620 394 627 c 1,269,-1
 382 627 l 1,266,-1
EndSplineSet
EndChar

StartChar: Ccedilla
Encoding: 199 199 9
Width: 567
Flags: MW
HStem: -161 178<228.5 387.5> -27 93<283 434> -15 32<356 373> -14 21G<320 324> 34 32<385.5 406.5> 541 46<473 538.5> 572 87<378.5 404 267 426.5> 621 38<296 303 302 313>
VStem: 23 37<317.5 336 317.5 376.5> 111 23<267 270.5>
LayerCount: 2
Fore
SplineSet
23 275 m 0,0,1
 23 432 23 432 121 545.5 c 128,-1,2
 219 659 219 659 372 659 c 0,3,4
 398 659 398 659 408 658.5 c 128,-1,5
 418 658 418 658 445 656 c 128,-1,6
 472 654 472 654 485 648.5 c 128,-1,7
 498 643 498 643 515.5 633 c 128,-1,8
 533 623 533 623 540.5 606 c 128,-1,9
 548 589 548 589 548 566 c 0,10,11
 548 559 548 559 544 550 c 128,-1,12
 540 541 540 541 533 541 c 0,13,14
 516 541 516 541 472 556.5 c 128,-1,15
 428 572 428 572 403 572 c 0,16,17
 346 572 346 572 264 541 c 0,18,19
 134 493 134 493 134 269 c 0,20,21
 134 267 134 267 134.5 256.5 c 128,-1,22
 135 246 135 246 135 244 c 1,23,24
 141 242 141 242 144.5 228 c 128,-1,25
 148 214 148 214 149.5 197.5 c 128,-1,26
 151 181 151 181 153 177 c 0,27,28
 201 66 201 66 410 66 c 0,29,30
 437 66 437 66 479.5 84.5 c 128,-1,31
 522 103 522 103 530 103 c 0,32,33
 548 103 548 103 548 79 c 0,34,35
 548 50 548 50 542.5 26.5 c 128,-1,36
 537 3 537 3 529 3 c 0,37,38
 525 3 525 3 518 3.5 c 2,39,-1
 511 4 l 1,40,41
 405 -15 405 -15 344 -15 c 0,42,43
 340 -15 340 -15 332 -14.5 c 128,-1,44
 324 -14 324 -14 320 -14 c 1,45,46
 317 -19 317 -19 304.5 -23 c 128,-1,47
 292 -27 292 -27 283 -27 c 0,48,49
 177 -19 177 -19 100 74 c 128,-1,50
 23 167 23 167 23 275 c 0,0,1
258 41 m 1,51,52
 257 29 257 29 297.5 23 c 128,-1,53
 338 17 338 17 363 17 c 0,54,55
 403 17 403 17 448.5 23.5 c 128,-1,56
 494 30 494 30 511 41 c 1,57,-1
 511 60 l 1,58,59
 428 34 428 34 388 34 c 0,60,61
 376 34 376 34 331 41 c 0,62,63
 317 44 317 44 237.5 67.5 c 128,-1,64
 158 91 158 91 153 91 c 1,65,-1
 165 102 l 1,66,67
 162 109 162 109 158 109 c 0,68,69
 156 109 156 109 152 108 c 128,-1,70
 148 107 148 107 146 107 c 1,71,72
 146 119 146 119 145.5 123.5 c 128,-1,73
 145 128 145 128 139.5 134 c 128,-1,74
 134 140 134 140 122 140 c 1,75,76
 131 145 131 145 135 158 c 1,77,78
 118 158 118 158 118 180 c 1,79,-1
 98 180 l 1,80,81
 102 183 102 183 108.5 185.5 c 128,-1,82
 115 188 115 188 118.5 190.5 c 128,-1,83
 122 193 122 193 122 196 c 0,84,85
 122 208 122 208 116 220 c 1,86,87
 106 218 106 218 92.5 206.5 c 128,-1,88
 79 195 79 195 79 186 c 0,89,90
 79 183 79 183 85.5 164 c 128,-1,91
 92 145 92 145 93 145 c 0,92,93
 100 145 100 145 111 153 c 1,94,95
 104 148 104 148 104 140 c 0,96,97
 104 125 104 125 108.5 112.5 c 128,-1,98
 113 100 113 100 122.5 90 c 128,-1,99
 132 80 132 80 140.5 73.5 c 128,-1,100
 149 67 149 67 165 60 c 128,-1,101
 181 53 181 53 189.5 50 c 128,-1,102
 198 47 198 47 216 41.5 c 128,-1,103
 234 36 234 36 239 34 c 1,104,-1
 240 34 l 2,105,106
 242 34 242 34 258 41 c 1,51,52
61 226 m 0,107,108
 61 220 61 220 63.5 210.5 c 128,-1,109
 66 201 66 201 67 201 c 2,110,-1
 79 201 l 1,111,-1
 111 232 l 1,112,-1
 111 239 l 1,113,114
 61 239 61 239 61 226 c 0,107,108
101 276 m 0,115,116
 92 276 92 276 80 265.5 c 128,-1,117
 68 255 68 255 67 244 c 1,118,119
 82 244 82 244 89 245 c 128,-1,120
 96 246 96 246 103.5 251.5 c 128,-1,121
 111 257 111 257 111 269 c 0,122,123
 111 271 111 271 106.5 273.5 c 128,-1,124
 102 276 102 276 101 276 c 0,115,116
52 293 m 1,125,-1
 52 287 l 2,126,127
 52 262 52 262 65 262 c 0,128,129
 77 262 77 262 104 293 c 1,130,-1
 52 293 l 1,125,-1
113 358 m 1,131,132
 85 358 85 358 72.5 350.5 c 128,-1,133
 60 343 60 343 60 318 c 1,134,-1
 60.5 313 l 2,135,136
 61 308 61 308 61 307 c 1,137,138
 113 339 113 339 113 358 c 1,131,132
111 332 m 1,139,140
 84 321 84 321 72 307 c 1,141,142
 74 307 74 307 80 306.5 c 128,-1,143
 86 306 86 306 89 306 c 0,144,145
 112 306 112 306 112 322 c 0,146,147
 112 330 112 330 111 332 c 1,139,140
111 399 m 0,148,149
 97 399 97 399 72 368 c 1,150,151
 73 368 73 368 76.0779191081 367.983380306 c 0,152,153
 89 368 89 368 96 369 c 128,-1,154
 103 370 103 370 109.5 375.5 c 128,-1,155
 116 381 116 381 116 393 c 0,156,157
 116 394 116 394 114 396.5 c 128,-1,158
 112 399 112 399 111 399 c 0,148,149
111 417 m 1,159,-1
 79 417 l 2,160,161
 72 417 72 417 72 395 c 2,162,-1
 72 387 l 1,163,-1
 111 411 l 1,164,-1
 111 417 l 1,159,-1
135 460 m 1,165,166
 123 457 123 457 104 436 c 1,167,168
 106 434 106 434 113 434 c 0,169,170
 123 434 123 434 129.5 440.5 c 128,-1,171
 136 447 136 447 136 457 c 0,172,173
 136 458 136 458 135.5 458.5 c 2,174,-1
 135 460 l 1,165,166
132 481 m 1,175,176
 121 481 121 481 109 473.5 c 128,-1,177
 97 466 97 466 97 457 c 0,178,179
 97.2592592593 455.666666667 97.2592592593 455.666666667 98 454 c 1,180,181
 99 455 99 455 105 457.5 c 128,-1,182
 111 460 111 460 114.5 462 c 128,-1,183
 118 464 118 464 122.5 467 c 128,-1,184
 127 470 127 470 129.5 473.5 c 128,-1,185
 132 477 132 477 132 481 c 1,175,176
116 498 m 1,186,-1
 116 484 l 1,187,188
 129 493 129 493 144.5 498.5 c 128,-1,189
 160 504 160 504 165 507 c 128,-1,190
 170 510 170 510 174 522 c 128,-1,191
 178 534 178 534 178 559 c 1,192,-1
 116 498 l 1,186,-1
223 586 m 1,193,194
 211 586 211 586 203 578 c 128,-1,195
 195 570 195 570 195 557 c 1,196,197
 205 557 205 557 214 566.5 c 128,-1,198
 223 576 223 576 223 586 c 1,193,194
239 584 m 1,199,-1
 222 559 l 1,200,201
 240 577 240 577 240 581 c 0,202,203
 240 582 240 582 239.5 582.5 c 2,204,-1
 239 584 l 1,199,-1
317 603 m 2,205,206
 303 603 303 603 277 572 c 1,207,208
 299 573 299 573 320 603 c 1,209,-1
 317 603 l 2,205,206
505 581 m 0,210,211
 505 571 505 571 518 571 c 1,212,-1
 518 603 l 1,213,214
 505 595 505 595 505 581 c 0,210,211
258 597 m 1,215,-1
 264 584 l 1,216,217
 313 619 313 619 313 621 c 1,218,-1
 302 621 l 2,219,220
 294 621 294 621 276 610.5 c 128,-1,221
 258 600 258 600 258 597 c 1,215,-1
479 608 m 1,222,223
 473 598 473 598 473 587 c 1,224,225
 482 587 482 587 490.5 593 c 128,-1,226
 499 599 499 599 499 608 c 128,-1,227
 499 617 499 617 492.5 622.5 c 128,-1,228
 486 628 486 628 477 628 c 0,229,230
 474 628 474 628 470.5 620.5 c 128,-1,231
 467 613 467 613 467 608 c 1,232,-1
 479 608 l 1,222,223
363 616 m 0,233,234
 354 616 354 616 344 597 c 1,235,-1
 347 596.5 l 2,236,237
 350 596 350 596 351 596 c 0,238,239
 362 596 362 596 370 615 c 1,240,-1
 367 615.5 l 2,241,242
 364 616 364 616 363 616 c 0,233,234
459 622 m 1,243,244
 450 622 450 622 442.5 610.5 c 128,-1,245
 435 599 435 599 435 591 c 1,246,247
 446 591 446 591 453 600 c 128,-1,248
 460 609 460 609 462 621 c 1,249,-1
 459 622 l 1,243,244
412 627 m 1,250,-1
 388 603 l 1,251,252
 393 602 393 602 394 602 c 0,253,254
 402 602 402 602 407 610 c 128,-1,255
 412 618 412 618 412 627 c 1,250,-1
325 627 m 1,256,257
 325 619 325 619 339 608 c 1,258,-1
 357 627 l 1,259,-1
 325 627 l 1,256,257
447 629 m 1,260,261
 441 629 441 629 435.5 624.5 c 128,-1,262
 430 620 430 620 427 616.5 c 128,-1,263
 424 613 424 613 424 614 c 1,264,265
 447 614 447 614 447 629 c 1,260,261
382 627 m 1,266,-1
 382 620 l 1,267,268
 390 620 390 620 394 627 c 1,269,-1
 382 627 l 1,266,-1
212 -137 m 0,270,271
 212 -129 212 -129 214 -129 c 1,272,-1
 263 -45 l 2,273,274
 264 -44 264 -44 279.5 -42 c 128,-1,275
 295 -40 295 -40 299 -40 c 0,276,277
 319 -40 319 -40 322 -50 c 1,278,279
 321 -50 321 -50 311 -78.5 c 128,-1,280
 301 -107 301 -107 283 -134 c 128,-1,281
 265 -161 265 -161 242 -161 c 0,282,283
 223 -161 223 -161 217.5 -155 c 128,-1,284
 212 -149 212 -149 212 -137 c 0,270,271
244 -129 m 1,285,-1
 244 -135 l 1,286,287
 248 -135 248 -135 256.5 -122.5 c 128,-1,288
 265 -110 265 -110 277 -90 c 128,-1,289
 289 -70 289 -70 293 -65 c 1,290,291
 293 -49 293 -49 279 -49 c 0,292,293
 263 -49 263 -49 263 -54 c 0,294,295
 263 -57 263 -57 265.5 -65 c 128,-1,296
 268 -73 268 -73 268 -79 c 1,297,-1
 244 -129 l 1,285,-1
283 -119 m 1,298,299
 282 -118 282 -118 281 -118 c 0,300,301
 278 -118 278 -118 278 -123 c 0,302,303
 278 -124 278 -124 280 -124 c 0,304,305
 283 -124 283 -124 283 -119 c 1,298,299
279 -69 m 0,306,307
 282 -69 282 -69 282 -74 c 128,-1,308
 282 -79 282 -79 279 -79 c 0,309,310
 274 -79 274 -79 274 -74 c 128,-1,311
 274 -69 274 -69 279 -69 c 0,306,307
EndSplineSet
EndChar

StartChar: D
Encoding: 68 68 10
Width: 665
Flags: MW
HStem: -10 21G<75 87.5> 3 38 66 22 615 39<318 382>
VStem: 71 25 126 24<196.5 302> 552 24 552 37<319 388> 629 23<330.5 350>
LayerCount: 2
Fore
SplineSet
64 3 m 0,0,1
 64 11 64 11 63.5 55 c 128,-1,2
 63 99 63 99 63 106 c 0,3,4
 63 147 63 147 67 231 c 128,-1,5
 71 315 71 315 71 358 c 0,6,7
 71 370 71 370 67 394 c 128,-1,8
 63 418 63 418 63 431 c 0,9,10
 63 456 63 456 70 503.5 c 128,-1,11
 77 551 77 551 77 574 c 0,12,13
 77 583 77 583 74 600.5 c 128,-1,14
 71 618 71 618 71 627 c 0,15,16
 71 654 71 654 318 654 c 2,17,-1
 373 654 l 1,18,19
 424 648 424 648 492 610 c 128,-1,20
 560 572 560 572 576 541 c 1,21,22
 604 522 604 522 628 453 c 128,-1,23
 652 384 652 384 652 340 c 0,24,25
 652 234 652 234 595 139 c 0,26,27
 593 137 593 137 590 128 c 128,-1,28
 587 119 587 119 582.5 113.5 c 128,-1,29
 578 108 578 108 571 108 c 1,30,-1
 576 102 l 1,31,-1
 564 95 l 1,32,-1
 571 91 l 1,33,34
 555 68 555 68 513 51.5 c 128,-1,35
 471 35 471 35 436 28 c 1,36,37
 396 24 396 24 121 3 c 0,38,39
 110 2 110 2 98.5 -4 c 128,-1,40
 87 -10 87 -10 79 -10 c 0,41,42
 64 -10 64 -10 64 3 c 0,0,1
89 102 m 0,43,44
 89 98 89 98 96 84 c 1,45,46
 96 71 96 71 101 41 c 1,47,48
 199 41 199 41 213 34 c 1,49,50
 213 41 213 41 219 47 c 1,51,52
 223 47 223 47 231 44 c 128,-1,53
 239 41 239 41 244 41 c 0,54,55
 270 41 270 41 321.5 50 c 128,-1,56
 373 59 373 59 399 59 c 2,57,-1
 436 59 l 1,58,59
 451 74 451 74 486 74 c 1,60,61
 486 80 486 80 471 84 c 1,62,63
 516 84 516 84 540 102 c 1,64,65
 539 103 539 103 533.5 106.5 c 128,-1,66
 528 110 528 110 518.5 113.5 c 128,-1,67
 509 117 509 117 500 117 c 0,68,69
 495 117 495 117 475.5 101 c 128,-1,70
 456 85 456 85 454 84 c 0,71,72
 439 78 439 78 415 74 c 128,-1,73
 391 70 391 70 377.5 69 c 128,-1,74
 364 68 364 68 330 67 c 128,-1,75
 296 66 296 66 292 66 c 0,76,77
 236 59 236 59 200 59 c 0,78,79
 125 59 125 59 121 77 c 0,80,81
 121 78 121 78 120.5 87.5 c 128,-1,82
 120 97 120 97 120 99 c 0,83,84
 120 113 120 113 122.5 124 c 128,-1,85
 125 135 125 135 125 139 c 0,86,87
 125 158 125 158 114 164 c 1,88,89
 119 166 119 166 122 183 c 128,-1,90
 125 200 125 200 125 207 c 0,91,92
 125 218 125 218 122.5 236.5 c 128,-1,93
 120 255 120 255 120 264 c 0,94,95
 120 274 120 274 123 281 c 128,-1,96
 126 288 126 288 126 293 c 0,97,98
 126 317 126 317 97 317 c 1,99,100
 97 235 97 235 89 207 c 1,101,-1
 96 201 l 1,102,-1
 96 158 l 1,103,104
 94 158 94 158 91.5 155.5 c 128,-1,105
 89 153 89 153 89 152 c 0,106,107
 89 150 89 150 92.5 139 c 128,-1,108
 96 128 96 128 96 127 c 128,-1,109
 96 126 96 126 92.5 115 c 128,-1,110
 89 104 89 104 89 102 c 0,43,44
150 221 m 0,111,112
 150 98 150 98 157 95 c 2,113,-1
 169 91 l 1,114,115
 187 88 187 88 228 88 c 0,116,117
 290 88 290 88 330.5 91.5 c 128,-1,118
 371 95 371 95 422 114.5 c 128,-1,119
 473 134 473 134 503 170 c 1,120,-1
 505 169 l 1,121,122
 520 169 520 169 536 236 c 128,-1,123
 552 303 552 303 552 334 c 0,124,125
 552 360 552 360 532.5 419.5 c 128,-1,126
 513 479 513 479 497 484 c 0,127,128
 496 484 496 484 486 485.5 c 128,-1,129
 476 487 476 487 472.5 490 c 128,-1,130
 469 493 469 493 469 500 c 0,131,132
 469 506 469 506 471 510 c 1,133,134
 461 515 461 515 445 525 c 128,-1,135
 429 535 429 535 417 543.5 c 128,-1,136
 405 552 405 552 404 553 c 0,137,138
 313 584 313 584 268 584 c 0,139,140
 245 584 245 584 206 578 c 128,-1,141
 167 572 167 572 164 565 c 2,142,-1
 157 553 l 1,143,144
 157 498 157 498 153.5 387.5 c 128,-1,145
 150 277 150 277 150 221 c 0,111,112
503 127 m 1,146,147
 509 120 509 120 524 120 c 0,148,149
 546 120 546 120 564.5 134 c 128,-1,150
 583 148 583 148 583 170 c 0,151,152
 583 183 583 183 571 183 c 1,153,154
 587 183 587 183 597 193 c 128,-1,155
 607 203 607 203 607 219 c 0,156,157
 607 221 607 221 605.5 223 c 128,-1,158
 604 225 604 225 601 226.5 c 128,-1,159
 598 228 598 228 595.5 228.5 c 128,-1,160
 593 229 593 229 589 230 c 128,-1,161
 585 231 585 231 583 232 c 1,162,163
 586 233 586 233 594 238.5 c 128,-1,164
 602 244 602 244 608 244 c 0,165,166
 612 244 612 244 614 243 c 1,167,168
 620 271 620 271 620 283 c 1,169,170
 576 283 576 283 576 269 c 1,171,-1
 583 258 l 1,172,173
 582 255 582 255 577.5 249.5 c 128,-1,174
 573 244 573 244 571 243 c 1,175,-1
 576 238 l 1,176,177
 567 238 567 238 563.5 228.5 c 128,-1,178
 560 219 560 219 559.5 205.5 c 128,-1,179
 559 192 559 192 558 189 c 0,180,181
 558 187 558 187 551.5 180.5 c 128,-1,182
 545 174 545 174 545 173 c 0,183,184
 545 170 545 170 546 170 c 2,185,-1
 503 127 l 1,146,147
558 152 m 1,186,187
 555 149 555 149 546 149 c 0,188,189
 533 149 533 149 533 152 c 0,190,191
 533 154 533 154 545 154 c 0,192,193
 558 154 558 154 558 152 c 1,186,187
629 350 m 1,194,195
 608 350 608 350 590.5 328.5 c 128,-1,196
 573 307 573 307 573 286 c 1,197,198
 629 286 629 286 629 350 c 1,194,195
93 454 m 1,199,200
 93 431 93 431 97.5 388.5 c 128,-1,201
 102 346 102 346 102 325 c 1,202,-1
 125 325 l 1,203,-1
 125 398 l 2,204,205
 125 406 125 406 117 412 c 128,-1,206
 109 418 109 418 101 420 c 1,207,-1
 134 420 l 1,208,209
 134 423 134 423 131 438.5 c 128,-1,210
 128 454 128 454 125 454 c 2,211,-1
 93 454 l 1,199,200
576 365 m 1,212,213
 576 348 576 348 591 348 c 0,214,215
 615 348 615 348 615 359 c 0,216,217
 615 361 615 361 595 371 c 1,218,-1
 627 371 l 1,219,-1
 627 380 l 1,220,-1
 602 393 l 1,221,222
 608 393 608 393 608 402 c 0,223,224
 608 406 608 406 595 410 c 1,225,226
 608 418 608 418 608 430 c 128,-1,227
 608 442 608 442 595 442 c 0,228,229
 584 442 584 442 576 435 c 1,230,231
 582 439 582 439 589 454 c 1,232,233
 589 467 589 467 584 480.5 c 128,-1,234
 579 494 579 494 567.5 508.5 c 128,-1,235
 556 523 556 523 549.5 530.5 c 128,-1,236
 543 538 543 538 526.5 554 c 128,-1,237
 510 570 510 570 508 572 c 1,238,-1
 503 572 l 1,239,240
 501 573 501 573 491 575.5 c 128,-1,241
 481 578 481 578 472 580.5 c 128,-1,242
 463 583 463 583 460 584 c 1,243,244
 460 593 460 593 440 597.5 c 128,-1,245
 420 602 420 602 410 602 c 1,246,247
 390 595 390 595 385 589 c 1,248,249
 403 578 403 578 430 578 c 1,250,251
 430 558 430 558 457 558 c 0,252,253
 470 558 470 558 471 565 c 1,254,-1
 471 546 l 1,255,-1
 503 546 l 1,256,-1
 490 534 l 1,257,258
 495 535 495 535 517 514 c 128,-1,259
 539 493 539 493 539 488 c 1,260,-1
 552 488 l 1,261,262
 551 485 551 485 549 482.5 c 128,-1,263
 547 480 547 480 544 477.5 c 128,-1,264
 541 475 541 475 540 473 c 1,265,266
 546 466 546 466 555 445.5 c 128,-1,267
 564 425 564 425 576 417 c 1,268,269
 563 417 563 417 563 406 c 0,270,271
 563 397 563 397 567 393 c 128,-1,272
 571 389 571 389 576 389.5 c 128,-1,273
 581 390 581 390 585 387 c 128,-1,274
 589 384 589 384 589 375 c 0,275,276
 589 374 589 374 582 370.5 c 128,-1,277
 575 367 575 367 575 366 c 128,-1,278
 575 365 575 365 576 365 c 1,212,213
96 522 m 0,279,280
 96 518 96 518 99 510 c 128,-1,281
 102 502 102 502 101 492 c 128,-1,282
 100 482 100 482 92 467 c 1,283,-1
 133 467 l 1,284,285
 133 475 133 475 126.5 489.5 c 128,-1,286
 120 504 120 504 120 513 c 0,287,288
 120 519 120 519 123 529 c 128,-1,289
 126 539 126 539 126 546 c 0,290,291
 126 565 126 565 121 572 c 1,292,293
 96 562 96 562 96 522 c 0,279,280
172 615 m 2,294,295
 169 615 169 615 160.5 615 c 128,-1,296
 152 615 152 615 148.5 615 c 128,-1,297
 145 615 145 615 138 614.5 c 128,-1,298
 131 614 131 614 127.5 613 c 128,-1,299
 124 612 124 612 118.5 610 c 128,-1,300
 113 608 113 608 110.5 605 c 128,-1,301
 108 602 108 602 105 598 c 128,-1,302
 102 594 102 594 101 588 c 128,-1,303
 100 582 100 582 100 575 c 1,304,305
 116 575 116 575 156 590.5 c 128,-1,306
 196 606 196 606 207 615 c 1,307,-1
 172 615 l 2,294,295
336 608 m 1,308,309
 345 597 345 597 371 597 c 0,310,311
 374 597 374 597 381.5 600.5 c 128,-1,312
 389 604 389 604 392 608 c 1,313,314
 389 615 389 615 379 615 c 0,315,316
 368 615 368 615 361 608 c 1,317,-1
 361 622 l 1,318,319
 358 622 358 622 348.5 617.5 c 128,-1,320
 339 613 339 613 336 608 c 1,308,309
262 621 m 1,321,322
 265 615 265 615 279 611.5 c 128,-1,323
 293 608 293 608 299 608 c 0,324,325
 306 608 306 608 342 626 c 1,326,-1
 336 626 l 2,327,328
 330 626 330 626 299 624 c 128,-1,329
 268 622 268 622 262 621 c 1,321,322
EndSplineSet
EndChar

StartChar: E
Encoding: 69 69 11
Width: 518
Flags: MW
HStem: -25 107<446 455.5 446 457.5> -24 21G<481 483> -9 33<113.5 139.5 131 139.5 174 175 218 219 298 300.5> 50 32<365 455.5 439 455.5 446 455.5 446 466> 283 43<106 124 173 174> 339 46 571 83 630 24 640 20G<383 397>
VStem: 63 31<490 500.5 490 654> 76 30 124 32<56 278 67 278 152.5 159 92 283>
LayerCount: 2
Fore
SplineSet
273 383 m 1,0,1
 281 375 281 375 283 375 c 0,2,3
 291 375 291 375 291 385 c 1,4,-1
 403 385 l 1,5,6
 411 374 411 374 415 364 c 1,7,-1
 427 370 l 1,8,9
 421 364 421 364 421 344 c 0,10,11
 421 307 421 307 422 302 c 1,12,-1
 409 291 l 1,13,14
 340 291 340 291 174 283 c 0,15,16
 173 283 173 283 169.5 283.5 c 128,-1,17
 166 284 166 284 164 284 c 0,18,19
 156 284 156 284 156 278 c 2,20,-1
 156 92 l 1,21,-1
 163 81 l 2,22,23
 164 79 164 79 200.5 76.5 c 128,-1,24
 237 74 237 74 264 74 c 0,25,26
 276 74 276 74 312.5 83 c 128,-1,27
 349 92 349 92 365 92 c 0,28,29
 409 92 409 92 415 86 c 1,30,-1
 422 81 l 1,31,32
 423 87 423 87 433 87 c 0,33,34
 434 87 434 87 438 86.5 c 128,-1,35
 442 86 442 86 446 86 c 1,36,-1
 435 81 l 1,37,-1
 437.5 81.5 l 2,38,39
 440 82 440 82 443 82 c 128,-1,40
 446 82 446 82 449 82 c 0,41,42
 465.620839953 82 465.620839953 82 468.849368319 76.3088219415 c 0,43,44
 469.424258643 75.2954180532 469.424258643 75.2954180532 470 74 c 0,45,46
 471 74 471 74 476.5 77.5 c 128,-1,47
 482 81 482 81 483 81 c 0,48,49
 497 72 497 72 497 49 c 0,50,51
 497 -9 497 -9 483 -24 c 1,52,53
 481 -24 481 -24 469 -24.5 c 128,-1,54
 457 -25 457 -25 456 -25 c 0,55,56
 411 -25 411 -25 378 -9 c 1,57,-1
 120 -9 l 2,58,59
 77 -9 77 -9 70 12 c 1,60,61
 70 42 70 42 73 103 c 128,-1,62
 76 164 76 164 76 194 c 0,63,64
 76 334 76 334 63 389 c 1,65,-1
 63 654 l 1,66,-1
 187 654 l 1,67,68
 206 647 206 647 243 647 c 0,69,70
 255 647 255 647 261 654 c 1,71,72
 291 654 291 654 339 657 c 128,-1,73
 387 660 387 660 391 660 c 0,74,75
 404 660 404 660 470 654 c 1,76,77
 474 652 474 652 478 641 c 1,78,79
 478 627 478 627 473.5 612 c 128,-1,80
 469 597 469 597 469 585 c 0,81,82
 469 584 469 584 469.5 580 c 128,-1,83
 470 576 470 576 470 574 c 1,84,-1
 446 568 l 1,85,86
 404 571 404 571 361 571 c 0,87,88
 250 571 250 571 163 549 c 1,89,90
 155 532 155 532 155 510 c 0,91,92
 155 500 155 500 159 479 c 128,-1,93
 163 458 163 458 163 447 c 1,94,95
 158 406 158 406 156 389 c 1,96,-1
 168 377 l 1,97,-1
 182 376 l 2,98,99
 196 375 196 375 200 375 c 0,100,101
 225 375 225 375 246.5 379 c 128,-1,102
 268 383 268 383 273 383 c 1,0,1
439 50 m 1,103,-1
 439 6 l 1,104,105
 466 6 466 6 466 50 c 1,106,-1
 439 50 l 1,103,-1
427 37 m 2,107,108
 422 37 422 37 409.5 32 c 128,-1,109
 397 27 397 27 397 24 c 2,110,-1
 397 14 l 1,111,112
 422 14 422 14 435 37 c 1,113,-1
 427 37 l 2,107,108
106 35 m 2,114,115
 106 31 106 31 113 24 c 1,116,117
 140 51 140 51 140 56 c 1,118,-1
 124 56 l 1,119,-1
 124 67 l 1,120,121
 120 65 120 65 106 37 c 1,122,-1
 106 35 l 2,114,115
163 43 m 1,123,124
 146 36 146 36 131 24 c 1,125,126
 143 24 143 24 148.5 27.5 c 128,-1,127
 154 31 154 31 163 43 c 1,123,124
190 31 m 2,128,129
 181 31 181 31 174 24 c 1,130,131
 175 24 175 24 177.5 23.5 c 128,-1,132
 180 23 180 23 181 23 c 0,133,134
 190 23 190 23 193 31 c 1,135,-1
 190 31 l 2,128,129
261 44 m 0,136,137
 231 44 231 44 218 24 c 1,138,139
 219 24 219 24 226.5 23.5 c 128,-1,140
 234 23 234 23 236 23 c 0,141,142
 267 23 267 23 273 43 c 1,143,-1
 267.5 43.5 l 2,144,145
 262 44 262 44 261 44 c 0,136,137
319 44 m 0,146,147
 313 44 313 44 298 24 c 1,148,149
 309 24 309 24 322 43 c 1,150,151
 320 44 320 44 319 44 c 0,146,147
365 50 m 1,152,-1
 341 31 l 1,153,154
 366 31 366 31 378 43 c 1,155,-1
 378 31 l 1,156,-1
 427 50 l 1,157,-1
 365 50 l 1,152,-1
354 56 m 2,158,159
 344 56 344 56 341 50 c 1,160,161
 357 50 357 50 360 56 c 1,162,-1
 354 56 l 2,158,159
106 92 m 1,163,-1
 106 73 l 1,164,165
 121 73 121 73 121 92 c 1,166,-1
 106 92 l 1,163,-1
117 173 m 1,167,168
 103 173 103 173 103 142 c 1,169,-1
 104 130 l 1,170,-1
 113 130 l 2,171,172
 115 130 115 130 119.5 140.5 c 128,-1,173
 124 151 124 151 124 156 c 0,174,175
 124 174 124 174 118 174 c 1,176,-1
 117 173 l 1,167,168
125 211 m 1,177,178
 110 211 110 211 110 182 c 1,179,180
 125 182 125 182 125 211 c 1,177,178
106 234 m 0,181,182
 106 229 106 229 113 222 c 1,183,184
 121 225 121 225 121 242 c 1,185,186
 106 242 106 242 106 234 c 0,181,182
124 283 m 1,187,188
 105 267 105 267 105 258 c 1,189,190
 117 258 117 258 121 261.5 c 128,-1,191
 125 265 125 265 125 276 c 1,192,-1
 124 283 l 1,187,188
127 310 m 1,193,194
 106 310 106 310 106 295 c 1,195,196
 127 295 127 295 127 310 c 1,193,194
174 326 m 1,197,-1
 174 315 l 1,198,199
 186 315 186 315 200 321.5 c 128,-1,200
 214 328 214 328 214 339 c 1,201,-1
 144 339 l 2,202,203
 137 339 137 339 137 326 c 1,204,-1
 174 326 l 1,197,-1
265 347 m 0,205,206
 247 348 247 348 231.5 336.5 c 128,-1,207
 216 325 216 325 216 309 c 1,208,209
 232 309 232 309 251.5 320.5 c 128,-1,210
 271 332 271 332 279 346 c 1,211,212
 278 346 278 346 272 346.5 c 128,-1,213
 266 347 266 347 265 347 c 0,205,206
298 346 m 1,214,-1
 267 315 l 1,215,-1
 298 315 l 2,216,217
 305 315 305 315 305 346 c 1,218,-1
 298 346 l 1,214,-1
372 352 m 1,219,220
 350 345 350 345 341 322 c 1,221,-1
 391 322 l 1,222,223
 380 335 380 335 372 352 c 1,219,220
99 353 m 0,224,225
 99 345 99 345 106 326 c 1,226,-1
 138 358 l 1,227,-1
 138 366 l 1,228,229
 99 366 99 366 99 353 c 0,224,225
138 402 m 1,230,231
 126 402 126 402 115.5 394.5 c 128,-1,232
 105 387 105 387 105 376 c 1,233,234
 138 376 138 376 138 402 c 1,230,231
113 444 m 0,235,236
 95 444 95 444 95 439 c 2,237,-1
 95 399 l 1,238,239
 105 399 105 399 119 412 c 128,-1,240
 133 425 133 425 133 437 c 0,241,242
 133 439 133 439 125.5 441.5 c 128,-1,243
 118 444 118 444 113 444 c 0,235,236
134 489 m 1,244,245
 117 489 117 489 100 457 c 1,246,247
 125 457 125 457 129.5 461.5 c 128,-1,248
 134 466 134 466 134 489 c 1,244,245
120 518 m 1,249,250
 116 513 116 513 105 507.5 c 128,-1,251
 94 502 94 502 94 491 c 0,252,253
 94 490 94 490 94.5 486 c 2,254,-1
 95 482 l 1,255,256
 112 496 112 496 118.5 506 c 128,-1,257
 125 516 125 516 125 534 c 0,258,259
 125 535 125 535 124.5 541.5 c 128,-1,260
 124 548 124 548 124 549 c 1,261,262
 121 546 121 546 113.5 540.5 c 128,-1,263
 106 535 106 535 100.5 531 c 128,-1,264
 95 527 95 527 95 525 c 0,265,266
 95 517 95 517 111 517 c 0,267,268
 113 517 113 517 116 517.5 c 128,-1,269
 119 518 119 518 120 518 c 1,249,250
120 568 m 2,270,271
 93 568 93 568 93 548 c 1,272,273
 112 548 112 548 124 568 c 1,274,-1
 120 568 l 2,270,271
120 605 m 1,275,-1
 106 580 l 1,276,-1
 113 580 l 2,277,278
 121 580 121 580 156.5 596 c 128,-1,279
 192 612 192 612 193 617 c 1,280,281
 177 624 177 624 143 624 c 0,282,283
 95 624 95 624 95 623 c 2,284,-1
 88 593 l 1,285,286
 98 593 98 593 120 605 c 1,275,-1
218 605 m 1,287,288
 214 604 214 604 210.5 600 c 128,-1,289
 207 596 207 596 206 592.5 c 2,290,-1
 205 589 l 2,291,292
 205 587 205 587 208 587 c 0,293,294
 219 587 219 587 219 598 c 1,295,-1
 218 605 l 1,287,288
365 630 m 1,296,297
 364 627 364 627 364 623 c 0,298,299
 364 610 364 610 380 610 c 0,300,301
 410 610 410 610 410 630 c 1,302,-1
 365 630 l 1,296,297
255 623 m 1,303,-1
 248 617 l 1,304,-1
 255 617 l 1,305,-1
 255 623 l 1,303,-1
EndSplineSet
EndChar

StartChar: Eacute
Encoding: 201 201 12
Width: 518
Flags: MW
HStem: -25 107<446 455.5 446 457.5> -24 21G<481 483> -9 33<113.5 139.5 131 139.5 174 175 218 219 298 300.5> 50 32<365 455.5 439 455.5 446 455.5 446 466> 283 43<106 124 173 174> 339 46 571 83 630 24 832 20G<312 318>
VStem: 63 31<490 500.5 490 654> 76 30 124 32<56 278 67 278 152.5 159 92 283>
LayerCount: 2
Fore
SplineSet
273 383 m 1,0,1
 281 375 281 375 283 375 c 0,2,3
 291 375 291 375 291 385 c 1,4,-1
 403 385 l 1,5,6
 411 374 411 374 415 364 c 1,7,-1
 427 370 l 1,8,9
 421 364 421 364 421 344 c 0,10,11
 421 307 421 307 422 302 c 1,12,-1
 409 291 l 1,13,14
 340 291 340 291 174 283 c 0,15,16
 173 283 173 283 169.5 283.5 c 128,-1,17
 166 284 166 284 164 284 c 0,18,19
 156 284 156 284 156 278 c 2,20,-1
 156 92 l 1,21,-1
 163 81 l 2,22,23
 164 79 164 79 200.5 76.5 c 128,-1,24
 237 74 237 74 264 74 c 0,25,26
 276 74 276 74 312.5 83 c 128,-1,27
 349 92 349 92 365 92 c 0,28,29
 409 92 409 92 415 86 c 1,30,-1
 422 81 l 1,31,32
 423 87 423 87 433 87 c 0,33,34
 434 87 434 87 438 86.5 c 128,-1,35
 442 86 442 86 446 86 c 1,36,-1
 435 81 l 1,37,-1
 437.5 81.5 l 2,38,39
 440 82 440 82 443 82 c 128,-1,40
 446 82 446 82 449 82 c 0,41,42
 465.620839953 82 465.620839953 82 468.849368319 76.3088219415 c 0,43,44
 469.424258643 75.2954180532 469.424258643 75.2954180532 470 74 c 0,45,46
 471 74 471 74 476.5 77.5 c 128,-1,47
 482 81 482 81 483 81 c 0,48,49
 497 72 497 72 497 49 c 0,50,51
 497 -9 497 -9 483 -24 c 1,52,53
 481 -24 481 -24 469 -24.5 c 128,-1,54
 457 -25 457 -25 456 -25 c 0,55,56
 411 -25 411 -25 378 -9 c 1,57,-1
 120 -9 l 2,58,59
 77 -9 77 -9 70 12 c 1,60,61
 70 42 70 42 73 103 c 128,-1,62
 76 164 76 164 76 194 c 0,63,64
 76 334 76 334 63 389 c 1,65,-1
 63 654 l 1,66,-1
 187 654 l 1,67,68
 206 647 206 647 243 647 c 0,69,70
 255 647 255 647 261 654 c 1,71,72
 291 654 291 654 339 657 c 128,-1,73
 387 660 387 660 391 660 c 0,74,75
 404 660 404 660 470 654 c 1,76,77
 474 652 474 652 478 641 c 1,78,79
 478 627 478 627 473.5 612 c 128,-1,80
 469 597 469 597 469 585 c 0,81,82
 469 584 469 584 469.5 580 c 128,-1,83
 470 576 470 576 470 574 c 1,84,-1
 446 568 l 1,85,86
 404 571 404 571 361 571 c 0,87,88
 250 571 250 571 163 549 c 1,89,90
 155 532 155 532 155 510 c 0,91,92
 155 500 155 500 159 479 c 128,-1,93
 163 458 163 458 163 447 c 1,94,95
 158 406 158 406 156 389 c 1,96,-1
 168 377 l 1,97,-1
 182 376 l 2,98,99
 196 375 196 375 200 375 c 0,100,101
 225 375 225 375 246.5 379 c 128,-1,102
 268 383 268 383 273 383 c 1,0,1
439 50 m 1,103,-1
 439 6 l 1,104,105
 466 6 466 6 466 50 c 1,106,-1
 439 50 l 1,103,-1
427 37 m 2,107,108
 422 37 422 37 409.5 32 c 128,-1,109
 397 27 397 27 397 24 c 2,110,-1
 397 14 l 1,111,112
 422 14 422 14 435 37 c 1,113,-1
 427 37 l 2,107,108
106 35 m 2,114,115
 106 31 106 31 113 24 c 1,116,117
 140 51 140 51 140 56 c 1,118,-1
 124 56 l 1,119,-1
 124 67 l 1,120,121
 120 65 120 65 106 37 c 1,122,-1
 106 35 l 2,114,115
163 43 m 1,123,124
 146 36 146 36 131 24 c 1,125,126
 143 24 143 24 148.5 27.5 c 128,-1,127
 154 31 154 31 163 43 c 1,123,124
190 31 m 2,128,129
 181 31 181 31 174 24 c 1,130,131
 175 24 175 24 177.5 23.5 c 128,-1,132
 180 23 180 23 181 23 c 0,133,134
 190 23 190 23 193 31 c 1,135,-1
 190 31 l 2,128,129
261 44 m 0,136,137
 231 44 231 44 218 24 c 1,138,139
 219 24 219 24 226.5 23.5 c 128,-1,140
 234 23 234 23 236 23 c 0,141,142
 267 23 267 23 273 43 c 1,143,-1
 267.5 43.5 l 2,144,145
 262 44 262 44 261 44 c 0,136,137
319 44 m 0,146,147
 313 44 313 44 298 24 c 1,148,149
 309 24 309 24 322 43 c 1,150,151
 320 44 320 44 319 44 c 0,146,147
365 50 m 1,152,-1
 341 31 l 1,153,154
 366 31 366 31 378 43 c 1,155,-1
 378 31 l 1,156,-1
 427 50 l 1,157,-1
 365 50 l 1,152,-1
354 56 m 2,158,159
 344 56 344 56 341 50 c 1,160,161
 357 50 357 50 360 56 c 1,162,-1
 354 56 l 2,158,159
106 92 m 1,163,-1
 106 73 l 1,164,165
 121 73 121 73 121 92 c 1,166,-1
 106 92 l 1,163,-1
117 173 m 1,167,168
 103 173 103 173 103 142 c 1,169,-1
 104 130 l 1,170,-1
 113 130 l 2,171,172
 115 130 115 130 119.5 140.5 c 128,-1,173
 124 151 124 151 124 156 c 0,174,175
 124 174 124 174 118 174 c 1,176,-1
 117 173 l 1,167,168
125 211 m 1,177,178
 110 211 110 211 110 182 c 1,179,180
 125 182 125 182 125 211 c 1,177,178
106 234 m 0,181,182
 106 229 106 229 113 222 c 1,183,184
 121 225 121 225 121 242 c 1,185,186
 106 242 106 242 106 234 c 0,181,182
124 283 m 1,187,188
 105 267 105 267 105 258 c 1,189,190
 117 258 117 258 121 261.5 c 128,-1,191
 125 265 125 265 125 276 c 1,192,-1
 124 283 l 1,187,188
127 310 m 1,193,194
 106 310 106 310 106 295 c 1,195,196
 127 295 127 295 127 310 c 1,193,194
174 326 m 1,197,-1
 174 315 l 1,198,199
 186 315 186 315 200 321.5 c 128,-1,200
 214 328 214 328 214 339 c 1,201,-1
 144 339 l 2,202,203
 137 339 137 339 137 326 c 1,204,-1
 174 326 l 1,197,-1
265 347 m 0,205,206
 247 348 247 348 231.5 336.5 c 128,-1,207
 216 325 216 325 216 309 c 1,208,209
 232 309 232 309 251.5 320.5 c 128,-1,210
 271 332 271 332 279 346 c 1,211,212
 278 346 278 346 272 346.5 c 128,-1,213
 266 347 266 347 265 347 c 0,205,206
298 346 m 1,214,-1
 267 315 l 1,215,-1
 298 315 l 2,216,217
 305 315 305 315 305 346 c 1,218,-1
 298 346 l 1,214,-1
372 352 m 1,219,220
 350 345 350 345 341 322 c 1,221,-1
 391 322 l 1,222,223
 380 335 380 335 372 352 c 1,219,220
99 353 m 0,224,225
 99 345 99 345 106 326 c 1,226,-1
 138 358 l 1,227,-1
 138 366 l 1,228,229
 99 366 99 366 99 353 c 0,224,225
138 402 m 1,230,231
 126 402 126 402 115.5 394.5 c 128,-1,232
 105 387 105 387 105 376 c 1,233,234
 138 376 138 376 138 402 c 1,230,231
113 444 m 0,235,236
 95 444 95 444 95 439 c 2,237,-1
 95 399 l 1,238,239
 105 399 105 399 119 412 c 128,-1,240
 133 425 133 425 133 437 c 0,241,242
 133 439 133 439 125.5 441.5 c 128,-1,243
 118 444 118 444 113 444 c 0,235,236
134 489 m 1,244,245
 117 489 117 489 100 457 c 1,246,247
 125 457 125 457 129.5 461.5 c 128,-1,248
 134 466 134 466 134 489 c 1,244,245
120 518 m 1,249,250
 116 513 116 513 105 507.5 c 128,-1,251
 94 502 94 502 94 491 c 0,252,253
 94 490 94 490 94.5 486 c 2,254,-1
 95 482 l 1,255,256
 112 496 112 496 118.5 506 c 128,-1,257
 125 516 125 516 125 534 c 0,258,259
 125 535 125 535 124.5 541.5 c 128,-1,260
 124 548 124 548 124 549 c 1,261,262
 121 546 121 546 113.5 540.5 c 128,-1,263
 106 535 106 535 100.5 531 c 128,-1,264
 95 527 95 527 95 525 c 0,265,266
 95 517 95 517 111 517 c 0,267,268
 113 517 113 517 116 517.5 c 128,-1,269
 119 518 119 518 120 518 c 1,249,250
120 568 m 2,270,271
 93 568 93 568 93 548 c 1,272,273
 112 548 112 548 124 568 c 1,274,-1
 120 568 l 2,270,271
120 605 m 1,275,-1
 106 580 l 1,276,-1
 113 580 l 2,277,278
 121 580 121 580 156.5 596 c 128,-1,279
 192 612 192 612 193 617 c 1,280,281
 177 624 177 624 143 624 c 0,282,283
 95 624 95 624 95 623 c 2,284,-1
 88 593 l 1,285,286
 98 593 98 593 120 605 c 1,275,-1
218 605 m 1,287,288
 214 604 214 604 210.5 600 c 128,-1,289
 207 596 207 596 206 592.5 c 2,290,-1
 205 589 l 2,291,292
 205 587 205 587 208 587 c 0,293,294
 219 587 219 587 219 598 c 1,295,-1
 218 605 l 1,287,288
365 630 m 1,296,297
 364 627 364 627 364 623 c 0,298,299
 364 610 364 610 380 610 c 0,300,301
 410 610 410 610 410 630 c 1,302,-1
 365 630 l 1,296,297
255 623 m 1,303,-1
 248 617 l 1,304,-1
 255 617 l 1,305,-1
 255 623 l 1,303,-1
297 814 m 1,306,307
 282 814 282 814 279 807 c 1,308,309
 294 807 294 807 297 814 c 1,306,307
273 802 m 1,310,311
 255 802 255 802 247 795 c 1,312,313
 270 795 270 795 273 802 c 1,310,311
235 789 m 1,314,315
 236 786 236 786 239 786 c 128,-1,316
 242 786 242 786 242 789 c 0,317,318
 242 793 242 793 239 793 c 0,319,320
 235 793 235 793 235 789 c 1,314,315
323 823 m 0,321,322
 323 802 323 802 316.5 793.5 c 128,-1,323
 310 785 310 785 291 777 c 0,324,325
 265 767 265 767 161 721 c 1,326,-1
 140 721 l 1,327,328
 140 766 140 766 149 770 c 2,329,-1
 309 851 l 1,330,-1
 312 852 l 1,331,332
 323 852 323 852 323 823 c 0,321,322
EndSplineSet
EndChar

StartChar: Ecircumflex
Encoding: 202 202 13
Width: 518
Flags: MW
HStem: -25 107<446 455.5 446 457.5> -24 21G<481 483> -9 33<113.5 139.5 131 139.5 174 175 218 219 298 300.5> 50 32<365 455.5 439 455.5 446 455.5 446 466> 283 43<106 124 173 174> 339 46 571 83 630 24 742 118<186 339> 781 79<186 224.5>
VStem: 63 31<490 500.5 490 654> 76 30
LayerCount: 2
Fore
SplineSet
273 383 m 1,0,1
 281 375 281 375 283 375 c 0,2,3
 291 375 291 375 291 385 c 1,4,-1
 403 385 l 1,5,6
 411 374 411 374 415 364 c 1,7,-1
 427 370 l 1,8,9
 421 364 421 364 421 344 c 0,10,11
 421 307 421 307 422 302 c 1,12,-1
 409 291 l 1,13,14
 340 291 340 291 174 283 c 0,15,16
 173 283 173 283 169.5 283.5 c 128,-1,17
 166 284 166 284 164 284 c 0,18,19
 156 284 156 284 156 278 c 2,20,-1
 156 92 l 1,21,-1
 163 81 l 2,22,23
 164 79 164 79 200.5 76.5 c 128,-1,24
 237 74 237 74 264 74 c 0,25,26
 276 74 276 74 312.5 83 c 128,-1,27
 349 92 349 92 365 92 c 0,28,29
 409 92 409 92 415 86 c 1,30,-1
 422 81 l 1,31,32
 423 87 423 87 433 87 c 0,33,34
 434 87 434 87 438 86.5 c 128,-1,35
 442 86 442 86 446 86 c 1,36,-1
 435 81 l 1,37,-1
 437.5 81.5 l 2,38,39
 440 82 440 82 443 82 c 128,-1,40
 446 82 446 82 449 82 c 0,41,42
 465.620839953 82 465.620839953 82 468.849368319 76.3088219415 c 0,43,44
 469.424258643 75.2954180532 469.424258643 75.2954180532 470 74 c 0,45,46
 471 74 471 74 476.5 77.5 c 128,-1,47
 482 81 482 81 483 81 c 0,48,49
 497 72 497 72 497 49 c 0,50,51
 497 -9 497 -9 483 -24 c 1,52,53
 481 -24 481 -24 469 -24.5 c 128,-1,54
 457 -25 457 -25 456 -25 c 0,55,56
 411 -25 411 -25 378 -9 c 1,57,-1
 120 -9 l 2,58,59
 77 -9 77 -9 70 12 c 1,60,61
 70 42 70 42 73 103 c 128,-1,62
 76 164 76 164 76 194 c 0,63,64
 76 334 76 334 63 389 c 1,65,-1
 63 654 l 1,66,-1
 187 654 l 1,67,68
 206 647 206 647 243 647 c 0,69,70
 255 647 255 647 261 654 c 1,71,72
 291 654 291 654 339 657 c 128,-1,73
 387 660 387 660 391 660 c 0,74,75
 404 660 404 660 470 654 c 1,76,77
 474 652 474 652 478 641 c 1,78,79
 478 627 478 627 473.5 612 c 128,-1,80
 469 597 469 597 469 585 c 0,81,82
 469 584 469 584 469.5 580 c 128,-1,83
 470 576 470 576 470 574 c 1,84,-1
 446 568 l 1,85,86
 404 571 404 571 361 571 c 0,87,88
 250 571 250 571 163 549 c 1,89,90
 155 532 155 532 155 510 c 0,91,92
 155 500 155 500 159 479 c 128,-1,93
 163 458 163 458 163 447 c 1,94,95
 158 406 158 406 156 389 c 1,96,-1
 168 377 l 1,97,-1
 182 376 l 2,98,99
 196 375 196 375 200 375 c 0,100,101
 225 375 225 375 246.5 379 c 128,-1,102
 268 383 268 383 273 383 c 1,0,1
439 50 m 1,103,-1
 439 6 l 1,104,105
 466 6 466 6 466 50 c 1,106,-1
 439 50 l 1,103,-1
427 37 m 2,107,108
 422 37 422 37 409.5 32 c 128,-1,109
 397 27 397 27 397 24 c 2,110,-1
 397 14 l 1,111,112
 422 14 422 14 435 37 c 1,113,-1
 427 37 l 2,107,108
106 35 m 2,114,115
 106 31 106 31 113 24 c 1,116,117
 140 51 140 51 140 56 c 1,118,-1
 124 56 l 1,119,-1
 124 67 l 1,120,121
 120 65 120 65 106 37 c 1,122,-1
 106 35 l 2,114,115
163 43 m 1,123,124
 146 36 146 36 131 24 c 1,125,126
 143 24 143 24 148.5 27.5 c 128,-1,127
 154 31 154 31 163 43 c 1,123,124
190 31 m 2,128,129
 181 31 181 31 174 24 c 1,130,131
 175 24 175 24 177.5 23.5 c 128,-1,132
 180 23 180 23 181 23 c 0,133,134
 190 23 190 23 193 31 c 1,135,-1
 190 31 l 2,128,129
261 44 m 0,136,137
 231 44 231 44 218 24 c 1,138,139
 219 24 219 24 226.5 23.5 c 128,-1,140
 234 23 234 23 236 23 c 0,141,142
 267 23 267 23 273 43 c 1,143,-1
 267.5 43.5 l 2,144,145
 262 44 262 44 261 44 c 0,136,137
319 44 m 0,146,147
 313 44 313 44 298 24 c 1,148,149
 309 24 309 24 322 43 c 1,150,151
 320 44 320 44 319 44 c 0,146,147
365 50 m 1,152,-1
 341 31 l 1,153,154
 366 31 366 31 378 43 c 1,155,-1
 378 31 l 1,156,-1
 427 50 l 1,157,-1
 365 50 l 1,152,-1
354 56 m 2,158,159
 344 56 344 56 341 50 c 1,160,161
 357 50 357 50 360 56 c 1,162,-1
 354 56 l 2,158,159
106 92 m 1,163,-1
 106 73 l 1,164,165
 121 73 121 73 121 92 c 1,166,-1
 106 92 l 1,163,-1
117 173 m 1,167,168
 103 173 103 173 103 142 c 1,169,-1
 104 130 l 1,170,-1
 113 130 l 2,171,172
 115 130 115 130 119.5 140.5 c 128,-1,173
 124 151 124 151 124 156 c 0,174,175
 124 174 124 174 118 174 c 1,176,-1
 117 173 l 1,167,168
125 211 m 1,177,178
 110 211 110 211 110 182 c 1,179,180
 125 182 125 182 125 211 c 1,177,178
106 234 m 0,181,182
 106 229 106 229 113 222 c 1,183,184
 121 225 121 225 121 242 c 1,185,186
 106 242 106 242 106 234 c 0,181,182
124 283 m 1,187,188
 105 267 105 267 105 258 c 1,189,190
 117 258 117 258 121 261.5 c 128,-1,191
 125 265 125 265 125 276 c 1,192,-1
 124 283 l 1,187,188
127 310 m 1,193,194
 106 310 106 310 106 295 c 1,195,196
 127 295 127 295 127 310 c 1,193,194
174 326 m 1,197,-1
 174 315 l 1,198,199
 186 315 186 315 200 321.5 c 128,-1,200
 214 328 214 328 214 339 c 1,201,-1
 144 339 l 2,202,203
 137 339 137 339 137 326 c 1,204,-1
 174 326 l 1,197,-1
265 347 m 0,205,206
 247 348 247 348 231.5 336.5 c 128,-1,207
 216 325 216 325 216 309 c 1,208,209
 232 309 232 309 251.5 320.5 c 128,-1,210
 271 332 271 332 279 346 c 1,211,212
 278 346 278 346 272 346.5 c 128,-1,213
 266 347 266 347 265 347 c 0,205,206
298 346 m 1,214,-1
 267 315 l 1,215,-1
 298 315 l 2,216,217
 305 315 305 315 305 346 c 1,218,-1
 298 346 l 1,214,-1
372 352 m 1,219,220
 350 345 350 345 341 322 c 1,221,-1
 391 322 l 1,222,223
 380 335 380 335 372 352 c 1,219,220
99 353 m 0,224,225
 99 345 99 345 106 326 c 1,226,-1
 138 358 l 1,227,-1
 138 366 l 1,228,229
 99 366 99 366 99 353 c 0,224,225
138 402 m 1,230,231
 126 402 126 402 115.5 394.5 c 128,-1,232
 105 387 105 387 105 376 c 1,233,234
 138 376 138 376 138 402 c 1,230,231
113 444 m 0,235,236
 95 444 95 444 95 439 c 2,237,-1
 95 399 l 1,238,239
 105 399 105 399 119 412 c 128,-1,240
 133 425 133 425 133 437 c 0,241,242
 133 439 133 439 125.5 441.5 c 128,-1,243
 118 444 118 444 113 444 c 0,235,236
134 489 m 1,244,245
 117 489 117 489 100 457 c 1,246,247
 125 457 125 457 129.5 461.5 c 128,-1,248
 134 466 134 466 134 489 c 1,244,245
120 518 m 1,249,250
 116 513 116 513 105 507.5 c 128,-1,251
 94 502 94 502 94 491 c 0,252,253
 94 490 94 490 94.5 486 c 2,254,-1
 95 482 l 1,255,256
 112 496 112 496 118.5 506 c 128,-1,257
 125 516 125 516 125 534 c 0,258,259
 125 535 125 535 124.5 541.5 c 128,-1,260
 124 548 124 548 124 549 c 1,261,262
 121 546 121 546 113.5 540.5 c 128,-1,263
 106 535 106 535 100.5 531 c 128,-1,264
 95 527 95 527 95 525 c 0,265,266
 95 517 95 517 111 517 c 0,267,268
 113 517 113 517 116 517.5 c 128,-1,269
 119 518 119 518 120 518 c 1,249,250
120 568 m 2,270,271
 93 568 93 568 93 548 c 1,272,273
 112 548 112 548 124 568 c 1,274,-1
 120 568 l 2,270,271
120 605 m 1,275,-1
 106 580 l 1,276,-1
 113 580 l 2,277,278
 121 580 121 580 156.5 596 c 128,-1,279
 192 612 192 612 193 617 c 1,280,281
 177 624 177 624 143 624 c 0,282,283
 95 624 95 624 95 623 c 2,284,-1
 88 593 l 1,285,286
 98 593 98 593 120 605 c 1,275,-1
218 605 m 1,287,288
 214 604 214 604 210.5 600 c 128,-1,289
 207 596 207 596 206 592.5 c 2,290,-1
 205 589 l 2,291,292
 205 587 205 587 208 587 c 0,293,294
 219 587 219 587 219 598 c 1,295,-1
 218 605 l 1,287,288
365 630 m 1,296,297
 364 627 364 627 364 623 c 0,298,299
 364 610 364 610 380 610 c 0,300,301
 410 610 410 610 410 630 c 1,302,-1
 365 630 l 1,296,297
255 623 m 1,303,-1
 248 617 l 1,304,-1
 255 617 l 1,305,-1
 255 623 l 1,303,-1
201 781 m 0,306,307
 184 781 184 781 158 765 c 128,-1,308
 132 749 132 749 117 749 c 0,309,310
 91 749 91 749 91 768 c 0,311,312
 91 781 91 781 134.5 820.5 c 128,-1,313
 178 860 178 860 212 860 c 0,314,315
 229 860 229 860 256.5 833.5 c 128,-1,316
 284 807 284 807 285 807 c 0,317,318
 291 805 291 805 313.5 783 c 128,-1,319
 336 761 336 761 339 760 c 1,320,-1
 339 742 l 1,321,322
 314 742 314 742 269 761.5 c 128,-1,323
 224 781 224 781 201 781 c 0,306,307
247 801 m 1,324,325
 255 790 255 790 267 790 c 1,326,-1
 253 805 l 1,327,-1
 247 801 l 1,324,325
186 821 m 1,328,-1
 162 796 l 1,329,330
 187 803 187 803 187 815 c 0,331,332
 187 816 187 816 186.5 818.5 c 2,333,-1
 186 821 l 1,328,-1
EndSplineSet
EndChar

StartChar: Edieresis
Encoding: 203 203 14
Width: 518
Flags: MW
HStem: -25 107<446 455.5 446 457.5> -24 21G<481 483> -9 33<113.5 139.5 131 139.5 174 175 218 219 298 300.5> 50 32<365 455.5 439 455.5 446 455.5 446 466> 283 43<106 124 173 174> 339 46 571 83 630 24 630 132 790 28<136 183>
VStem: 63 31<490 500.5 490 654> 76 30 124 32<56 278 67 278 152.5 159 92 283> 240 90<745 802 802 802>
LayerCount: 2
Fore
SplineSet
273 383 m 1,0,1
 281 375 281 375 283 375 c 0,2,3
 291 375 291 375 291 385 c 1,4,-1
 403 385 l 1,5,6
 411 374 411 374 415 364 c 1,7,-1
 427 370 l 1,8,9
 421 364 421 364 421 344 c 0,10,11
 421 307 421 307 422 302 c 1,12,-1
 409 291 l 1,13,14
 340 291 340 291 174 283 c 0,15,16
 173 283 173 283 169.5 283.5 c 128,-1,17
 166 284 166 284 164 284 c 0,18,19
 156 284 156 284 156 278 c 2,20,-1
 156 92 l 1,21,-1
 163 81 l 2,22,23
 164 79 164 79 200.5 76.5 c 128,-1,24
 237 74 237 74 264 74 c 0,25,26
 276 74 276 74 312.5 83 c 128,-1,27
 349 92 349 92 365 92 c 0,28,29
 409 92 409 92 415 86 c 1,30,-1
 422 81 l 1,31,32
 423 87 423 87 433 87 c 0,33,34
 434 87 434 87 438 86.5 c 128,-1,35
 442 86 442 86 446 86 c 1,36,-1
 435 81 l 1,37,-1
 437.5 81.5 l 2,38,39
 440 82 440 82 443 82 c 128,-1,40
 446 82 446 82 449 82 c 0,41,42
 465.620839953 82 465.620839953 82 468.849368319 76.3088219415 c 0,43,44
 469.424258643 75.2954180532 469.424258643 75.2954180532 470 74 c 0,45,46
 471 74 471 74 476.5 77.5 c 128,-1,47
 482 81 482 81 483 81 c 0,48,49
 497 72 497 72 497 49 c 0,50,51
 497 -9 497 -9 483 -24 c 1,52,53
 481 -24 481 -24 469 -24.5 c 128,-1,54
 457 -25 457 -25 456 -25 c 0,55,56
 411 -25 411 -25 378 -9 c 1,57,-1
 120 -9 l 2,58,59
 77 -9 77 -9 70 12 c 1,60,61
 70 42 70 42 73 103 c 128,-1,62
 76 164 76 164 76 194 c 0,63,64
 76 334 76 334 63 389 c 1,65,-1
 63 654 l 1,66,-1
 187 654 l 1,67,68
 206 647 206 647 243 647 c 0,69,70
 255 647 255 647 261 654 c 1,71,72
 291 654 291 654 339 657 c 128,-1,73
 387 660 387 660 391 660 c 0,74,75
 404 660 404 660 470 654 c 1,76,77
 474 652 474 652 478 641 c 1,78,79
 478 627 478 627 473.5 612 c 128,-1,80
 469 597 469 597 469 585 c 0,81,82
 469 584 469 584 469.5 580 c 128,-1,83
 470 576 470 576 470 574 c 1,84,-1
 446 568 l 1,85,86
 404 571 404 571 361 571 c 0,87,88
 250 571 250 571 163 549 c 1,89,90
 155 532 155 532 155 510 c 0,91,92
 155 500 155 500 159 479 c 128,-1,93
 163 458 163 458 163 447 c 1,94,95
 158 406 158 406 156 389 c 1,96,-1
 168 377 l 1,97,-1
 182 376 l 2,98,99
 196 375 196 375 200 375 c 0,100,101
 225 375 225 375 246.5 379 c 128,-1,102
 268 383 268 383 273 383 c 1,0,1
439 50 m 1,103,-1
 439 6 l 1,104,105
 466 6 466 6 466 50 c 1,106,-1
 439 50 l 1,103,-1
427 37 m 2,107,108
 422 37 422 37 409.5 32 c 128,-1,109
 397 27 397 27 397 24 c 2,110,-1
 397 14 l 1,111,112
 422 14 422 14 435 37 c 1,113,-1
 427 37 l 2,107,108
106 35 m 2,114,115
 106 31 106 31 113 24 c 1,116,117
 140 51 140 51 140 56 c 1,118,-1
 124 56 l 1,119,-1
 124 67 l 1,120,121
 120 65 120 65 106 37 c 1,122,-1
 106 35 l 2,114,115
163 43 m 1,123,124
 146 36 146 36 131 24 c 1,125,126
 143 24 143 24 148.5 27.5 c 128,-1,127
 154 31 154 31 163 43 c 1,123,124
190 31 m 2,128,129
 181 31 181 31 174 24 c 1,130,131
 175 24 175 24 177.5 23.5 c 128,-1,132
 180 23 180 23 181 23 c 0,133,134
 190 23 190 23 193 31 c 1,135,-1
 190 31 l 2,128,129
261 44 m 0,136,137
 231 44 231 44 218 24 c 1,138,139
 219 24 219 24 226.5 23.5 c 128,-1,140
 234 23 234 23 236 23 c 0,141,142
 267 23 267 23 273 43 c 1,143,-1
 267.5 43.5 l 2,144,145
 262 44 262 44 261 44 c 0,136,137
319 44 m 0,146,147
 313 44 313 44 298 24 c 1,148,149
 309 24 309 24 322 43 c 1,150,151
 320 44 320 44 319 44 c 0,146,147
365 50 m 1,152,-1
 341 31 l 1,153,154
 366 31 366 31 378 43 c 1,155,-1
 378 31 l 1,156,-1
 427 50 l 1,157,-1
 365 50 l 1,152,-1
354 56 m 2,158,159
 344 56 344 56 341 50 c 1,160,161
 357 50 357 50 360 56 c 1,162,-1
 354 56 l 2,158,159
106 92 m 1,163,-1
 106 73 l 1,164,165
 121 73 121 73 121 92 c 1,166,-1
 106 92 l 1,163,-1
117 173 m 1,167,168
 103 173 103 173 103 142 c 1,169,-1
 104 130 l 1,170,-1
 113 130 l 2,171,172
 115 130 115 130 119.5 140.5 c 128,-1,173
 124 151 124 151 124 156 c 0,174,175
 124 174 124 174 118 174 c 1,176,-1
 117 173 l 1,167,168
125 211 m 1,177,178
 110 211 110 211 110 182 c 1,179,180
 125 182 125 182 125 211 c 1,177,178
106 234 m 0,181,182
 106 229 106 229 113 222 c 1,183,184
 121 225 121 225 121 242 c 1,185,186
 106 242 106 242 106 234 c 0,181,182
124 283 m 1,187,188
 105 267 105 267 105 258 c 1,189,190
 117 258 117 258 121 261.5 c 128,-1,191
 125 265 125 265 125 276 c 1,192,-1
 124 283 l 1,187,188
127 310 m 1,193,194
 106 310 106 310 106 295 c 1,195,196
 127 295 127 295 127 310 c 1,193,194
174 326 m 1,197,-1
 174 315 l 1,198,199
 186 315 186 315 200 321.5 c 128,-1,200
 214 328 214 328 214 339 c 1,201,-1
 144 339 l 2,202,203
 137 339 137 339 137 326 c 1,204,-1
 174 326 l 1,197,-1
265 347 m 0,205,206
 247 348 247 348 231.5 336.5 c 128,-1,207
 216 325 216 325 216 309 c 1,208,209
 232 309 232 309 251.5 320.5 c 128,-1,210
 271 332 271 332 279 346 c 1,211,212
 278 346 278 346 272 346.5 c 128,-1,213
 266 347 266 347 265 347 c 0,205,206
298 346 m 1,214,-1
 267 315 l 1,215,-1
 298 315 l 2,216,217
 305 315 305 315 305 346 c 1,218,-1
 298 346 l 1,214,-1
372 352 m 1,219,220
 350 345 350 345 341 322 c 1,221,-1
 391 322 l 1,222,223
 380 335 380 335 372 352 c 1,219,220
99 353 m 0,224,225
 99 345 99 345 106 326 c 1,226,-1
 138 358 l 1,227,-1
 138 366 l 1,228,229
 99 366 99 366 99 353 c 0,224,225
138 402 m 1,230,231
 126 402 126 402 115.5 394.5 c 128,-1,232
 105 387 105 387 105 376 c 1,233,234
 138 376 138 376 138 402 c 1,230,231
113 444 m 0,235,236
 95 444 95 444 95 439 c 2,237,-1
 95 399 l 1,238,239
 105 399 105 399 119 412 c 128,-1,240
 133 425 133 425 133 437 c 0,241,242
 133 439 133 439 125.5 441.5 c 128,-1,243
 118 444 118 444 113 444 c 0,235,236
134 489 m 1,244,245
 117 489 117 489 100 457 c 1,246,247
 125 457 125 457 129.5 461.5 c 128,-1,248
 134 466 134 466 134 489 c 1,244,245
120 518 m 1,249,250
 116 513 116 513 105 507.5 c 128,-1,251
 94 502 94 502 94 491 c 0,252,253
 94 490 94 490 94.5 486 c 2,254,-1
 95 482 l 1,255,256
 112 496 112 496 118.5 506 c 128,-1,257
 125 516 125 516 125 534 c 0,258,259
 125 535 125 535 124.5 541.5 c 128,-1,260
 124 548 124 548 124 549 c 1,261,262
 121 546 121 546 113.5 540.5 c 128,-1,263
 106 535 106 535 100.5 531 c 128,-1,264
 95 527 95 527 95 525 c 0,265,266
 95 517 95 517 111 517 c 0,267,268
 113 517 113 517 116 517.5 c 128,-1,269
 119 518 119 518 120 518 c 1,249,250
120 568 m 2,270,271
 93 568 93 568 93 548 c 1,272,273
 112 548 112 548 124 568 c 1,274,-1
 120 568 l 2,270,271
120 605 m 1,275,-1
 106 580 l 1,276,-1
 113 580 l 2,277,278
 121 580 121 580 156.5 596 c 128,-1,279
 192 612 192 612 193 617 c 1,280,281
 177 624 177 624 143 624 c 0,282,283
 95 624 95 624 95 623 c 2,284,-1
 88 593 l 1,285,286
 98 593 98 593 120 605 c 1,275,-1
218 605 m 1,287,288
 214 604 214 604 210.5 600 c 128,-1,289
 207 596 207 596 206 592.5 c 2,290,-1
 205 589 l 2,291,292
 205 587 205 587 208 587 c 0,293,294
 219 587 219 587 219 598 c 1,295,-1
 218 605 l 1,287,288
365 630 m 1,296,297
 364 627 364 627 364 623 c 0,298,299
 364 610 364 610 380 610 c 0,300,301
 410 610 410 610 410 630 c 1,302,-1
 365 630 l 1,296,297
255 623 m 1,303,-1
 248 617 l 1,304,-1
 255 617 l 1,305,-1
 255 623 l 1,303,-1
116 802 m 1,306,-1
 128 812 l 2,307,308
 134 818 134 818 178 818 c 0,309,310
 186 818 186 818 196 814 c 128,-1,311
 206 810 206 810 206 806 c 2,312,-1
 206 740 l 2,313,314
 206 728 206 728 182 728 c 0,315,316
 116 728 116 728 116 745 c 2,317,-1
 116 802 l 1,306,-1
136 790 m 1,318,319
 136 762 136 762 152 762 c 0,320,321
 163 762 163 762 168 762.5 c 128,-1,322
 173 763 173 763 177 766.5 c 128,-1,323
 181 770 181 770 181 778 c 0,324,325
 181 784 181 784 178 790 c 1,326,327
 164 784 164 784 161 784 c 1,328,-1
 168 790 l 1,329,-1
 136 790 l 1,318,319
240 802 m 1,330,-1
 252 812 l 2,331,332
 258 818 258 818 302 818 c 0,333,334
 310 818 310 818 320 814 c 128,-1,335
 330 810 330 810 330 806 c 2,336,-1
 330 740 l 2,337,338
 330 728 330 728 306 728 c 0,339,340
 240 728 240 728 240 745 c 2,341,-1
 240 802 l 1,330,-1
260 790 m 1,342,343
 260 762 260 762 276 762 c 0,344,345
 287 762 287 762 292 762.5 c 128,-1,346
 297 763 297 763 301 766.5 c 128,-1,347
 305 770 305 770 305 778 c 0,348,349
 305 784 305 784 302 790 c 1,350,351
 288 784 288 784 285 784 c 1,352,-1
 292 790 l 1,353,-1
 260 790 l 1,342,343
EndSplineSet
EndChar

StartChar: Egrave
Encoding: 200 200 15
Width: 518
Flags: MW
HStem: -25 107<446 455.5 446 457.5> -24 21G<481 483> -9 33<113.5 139.5 131 139.5 174 175 218 219 298 300.5> 50 32<365 455.5 439 455.5 446 455.5 446 466> 283 43<106 124 173 174> 339 46 571 83 630 24 842 20G<146 152>
VStem: 63 31<490 500.5 490 654> 76 30 124 32<56 278 67 278 152.5 159 92 283>
LayerCount: 2
Fore
SplineSet
273 383 m 1,0,1
 281 375 281 375 283 375 c 0,2,3
 291 375 291 375 291 385 c 1,4,-1
 403 385 l 1,5,6
 411 374 411 374 415 364 c 1,7,-1
 427 370 l 1,8,9
 421 364 421 364 421 344 c 0,10,11
 421 307 421 307 422 302 c 1,12,-1
 409 291 l 1,13,14
 340 291 340 291 174 283 c 0,15,16
 173 283 173 283 169.5 283.5 c 128,-1,17
 166 284 166 284 164 284 c 0,18,19
 156 284 156 284 156 278 c 2,20,-1
 156 92 l 1,21,-1
 163 81 l 2,22,23
 164 79 164 79 200.5 76.5 c 128,-1,24
 237 74 237 74 264 74 c 0,25,26
 276 74 276 74 312.5 83 c 128,-1,27
 349 92 349 92 365 92 c 0,28,29
 409 92 409 92 415 86 c 1,30,-1
 422 81 l 1,31,32
 423 87 423 87 433 87 c 0,33,34
 434 87 434 87 438 86.5 c 128,-1,35
 442 86 442 86 446 86 c 1,36,-1
 435 81 l 1,37,-1
 437.5 81.5 l 2,38,39
 440 82 440 82 443 82 c 128,-1,40
 446 82 446 82 449 82 c 0,41,42
 465.620839953 82 465.620839953 82 468.849368319 76.3088219415 c 0,43,44
 469.424258643 75.2954180532 469.424258643 75.2954180532 470 74 c 0,45,46
 471 74 471 74 476.5 77.5 c 128,-1,47
 482 81 482 81 483 81 c 0,48,49
 497 72 497 72 497 49 c 0,50,51
 497 -9 497 -9 483 -24 c 1,52,53
 481 -24 481 -24 469 -24.5 c 128,-1,54
 457 -25 457 -25 456 -25 c 0,55,56
 411 -25 411 -25 378 -9 c 1,57,-1
 120 -9 l 2,58,59
 77 -9 77 -9 70 12 c 1,60,61
 70 42 70 42 73 103 c 128,-1,62
 76 164 76 164 76 194 c 0,63,64
 76 334 76 334 63 389 c 1,65,-1
 63 654 l 1,66,-1
 187 654 l 1,67,68
 206 647 206 647 243 647 c 0,69,70
 255 647 255 647 261 654 c 1,71,72
 291 654 291 654 339 657 c 128,-1,73
 387 660 387 660 391 660 c 0,74,75
 404 660 404 660 470 654 c 1,76,77
 474 652 474 652 478 641 c 1,78,79
 478 627 478 627 473.5 612 c 128,-1,80
 469 597 469 597 469 585 c 0,81,82
 469 584 469 584 469.5 580 c 128,-1,83
 470 576 470 576 470 574 c 1,84,-1
 446 568 l 1,85,86
 404 571 404 571 361 571 c 0,87,88
 250 571 250 571 163 549 c 1,89,90
 155 532 155 532 155 510 c 0,91,92
 155 500 155 500 159 479 c 128,-1,93
 163 458 163 458 163 447 c 1,94,95
 158 406 158 406 156 389 c 1,96,-1
 168 377 l 1,97,-1
 182 376 l 2,98,99
 196 375 196 375 200 375 c 0,100,101
 225 375 225 375 246.5 379 c 128,-1,102
 268 383 268 383 273 383 c 1,0,1
439 50 m 1,103,-1
 439 6 l 1,104,105
 466 6 466 6 466 50 c 1,106,-1
 439 50 l 1,103,-1
427 37 m 2,107,108
 422 37 422 37 409.5 32 c 128,-1,109
 397 27 397 27 397 24 c 2,110,-1
 397 14 l 1,111,112
 422 14 422 14 435 37 c 1,113,-1
 427 37 l 2,107,108
106 35 m 2,114,115
 106 31 106 31 113 24 c 1,116,117
 140 51 140 51 140 56 c 1,118,-1
 124 56 l 1,119,-1
 124 67 l 1,120,121
 120 65 120 65 106 37 c 1,122,-1
 106 35 l 2,114,115
163 43 m 1,123,124
 146 36 146 36 131 24 c 1,125,126
 143 24 143 24 148.5 27.5 c 128,-1,127
 154 31 154 31 163 43 c 1,123,124
190 31 m 2,128,129
 181 31 181 31 174 24 c 1,130,131
 175 24 175 24 177.5 23.5 c 128,-1,132
 180 23 180 23 181 23 c 0,133,134
 190 23 190 23 193 31 c 1,135,-1
 190 31 l 2,128,129
261 44 m 0,136,137
 231 44 231 44 218 24 c 1,138,139
 219 24 219 24 226.5 23.5 c 128,-1,140
 234 23 234 23 236 23 c 0,141,142
 267 23 267 23 273 43 c 1,143,-1
 267.5 43.5 l 2,144,145
 262 44 262 44 261 44 c 0,136,137
319 44 m 0,146,147
 313 44 313 44 298 24 c 1,148,149
 309 24 309 24 322 43 c 1,150,151
 320 44 320 44 319 44 c 0,146,147
365 50 m 1,152,-1
 341 31 l 1,153,154
 366 31 366 31 378 43 c 1,155,-1
 378 31 l 1,156,-1
 427 50 l 1,157,-1
 365 50 l 1,152,-1
354 56 m 2,158,159
 344 56 344 56 341 50 c 1,160,161
 357 50 357 50 360 56 c 1,162,-1
 354 56 l 2,158,159
106 92 m 1,163,-1
 106 73 l 1,164,165
 121 73 121 73 121 92 c 1,166,-1
 106 92 l 1,163,-1
117 173 m 1,167,168
 103 173 103 173 103 142 c 1,169,-1
 104 130 l 1,170,-1
 113 130 l 2,171,172
 115 130 115 130 119.5 140.5 c 128,-1,173
 124 151 124 151 124 156 c 0,174,175
 124 174 124 174 118 174 c 1,176,-1
 117 173 l 1,167,168
125 211 m 1,177,178
 110 211 110 211 110 182 c 1,179,180
 125 182 125 182 125 211 c 1,177,178
106 234 m 0,181,182
 106 229 106 229 113 222 c 1,183,184
 121 225 121 225 121 242 c 1,185,186
 106 242 106 242 106 234 c 0,181,182
124 283 m 1,187,188
 105 267 105 267 105 258 c 1,189,190
 117 258 117 258 121 261.5 c 128,-1,191
 125 265 125 265 125 276 c 1,192,-1
 124 283 l 1,187,188
127 310 m 1,193,194
 106 310 106 310 106 295 c 1,195,196
 127 295 127 295 127 310 c 1,193,194
174 326 m 1,197,-1
 174 315 l 1,198,199
 186 315 186 315 200 321.5 c 128,-1,200
 214 328 214 328 214 339 c 1,201,-1
 144 339 l 2,202,203
 137 339 137 339 137 326 c 1,204,-1
 174 326 l 1,197,-1
265 347 m 0,205,206
 247 348 247 348 231.5 336.5 c 128,-1,207
 216 325 216 325 216 309 c 1,208,209
 232 309 232 309 251.5 320.5 c 128,-1,210
 271 332 271 332 279 346 c 1,211,212
 278 346 278 346 272 346.5 c 128,-1,213
 266 347 266 347 265 347 c 0,205,206
298 346 m 1,214,-1
 267 315 l 1,215,-1
 298 315 l 2,216,217
 305 315 305 315 305 346 c 1,218,-1
 298 346 l 1,214,-1
372 352 m 1,219,220
 350 345 350 345 341 322 c 1,221,-1
 391 322 l 1,222,223
 380 335 380 335 372 352 c 1,219,220
99 353 m 0,224,225
 99 345 99 345 106 326 c 1,226,-1
 138 358 l 1,227,-1
 138 366 l 1,228,229
 99 366 99 366 99 353 c 0,224,225
138 402 m 1,230,231
 126 402 126 402 115.5 394.5 c 128,-1,232
 105 387 105 387 105 376 c 1,233,234
 138 376 138 376 138 402 c 1,230,231
113 444 m 0,235,236
 95 444 95 444 95 439 c 2,237,-1
 95 399 l 1,238,239
 105 399 105 399 119 412 c 128,-1,240
 133 425 133 425 133 437 c 0,241,242
 133 439 133 439 125.5 441.5 c 128,-1,243
 118 444 118 444 113 444 c 0,235,236
134 489 m 1,244,245
 117 489 117 489 100 457 c 1,246,247
 125 457 125 457 129.5 461.5 c 128,-1,248
 134 466 134 466 134 489 c 1,244,245
120 518 m 1,249,250
 116 513 116 513 105 507.5 c 128,-1,251
 94 502 94 502 94 491 c 0,252,253
 94 490 94 490 94.5 486 c 2,254,-1
 95 482 l 1,255,256
 112 496 112 496 118.5 506 c 128,-1,257
 125 516 125 516 125 534 c 0,258,259
 125 535 125 535 124.5 541.5 c 128,-1,260
 124 548 124 548 124 549 c 1,261,262
 121 546 121 546 113.5 540.5 c 128,-1,263
 106 535 106 535 100.5 531 c 128,-1,264
 95 527 95 527 95 525 c 0,265,266
 95 517 95 517 111 517 c 0,267,268
 113 517 113 517 116 517.5 c 128,-1,269
 119 518 119 518 120 518 c 1,249,250
120 568 m 2,270,271
 93 568 93 568 93 548 c 1,272,273
 112 548 112 548 124 568 c 1,274,-1
 120 568 l 2,270,271
120 605 m 1,275,-1
 106 580 l 1,276,-1
 113 580 l 2,277,278
 121 580 121 580 156.5 596 c 128,-1,279
 192 612 192 612 193 617 c 1,280,281
 177 624 177 624 143 624 c 0,282,283
 95 624 95 624 95 623 c 2,284,-1
 88 593 l 1,285,286
 98 593 98 593 120 605 c 1,275,-1
218 605 m 1,287,288
 214 604 214 604 210.5 600 c 128,-1,289
 207 596 207 596 206 592.5 c 2,290,-1
 205 589 l 2,291,292
 205 587 205 587 208 587 c 0,293,294
 219 587 219 587 219 598 c 1,295,-1
 218 605 l 1,287,288
365 630 m 1,296,297
 364 627 364 627 364 623 c 0,298,299
 364 610 364 610 380 610 c 0,300,301
 410 610 410 610 410 630 c 1,302,-1
 365 630 l 1,296,297
255 623 m 1,303,-1
 248 617 l 1,304,-1
 255 617 l 1,305,-1
 255 623 l 1,303,-1
141 833 m 0,306,307
 141 862 141 862 152 862 c 1,308,309
 184 847 184 847 242 817.5 c 128,-1,310
 300 788 300 788 315 780 c 0,311,312
 324 776 324 776 324 731 c 1,313,-1
 303 731 l 1,314,315
 199 777 199 777 173 787 c 0,316,317
 154 795 154 795 147.5 803.5 c 128,-1,318
 141 812 141 812 141 833 c 0,306,307
218 797 m 1,319,320
 219 794 219 794 219.5 792 c 128,-1,321
 220 790 220 790 221.5 788.5 c 128,-1,322
 223 787 223 787 224 786 c 128,-1,323
 225 785 225 785 227 784.5 c 128,-1,324
 229 784 229 784 230.5 783.5 c 128,-1,325
 232 783 232 783 235.5 783 c 128,-1,326
 239 783 239 783 240.5 783 c 128,-1,327
 242 783 242 783 247 783 c 128,-1,328
 252 783 252 783 255 783 c 1,329,330
 253 786 253 786 250.5 788 c 128,-1,331
 248 790 248 790 246 791.5 c 128,-1,332
 244 793 244 793 241.5 794 c 128,-1,333
 239 795 239 795 237.5 796 c 128,-1,334
 236 797 236 797 233 797 c 128,-1,335
 230 797 230 797 228.5 797 c 128,-1,336
 227 797 227 797 223 797 c 128,-1,337
 219 797 219 797 218 797 c 1,319,320
167 824 m 1,338,339
 169 817 169 817 185 817 c 1,340,341
 182 824 182 824 167 824 c 1,338,339
EndSplineSet
EndChar

StartChar: Eth
Encoding: 208 208 16
Width: 699
Flags: MW
HStem: -12 21G<112.5 120> 0 31<171 207 226 234.5 337 350 350 358.5 171 171> 45 47<197.5 384.5> 62 30<226 384.5 247 417 247 399> 62 245<226 235 220 417 220 399> 75 67 324 22<280.5 283> 324 35<252.5 287> 324 107 324 169<158 287> 324 209 518 80<559 565 565 566.5> 556 42<559 565 565 566.5> 574 24 619 35 631 23<171 345> 640 20G<150 153.5 302.5 305>
VStem: 91 23 110 23 165 24<465.5 480> 165 154<35.5 164.5> 634 31<275 279.5>
LayerCount: 2
Fore
SplineSet
91 7 m 1,0,1
 84 44 84 44 84 124 c 0,2,3
 84 146 84 146 87.5 186.5 c 128,-1,4
 91 227 91 227 91 233 c 0,5,6
 91 279 91 279 66 283 c 0,7,8
 62 284 62 284 52.5 284.5 c 128,-1,9
 43 285 43 285 35.5 286 c 128,-1,10
 28 287 28 287 20.5 288.5 c 128,-1,11
 13 290 13 290 8.5 293 c 128,-1,12
 4 296 4 296 4 300 c 0,13,14
 4 311 4 311 7 328.5 c 128,-1,15
 10 346 10 346 16 346 c 2,16,-1
 91 346 l 2,17,18
 92 346 92 346 96.5 392 c 128,-1,19
 101 438 101 438 105.5 502 c 128,-1,20
 110 566 110 566 110 605 c 0,21,22
 110 611 110 611 109.5 623 c 128,-1,23
 109 635 109 635 109 641 c 1,24,-1
 115 648 l 1,25,-1
 164 648 l 1,26,-1
 171 654 l 1,27,-1
 293 654 l 1,28,29
 294 660 294 660 305 660 c 0,30,31
 323 659 323 659 355 654 c 128,-1,32
 387 649 387 649 399 648 c 0,33,34
 405 647 405 647 425.5 645.5 c 128,-1,35
 446 644 446 644 456 643 c 128,-1,36
 466 642 466 642 484 639 c 128,-1,37
 502 636 502 636 513 632 c 128,-1,38
 524 628 524 628 537 621 c 128,-1,39
 550 614 550 614 559 605 c 1,40,-1
 559 598 l 1,41,-1
 565 598 l 2,42,43
 567 598 567 598 579.5 586 c 128,-1,44
 592 574 592 574 597 567 c 0,45,46
 665 461 665 461 665 324 c 0,47,48
 665 271 665 271 647.5 210 c 128,-1,49
 630 149 630 149 590 96 c 128,-1,50
 550 43 550 43 498 31 c 2,51,-1
 362 0 l 1,52,-1
 171 0 l 1,53,54
 136 -10 136 -10 120 -12 c 1,55,56
 92 -12 92 -12 91 7 c 1,0,1
309 56 m 2,57,58
 300 56 300 56 285 44.5 c 128,-1,59
 270 33 270 33 269 24 c 1,60,61
 319 24 319 24 319 46 c 0,62,63
 319 48 319 48 315 52 c 128,-1,64
 311 56 311 56 310 56 c 2,65,-1
 309 56 l 2,57,58
207 45 m 1,66,67
 176 45 176 45 152 31 c 1,68,-1
 207 31 l 1,69,-1
 207 45 l 1,66,67
226 62 m 1,70,-1
 226 31 l 1,71,72
 269 31 269 31 282 56 c 1,73,74
 279 55 279 55 274 55 c 0,75,76
 266 55 266 55 250.5 58.5 c 128,-1,77
 235 62 235 62 226 62 c 1,70,-1
386 57 m 1,78,79
 356 57 356 57 337 31 c 1,80,-1
 350 31 l 2,81,82
 386 31 386 31 386 57 c 1,78,79
155 75 m 0,83,84
 133 75 133 75 123.5 69 c 128,-1,85
 114 63 114 63 114 41 c 1,86,87
 125 41 125 41 144.5 52.5 c 128,-1,88
 164 64 164 64 171 74 c 1,89,90
 169 74 169 74 162.5 74.5 c 128,-1,91
 156 75 156 75 155 75 c 0,83,84
343 56 m 2,92,93
 330 56 330 56 330 46 c 1,94,-1
 330.5 45 l 2,95,96
 331 44 331 44 331 43 c 1,97,98
 344 47 344 47 350 56 c 1,99,-1
 343 56 l 2,92,93
481 74 m 1,100,101
 434 72 434 72 411 43 c 1,102,103
 424 43 424 43 435 46 c 128,-1,104
 446 49 446 49 451.5 52 c 128,-1,105
 457 55 457 55 467.5 62.5 c 128,-1,106
 478 70 478 70 485 74 c 1,107,-1
 481 74 l 1,100,101
192 67 m 0,108,109
 185 67 185 67 158 49 c 1,110,-1
 161 49 l 1,111,112
 200 59 200 59 207 62 c 1,113,114
 195 67 195 67 192 67 c 0,108,109
399 62 m 1,115,-1
 399 54 l 1,116,117
 409 54 409 54 417 62 c 1,118,-1
 399 62 l 1,115,-1
553 130 m 1,119,-1
 491 62 l 1,120,121
 507 62 507 62 522.5 75.5 c 128,-1,122
 538 89 538 89 549.5 105.5 c 128,-1,123
 561 122 561 122 565 124 c 1,124,-1
 565 130 l 1,125,-1
 553 130 l 1,119,-1
164 117 m 1,126,127
 161 114 161 114 155 110.5 c 128,-1,128
 149 107 149 107 146 104.5 c 128,-1,129
 143 102 143 102 139.5 99 c 128,-1,130
 136 96 136 96 134.5 92.5 c 128,-1,131
 133 89 133 89 133 86 c 1,132,133
 171 93 171 93 171 99 c 0,134,135
 171 106 171 106 164 117 c 1,126,127
194 198 m 0,136,137
 194 121 194 121 208 106.5 c 128,-1,138
 222 92 222 92 295 92 c 0,139,140
 346 92 346 92 376 93.5 c 128,-1,141
 406 95 406 95 438 101.5 c 128,-1,142
 470 108 470 108 488.5 120 c 128,-1,143
 507 132 507 132 524.5 152.5 c 128,-1,144
 542 173 542 173 552.5 203.5 c 128,-1,145
 563 234 563 234 572 278 c 1,146,147
 541.743016871 421.888764214 541.743016871 421.888764214 530.987030777 449.818131966 c 0,148,149
 511.562948064 500.255381012 511.562948064 500.255381012 466.093255693 522.865544882 c 0,150,151
 436.141142107 537.759470069 436.141142107 537.759470069 368 555 c 0,152,153
 355 558 355 558 342.5 563 c 128,-1,154
 330 568 330 568 319 571 c 128,-1,155
 308 574 308 574 293 574 c 0,156,157
 263 574 263 574 226 567.5 c 128,-1,158
 189 561 189 561 189 549 c 2,159,-1
 189 358 l 2,160,161
 189 351 189 351 201 351 c 0,162,163
 212 351 212 351 232 355 c 128,-1,164
 252 359 252 359 265 359 c 0,165,166
 268 359 268 359 286 358.5 c 128,-1,167
 304 358 304 358 307 358 c 1,168,169
 312 355 312 355 313 348.5 c 128,-1,170
 314 342 314 342 319 339 c 1,171,-1
 319 296 l 1,172,-1
 311 291 l 1,173,174
 308 284 308 284 275 280.5 c 128,-1,175
 242 277 242 277 226 277 c 0,176,177
 205 277 205 277 202 278 c 1,178,179
 193 261 193 261 193 227 c 0,180,181
 193 221 193 221 193.5 211 c 128,-1,182
 194 201 194 201 194 198 c 0,136,137
120 135 m 1,183,-1
 120 105 l 1,184,185
 159 124 159 124 159 135 c 1,186,-1
 120 135 l 1,183,-1
467 111 m 0,187,188
 461 111 461 111 461 105 c 128,-1,189
 461 99 461 99 467 99 c 0,190,191
 472 99 472 99 472 105 c 128,-1,192
 472 111 472 111 467 111 c 0,187,188
615 218 m 1,193,194
 605 218 605 218 597 212.5 c 128,-1,195
 589 207 589 207 582.5 196 c 128,-1,196
 576 185 576 185 572 177 c 128,-1,197
 568 169 568 169 564 156.5 c 128,-1,198
 560 144 560 144 559 143 c 1,199,200
 560 143 560 143 564 142.5 c 2,201,-1
 568 142 l 1,202,203
 588 142 588 142 601.5 168 c 128,-1,204
 615 194 615 194 615 218 c 1,193,194
120 155 m 1,205,-1
 120 146 l 1,206,207
 165 146 165 146 165 164 c 0,208,209
 165 165 165 165 162.5 169 c 128,-1,210
 160 173 160 173 158 173 c 2,211,-1
 120 155 l 1,205,-1
120 191 m 1,212,-1
 120 167 l 1,213,214
 153 175 153 175 158 186 c 1,215,216
 157 192 157 192 144 192 c 0,217,218
 141 192 141 192 133 191.5 c 128,-1,219
 125 191 125 191 120 191 c 1,212,-1
602 210 m 0,220,221
 607 210 607 210 607 204 c 128,-1,222
 607 198 607 198 602 198 c 0,223,224
 598 198 598 198 598 204 c 128,-1,225
 598 210 598 210 602 210 c 0,220,221
158 228 m 1,226,-1
 133 210 l 1,227,-1
 158 210 l 1,228,-1
 158 228 l 1,226,-1
120 232 m 0,229,230
 120 218 120 218 128 216 c 1,231,-1
 120 216 l 1,232,233
 160 231 160 231 160 254 c 1,234,235
 120 254 120 254 120 232 c 0,229,230
609 248 m 1,236,237
 588 240 588 240 588 221 c 1,238,239
 622 221 622 221 622 231 c 0,240,241
 622 233 622 233 619.5 236.5 c 128,-1,242
 617 240 617 240 615 240 c 1,243,244
 634 257 634 257 634 272 c 0,245,246
 634 292 634 292 602 292 c 1,247,-1
 602 278 l 1,248,-1
 621 278 l 1,249,-1
 597 253 l 1,250,-1
 609 248 l 1,236,237
166 285 m 1,251,252
 137 277 137 277 128 265 c 1,253,-1
 143 265 l 2,254,255
 157 265 157 265 161.5 268.5 c 128,-1,256
 166 272 166 272 166 285 c 1,251,252
149 347 m 0,257,258
 140 347 140 347 130 321 c 128,-1,259
 120 295 120 295 120 282 c 1,260,261
 141 282 141 282 176 308 c 1,262,263
 183 308 183 308 201.5 307.5 c 128,-1,264
 220 307 220 307 229 307 c 0,265,266
 287 307 287 307 287 315 c 2,267,-1
 287 324 l 1,268,269
 212 324 212 324 171 315 c 1,270,-1
 171 316 l 2,271,272
 171 319 171 319 161 333 c 128,-1,273
 151 347 151 347 149 347 c 0,257,258
601 312 m 0,274,275
 601 308 601 308 604 305.5 c 128,-1,276
 607 303 607 303 611.5 301 c 128,-1,277
 616 299 616 299 620 298 c 128,-1,278
 624 297 624 297 628.5 296.5 c 2,279,-1
 633 296 l 1,280,-1
 639 326 l 1,281,282
 639 336 639 336 619.5 342.5 c 128,-1,283
 600 349 600 349 589 349 c 1,284,285
 589 323 589 323 608 323 c 0,286,287
 614 323 614 323 621 326 c 1,288,289
 601 323 601 323 601 312 c 0,274,275
41 315 m 0,290,291
 41 318 41 318 34 318 c 0,292,293
 28 318 28 318 28 316 c 0,294,295
 28 312 28 312 34 312 c 128,-1,296
 40 312 40 312 41 315 c 0,290,291
152 322 m 1,297,-1
 158 315 l 1,298,-1
 145 315 l 1,299,-1
 152 322 l 1,297,-1
282 358 m 0,300,301
 277 358 277 358 277 352 c 128,-1,302
 277 346 277 346 282 346 c 0,303,304
 286 346 286 346 286 352 c 128,-1,305
 286 358 286 358 282 358 c 0,300,301
590 364 m 1,306,-1
 633 352 l 1,307,308
 633 359 633 359 634 371.5 c 128,-1,309
 635 384 635 384 635 394 c 0,310,311
 635 428 635 428 621 431 c 1,312,313
 596 421 596 421 578 407 c 1,314,-1
 615 396 l 1,315,-1
 615 393 l 2,316,317
 615 389 615 389 590 364 c 1,306,-1
128 376 m 0,318,319
 128 364 128 364 139 364 c 0,320,321
 153 364 153 364 153 373 c 0,322,323
 153 383 153 383 140 383 c 0,324,325
 128 383 128 383 128 376 c 0,318,319
578 389 m 1,326,-1
 578 381 l 1,327,328
 594 381 594 381 597 389 c 1,329,-1
 578 389 l 1,326,-1
128 401 m 0,330,331
 128 395 128 395 139 395 c 0,332,333
 153 395 153 395 156 399 c 128,-1,334
 159 403 159 403 159 417 c 0,335,336
 159 418 159 418 158.5 424 c 128,-1,337
 158 430 158 430 158 431 c 1,338,339
 150 428 150 428 139 419 c 128,-1,340
 128 410 128 410 128 401 c 0,330,331
572 439 m 1,341,-1
 572 424 l 1,342,343
 583 424 583 424 602 431 c 1,344,345
 599 439 599 439 572 439 c 1,341,-1
145 450 m 1,346,347
 126 443 126 443 126 431 c 1,348,349
 143 431 143 431 154 445 c 128,-1,350
 165 459 165 459 165 477 c 0,351,352
 165 492 165 492 158 493 c 1,353,-1
 133 463 l 1,354,-1
 145 450 l 1,346,347
571 460 m 1,355,356
 571 448 571 448 618 448 c 1,357,358
 618 456 618 456 613.5 465 c 128,-1,359
 609 474 609 474 602 474 c 1,360,-1
 572 463 l 1,361,-1
 571 460 l 1,355,356
559 474 m 1,362,-1
 559 469 l 1,363,-1
 572 474 l 1,364,-1
 559 474 l 1,362,-1
162 520 m 1,365,366
 140 520 140 520 135.5 514.5 c 128,-1,367
 131 509 131 509 131 486 c 1,368,369
 143 486 143 486 152.5 497 c 128,-1,370
 162 508 162 508 162 520 c 1,365,366
565 506 m 1,371,372
 558 502 558 502 558 493 c 1,373,-1
 599 493 l 1,374,375
 599 511 599 511 587 533.5 c 128,-1,376
 575 556 575 556 559 556 c 0,377,378
 545 556 545 556 528 531 c 1,379,380
 542 533 542 533 552 533 c 0,381,382
 575 533 575 533 575 518 c 1,383,-1
 533 518 l 1,384,385
 533 505 533 505 552 505 c 0,386,387
 561 505 561 505 565 506 c 1,371,372
158 549 m 1,388,389
 138 539 138 539 138 531 c 1,390,-1
 158 531 l 1,391,-1
 158 549 l 1,388,389
503 549 m 1,392,-1
 503 540 l 1,393,394
 530 540 530 540 547 562 c 1,395,-1
 503 549 l 1,392,-1
159 582 m 1,396,397
 146 582 146 582 142 575.5 c 128,-1,398
 138 569 138 569 138 554 c 1,399,400
 147 554 147 554 153 562.5 c 128,-1,401
 159 571 159 571 159 582 c 1,396,397
459 567 m 1,402,403
 463 562 463 562 474 562 c 0,404,405
 486 562 486 562 486 581 c 1,406,407
 470 581 470 581 459 567 c 1,402,403
490 593 m 2,408,-1
 494 593 l 1,409,-1
 494 561 l 1,410,411
 497 558 497 558 541 574 c 1,412,413
 524 596 524 596 491.5 607.5 c 128,-1,414
 459 619 459 619 427 619 c 0,415,416
 407 619 407 619 399 617 c 1,417,418
 399 604 399 604 403 592 c 128,-1,419
 407 580 407 580 411 580 c 1,420,-1
 430 598 l 2,421,422
 431 598 431 598 434.5 597.5 c 2,423,-1
 438 597 l 1,424,425
 438 595 438 595 436.5 590 c 128,-1,426
 435 585 435 585 435 582 c 0,427,428
 435 575 435 575 442 574 c 1,429,430
 480 593 480 593 490 593 c 2,408,-1
424 587 m 0,431,432
 419 587 419 587 419 580 c 0,433,434
 419 574 419 574 424 574 c 0,435,436
 428 574 428 574 428 580 c 0,437,438
 428 587 428 587 424 587 c 0,431,432
354 625 m 1,439,440
 354 617 354 617 369 600 c 128,-1,441
 384 583 384 583 392 583 c 1,442,-1
 392 605 l 1,443,-1
 383 605 l 1,444,445
 383 619 383 619 378.5 622 c 128,-1,446
 374 625 374 625 354 625 c 1,439,440
345 631 m 1,447,448
 238 631 238 631 176 623 c 0,449,450
 170 623 170 623 164 609.5 c 128,-1,451
 158 596 158 596 145 593 c 1,452,453
 147 591 147 591 155 591 c 128,-1,454
 163 591 163 591 167.5 598.5 c 128,-1,455
 172 606 172 606 179 606 c 0,456,457
 184 606 184 606 192 602 c 128,-1,458
 200 598 200 598 204 598 c 0,459,460
 209 598 209 598 223 604.5 c 128,-1,461
 237 611 237 611 238 611 c 0,462,463
 240 611 240 611 262.5 608.5 c 128,-1,464
 285 606 285 606 287 605 c 0,465,466
 288 605 288 605 295 611 c 128,-1,467
 302 617 302 617 307 617 c 0,468,469
 308 617 308 617 316 611 c 2,470,-1
 324 605 l 1,471,472
 329 605 329 605 337 616 c 128,-1,473
 345 627 345 627 345 631 c 1,447,448
337 605 m 1,474,-1
 350 598 l 1,475,-1
 350 605 l 1,476,-1
 337 605 l 1,474,-1
133 623 m 1,477,478
 136 616 136 616 145 616 c 0,479,480
 156 616 156 616 158 623 c 1,481,-1
 133 623 l 1,477,478
152 660 m 0,482,483
 156 660 156 660 156 654 c 128,-1,484
 156 648 156 648 152 648 c 0,485,486
 147 648 147 648 147 654 c 128,-1,487
 147 660 147 660 152 660 c 0,482,483
EndSplineSet
EndChar

StartChar: Euro
Encoding: 8364 8364 17
Width: 654
Flags: MW
HStem: -2 37<370 527.5> -2 105<410.5 453 397.5 527.5> -2 223<413 443 343 527.5> 87 121<216.5 339> 87 165<259.5 339> 233 33<395 467 402 467> 326 68<351 386 351 461> 376 166<250.5 363> 498 44 523 106<381 477> 608 21<398 409.5 381 413.5> 620 20G<437 441>
VStem: 339 152<29 87> 486 118
LayerCount: 2
Fore
SplineSet
172 135 m 1,0,1
 163 164 163 164 146 178 c 1,2,3
 141 179 141 179 109.5 181.5 c 128,-1,4
 78 184 78 184 73 184 c 0,5,6
 62 185 62 185 51.5 191.5 c 128,-1,7
 41 198 41 198 27 198 c 1,8,9
 27 245 27 245 41 245 c 2,10,-1
 109 245 l 2,11,12
 123 245 123 245 123 282 c 0,13,14
 123 283 123 283 122.5 295.5 c 128,-1,15
 122 308 122 308 122 314 c 1,16,17
 59 317 59 317 59 349 c 0,18,19
 59 387 59 387 73 387 c 2,20,-1
 134 387 l 1,21,-1
 146 400 l 1,22,23
 148 413 148 413 165.5 454 c 128,-1,24
 183 495 183 495 190 505 c 1,25,26
 195 514 195 514 269 585 c 0,27,28
 316 629 316 629 405 629 c 0,29,30
 410 629 410 629 418.5 628.5 c 128,-1,31
 427 628 427 628 431 628 c 1,32,-1
 437 640 l 1,33,34
 447 640 447 640 468.5 637.5 c 128,-1,35
 490 635 490 635 525 629 c 128,-1,36
 560 623 560 623 584.5 606.5 c 128,-1,37
 609 590 609 590 609 567 c 0,38,39
 609 559 609 559 608 545 c 128,-1,40
 607 531 607 531 602 514.5 c 128,-1,41
 597 498 597 498 589 498 c 0,42,43
 565 498 565 498 521 510.5 c 128,-1,44
 477 523 477 523 454 523 c 0,45,46
 306 523 306 523 276 412 c 1,47,48
 284 394 284 394 363 394 c 0,49,50
 388 394 388 394 432.5 397 c 128,-1,51
 477 400 477 400 491 400 c 1,52,-1
 491 345 l 2,53,54
 491 338 491 338 479 332 c 128,-1,55
 467 326 467 326 461 326 c 2,56,-1
 251 326 l 1,57,-1
 248.5 316 l 2,58,59
 246 306 246 306 243.5 291.5 c 128,-1,60
 241 277 241 277 239 271 c 1,61,62
 239 252 239 252 266 252 c 0,63,64
 300 252 300 252 366.5 259 c 128,-1,65
 433 266 433 266 467 266 c 1,66,-1
 467 190 l 2,67,68
 467 184 467 184 448 184 c 0,69,70
 361 184 361 184 295 190 c 1,71,-1
 265 184 l 1,72,73
 279 141 279 141 326 122 c 128,-1,74
 373 103 373 103 427 103 c 0,75,76
 496 103 496 103 572 128 c 1,77,-1
 575 128.5 l 2,78,79
 578 129 578 129 579 129 c 0,80,81
 604 129 604 129 604 66 c 0,82,83
 604 21 604 21 579 9.5 c 128,-1,84
 554 -2 554 -2 488 -2 c 0,85,86
 372 -2 372 -2 309.5 25 c 128,-1,87
 247 52 247 52 172 135 c 1,0,1
448 36 m 1,88,89
 455 29 455 29 459 29 c 0,90,91
 462 29 462 29 466.5 34.5 c 128,-1,92
 471 40 471 40 475.5 47 c 2,93,-1
 480 54 l 1,94,95
 451 40 451 40 448 36 c 1,88,89
566 97 m 1,96,97
 546 86 546 86 518.5 64 c 128,-1,98
 491 42 491 42 491 36 c 2,99,-1
 491 29 l 1,100,101
 509 31 509 31 527 39.5 c 128,-1,102
 545 48 545 48 551 48 c 128,-1,103
 557 48 557 48 566 42 c 1,104,105
 573 43 573 43 573 57 c 0,106,107
 573 86 573 86 566 97 c 1,96,97
349 45 m 0,108,109
 349 35 349 35 375 35 c 0,110,111
 385 35 385 35 391 36 c 128,-1,112
 397 37 397 37 400.5 40.5 c 128,-1,113
 404 44 404 44 405.5 46 c 128,-1,114
 407 48 407 48 409.5 55.5 c 128,-1,115
 412 63 412 63 413 66 c 1,116,117
 397 73 397 73 387 73 c 1,118,119
 349 46 349 46 349 45 c 0,108,109
424 66 m 1,120,121
 417 50 417 50 417 40 c 1,122,123
 440 40 440 40 467 73 c 1,124,125
 441 71 441 71 424 66 c 1,120,121
339 87 m 1,126,127
 335 87 335 87 322.5 82 c 128,-1,128
 310 77 310 77 299.5 72 c 128,-1,129
 289 67 289 67 289 66 c 2,130,-1
 289 61 l 2,131,132
 289 58 289 58 305.5 52.5 c 128,-1,133
 322 47 322 47 330 47 c 1,134,135
 330 54 330 54 334.5 66.5 c 128,-1,136
 339 79 339 79 339 87 c 1,126,127
355 79 m 0,137,138
 342 79 342 79 342 60 c 1,139,140
 353 60 353 60 369 73 c 1,141,142
 366 79 366 79 355 79 c 0,137,138
251 91 m 1,143,144
 253 85 253 85 265 85 c 128,-1,145
 277 85 277 85 282 97 c 1,146,147
 279 97 279 97 272 97.5 c 128,-1,148
 265 98 265 98 263 98 c 0,149,150
 252 98 252 98 251 91 c 1,143,144
308 98 m 0,151,152
 294 98 294 98 294 88 c 1,153,154
 295 87 295 87 295 86 c 2,155,-1
 319 91 l 1,156,157
 317 98 317 98 308 98 c 0,151,152
276 115 m 0,158,159
 265 115 265 115 265 110 c 1,160,-1
 282 110 l 1,161,162
 282 115 282 115 276 115 c 0,158,159
218 144 m 1,163,164
 218 138 218 138 223 126.5 c 128,-1,165
 228 115 228 115 235 115 c 0,166,167
 249 115 249 115 257 123 c 1,168,169
 252 148 252 148 236 148 c 0,170,171
 230 148 230 148 227 147 c 1,172,173
 235 163 235 163 235 166 c 1,174,-1
 195 166 l 1,175,176
 195 145.593659554 195 145.593659554 203.142034243 144.217893653 c 0,177,178
 205.548666761 143.811243072 205.548666761 143.811243072 212.506295348 143.936804019 c 2,179,-1
 218 144 l 1,163,164
175 204 m 1,180,181
 175 190 175 190 187 190 c 128,-1,182
 199 190 199 190 208 197 c 1,183,184
 189 204 189 204 175 204 c 1,180,181
196 214 m 1,185,186
 203 208 203 208 221 208 c 0,187,188
 242 208 242 208 251 221 c 1,189,190
 244 228 244 228 227 228 c 1,191,192
 211 225 211 225 196 214 c 1,185,186
402 233 m 1,193,-1
 343 221 l 1,194,-1
 343 213 l 1,195,196
 393 213 393 213 405 233 c 1,197,-1
 402 233 l 1,193,-1
332 221 m 1,198,199
 332 224 332 224 319 224 c 0,200,201
 307 224 307 224 307 222 c 0,202,203
 307 218 307 218 319 218 c 0,204,205
 329 218 329 218 332 221 c 1,198,199
443 235 m 1,206,207
 424 235 424 235 413 221 c 1,208,-1
 443 221 l 1,209,-1
 443 235 l 1,206,207
146 239 m 1,210,211
 146 227 146 227 159 227 c 0,212,213
 169 227 169 227 184 233 c 1,214,215
 171 240 171 240 156 240 c 1,216,-1
 151.5 239.5 l 2,217,218
 147 239 147 239 146 239 c 1,210,211
165 258 m 1,219,220
 172 245 172 245 199 245 c 0,221,222
 214 245 214 245 214 252 c 0,223,224
 214 264 214 264 203 264 c 0,225,226
 182 264 182 264 165 258 c 1,219,220
152 282 m 1,227,228
 152 281 152 281 155 279 c 128,-1,229
 158 277 158 277 159 277 c 0,230,231
 167 277 167 277 172 282 c 1,232,-1
 152 282 l 1,227,228
172 302 m 1,233,234
 191 288 191 288 205 288 c 0,235,236
 217 288 217 288 217 309 c 1,237,238
 187 309 187 309 172 302 c 1,233,234
84 350 m 1,239,-1
 141 345 l 2,240,241
 142 344 142 344 146.5 337.5 c 128,-1,242
 151 331 151 331 156 325 c 2,243,-1
 161 319 l 1,244,245
 200 324 200 324 203 328 c 1,246,247
 203 330 203 330 199 332 c 128,-1,248
 195 334 195 334 186 337.5 c 128,-1,249
 177 341 177 341 168 344.5 c 128,-1,250
 159 348 159 348 143.5 353.5 c 128,-1,251
 128 359 128 359 116 363 c 1,252,-1
 110.5 362 l 2,253,254
 105 361 105 361 100 360 c 128,-1,255
 95 359 95 359 90 356.5 c 128,-1,256
 85 354 85 354 84 350 c 1,239,-1
258 376 m 0,257,258
 250 376 250 376 214.5 369.5 c 128,-1,259
 179 363 179 363 177 363 c 1,260,-1
 177 357 l 2,261,262
 177 352 177 352 192 348 c 128,-1,263
 207 344 207 344 219 344 c 0,264,265
 225 344 225 344 250 354.5 c 128,-1,266
 275 365 275 365 276 369 c 1,267,268
 269 376 269 376 258 376 c 0,257,258
437 369 m 2,269,270
 383 369 383 369 369 363 c 1,271,-1
 369 352 l 1,272,273
 439 352 439 352 456 369 c 1,274,-1
 437 369 l 2,269,270
332 363 m 1,275,276
 332 365 332 365 310 365 c 128,-1,277
 288 365 288 365 288 363 c 0,278,279
 288 360 288 360 310 360 c 0,280,281
 326 360 326 360 332 363 c 1,275,276
221 400 m 1,282,283
 199 400 199 400 177 387 c 1,284,-1
 214 387 l 1,285,-1
 221 400 l 1,282,283
248 523 m 0,286,287
 228 523 228 523 205.5 474 c 128,-1,288
 183 425 183 425 183 404 c 1,289,290
 198 404 198 404 239 419 c 1,291,292
 239 436 239 436 227 447 c 1,293,-1
 255 447 l 1,294,295
 255 456 255 456 262.5 469.5 c 128,-1,296
 270 483 270 483 270 494 c 0,297,298
 270 523 270 523 248 523 c 0,286,287
264 532 m 0,299,300
 264 529 264 529 273 516.5 c 128,-1,301
 282 504 282 504 286 504 c 1,302,303
 285 503 285 503 297 509 c 128,-1,304
 309 515 309 515 321 522.5 c 128,-1,305
 333 530 333 530 333 532 c 0,306,307
 333 540 333 540 317.5 544 c 128,-1,308
 302 548 302 548 291 548 c 0,309,310
 264 548 264 548 264 532 c 0,299,300
332 560 m 1,311,312
 340 546 340 546 344 544 c 128,-1,313
 348 542 348 542 363 542 c 1,314,315
 366 543 366 543 389.5 548 c 128,-1,316
 413 553 413 553 417 554 c 1,317,318
 413 562 413 562 405 568 c 128,-1,319
 397 574 397 574 393 574 c 1,320,-1
 393 554 l 1,321,322
 378 574 378 574 371 574 c 0,323,324
 370 574 370 574 366.5 571 c 128,-1,325
 363 568 363 568 363 567 c 1,326,327
 357 569 357 569 349.5 574 c 128,-1,328
 342 579 342 579 342 582 c 0,329,330
 342 584 342 584 343 585 c 1,331,332
 304 578 304 578 295 560 c 1,333,334
 311 553 311 553 320 553 c 128,-1,335
 329 553 329 553 332 560 c 1,311,312
553 560 m 1,336,-1
 548 542 l 1,337,-1
 560 542 l 1,338,-1
 553 560 l 1,336,-1
499 592 m 1,339,-1
 499 548 l 1,340,-1
 531 548 l 1,341,342
 530 553 530 553 523.5 567 c 128,-1,343
 517 581 517 581 517 585 c 1,344,-1
 535 567 l 1,345,346
 544 572 544 572 548 585 c 1,347,348
 531 592 531 592 499 592 c 1,339,-1
424 592 m 1,349,350
 427 589 427 589 439 570.5 c 128,-1,351
 451 552 451 552 462 552 c 1,352,353
 462 578 462 578 442.5 593 c 128,-1,354
 423 608 423 608 398 608 c 1,355,356
 398 579 398 579 424 573 c 1,357,-1
 424 592 l 1,349,350
447 604 m 1,358,359
 447 590 447 590 480 560 c 1,360,361
 486 561 486 561 486 573 c 0,362,363
 486 588 486 588 481 595 c 128,-1,364
 476 602 476 602 470.5 603 c 128,-1,365
 465 604 465 604 451.960443373 604.034811242 c 0,366,367
 449 604 449 604 447 604 c 1,358,359
377 593 m 1,368,369
 364 593 364 593 363 578 c 1,370,371
 377 582 377 582 377 593 c 1,368,369
EndSplineSet
EndChar

StartChar: F
Encoding: 70 70 18
Width: 495
Flags: MW
HStem: -31 21G<84.5 99> -25 21G<151.5 157.5> -19 21G<140 142> 276 32<293.5 352.5> 302 61 326 37<277.5 339 277.5 377> 567 93<314 427.5 367 487> 616 44
VStem: 74 28<373.5 375> 123 37<266.5 325.5> 138 22 151 21<62 65 65 90 85 97.5 137 146>
LayerCount: 2
Fore
SplineSet
67 -7 m 0,0,1
 67 20 67 20 73.5 78 c 128,-1,2
 80 136 80 136 80 164 c 2,3,-1
 80 216 l 1,4,-1
 74 222 l 1,5,-1
 74 616 l 1,6,7
 66 618 66 618 66 630 c 0,8,9
 66 651 66 651 80 654 c 0,10,11
 81 654 81 654 95 651 c 128,-1,12
 109 648 109 648 110 648 c 0,13,14
 118 648 118 648 124 654 c 1,15,-1
 124 649 l 1,16,17
 172 649 172 649 269.5 654.5 c 128,-1,18
 367 660 367 660 416 660 c 0,19,20
 487 660 487 660 487 630 c 2,21,-1
 487 567 l 2,22,23
 487 562 487 562 476 562 c 0,24,25
 450 562 450 562 398.5 564.5 c 128,-1,26
 347 567 347 567 321 567 c 0,27,28
 314 567 314 567 301 564.5 c 128,-1,29
 288 562 288 562 280 562 c 0,30,31
 278 562 278 562 264 563.5 c 128,-1,32
 250 565 250 565 236 566 c 128,-1,33
 222 567 222 567 206.5 567 c 128,-1,34
 191 567 191 567 181.5 562.5 c 128,-1,35
 172 558 172 558 172 549 c 2,36,-1
 172 468 l 1,37,38
 171 468 171 468 169 463.5 c 128,-1,39
 167 459 167 459 167 457 c 0,40,41
 167 381 167 381 178 370 c 1,42,43
 220 363 220 363 298 363 c 0,44,45
 310 363 310 363 332 363.5 c 128,-1,46
 354 364 354 364 364 364 c 0,47,48
 365 364 365 364 384.5 354 c 128,-1,49
 404 344 404 344 408 344 c 0,50,51
 409 344 409 344 415 348 c 128,-1,52
 421 352 421 352 426 352 c 128,-1,53
 431 352 431 352 431 345 c 1,54,55
 424 336 424 336 421 329.5 c 128,-1,56
 418 323 418 323 417.5 319.5 c 128,-1,57
 417 316 417 316 416 307 c 128,-1,58
 415 298 415 298 413 290 c 0,59,60
 410 276 410 276 342 276 c 0,61,62
 316 276 316 276 272.5 286 c 128,-1,63
 229 296 229 296 203 296 c 0,64,65
 195 296 195 296 190.5 299 c 128,-1,66
 186 302 186 302 185 302 c 0,67,68
 169 302 169 302 164.5 297 c 128,-1,69
 160 292 160 292 160 275 c 0,70,71
 160 249 160 249 163 205 c 128,-1,72
 166 161 166 161 172 160 c 1,73,-1
 172 -12 l 2,74,75
 172 -25 172 -25 154 -25 c 0,76,77
 146.5 -25 146.5 -25 142 -19 c 0,78,79
 141 -19 141 -19 132 -22 c 128,-1,80
 123 -25 123 -25 110.5 -28 c 128,-1,81
 98 -31 98 -31 88 -31 c 0,82,83
 83 -31 83 -31 75 -21.5 c 128,-1,84
 67 -12 67 -12 67 -7 c 0,0,1
117 31 m 1,85,86
 109 27 109 27 109 3 c 1,87,88
 135 3 135 3 143 18.5 c 128,-1,89
 151 34 151 34 151 62 c 2,90,-1
 151 90 l 2,91,92
 151 119 151 119 148 124 c 1,93,-1
 128 132 l 1,94,-1
 150 132 l 1,95,96
 150 133 150 133 150.5 135 c 128,-1,97
 151 137 151 137 151 138 c 0,98,99
 151 145 151 145 146.5 170.5 c 128,-1,100
 142 196 142 196 142 209 c 1,101,102
 120 224 120 224 103 224 c 1,103,104
 103 218 103 218 102.5 202 c 128,-1,105
 102 186 102 186 102 177 c 0,106,107
 102 107 102 107 135 96 c 1,108,-1
 110 96 l 1,109,-1
 110 37 l 1,110,-1
 117 31 l 1,85,86
103 277 m 1,111,112
 103 257 103 257 104.5 249 c 128,-1,113
 106 241 106 241 113.5 234.5 c 128,-1,114
 121 228 121 228 138 228 c 1,115,116
 138 244 138 244 132.5 255.5 c 128,-1,117
 127 267 127 267 127 277 c 1,118,-1
 103 277 l 1,111,112
99 302 m 1,119,120
 101 286 101 286 131 286 c 1,121,122
 131 295 131 295 127 303 c 128,-1,123
 123 311 123 311 123 319 c 0,124,125
 123 326 123 326 129.5 329 c 128,-1,126
 136 332 136 332 136 337 c 1,127,128
 135 338 135 338 135 339 c 1,129,130
 134 339 134 339 127.5 336 c 128,-1,131
 121 333 121 333 117.5 330.5 c 128,-1,132
 114 328 114 328 108.5 324.5 c 128,-1,133
 103 321 103 321 100.5 316 c 128,-1,134
 98 311 98 311 98 306 c 1,135,-1
 98.5 304 l 1,136,-1
 99 302 l 1,119,120
277 315 m 1,137,138
 283 308 283 308 297 308 c 0,139,140
 312 308 312 308 316.5 313.5 c 128,-1,141
 321 319 321 319 321 334 c 1,142,143
 288 334 288 334 277 315 c 1,137,138
339 326 m 1,144,-1
 339 307 l 1,145,146
 377 307 377 307 377 326 c 1,147,-1
 339 326 l 1,144,-1
144 341 m 1,148,149
 144 332 144 332 147.5 328.5 c 128,-1,150
 151 325 151 325 157 322 c 128,-1,151
 163 319 163 319 167 315 c 1,152,153
 223 315 223 315 234 333 c 1,154,155
 228 332 228 332 218 332 c 0,156,157
 203 332 203 332 180.5 336.5 c 128,-1,158
 158 341 158 341 144 341 c 1,148,149
259 334 m 0,159,160
 249 334 249 334 240 321 c 1,161,-1
 271 321 l 1,162,163
 271 334 271 334 259 334 c 0,159,160
97 359 m 1,164,165
 97 338 97 338 110 338 c 0,166,167
 124 338 124 338 135 352 c 1,168,169
 121 359 121 359 97 359 c 1,164,165
104 370 m 1,170,171
 116 364 116 364 133 364 c 0,172,173
 137 364 137 364 142.5 369.5 c 128,-1,174
 148 375 148 375 148 377 c 0,175,176
 148 383 148 383 138 394.5 c 128,-1,177
 128 406 128 406 124 407 c 1,178,179
 130 405 130 405 132 405 c 0,180,181
 142 405 142 405 142 420 c 0,182,183
 142 428 142 428 138.5 435 c 128,-1,184
 135 442 135 442 135 444 c 0,185,186
 135 458 135 458 145 489 c 128,-1,187
 155 520 155 520 155 536 c 1,188,189
 136 536 136 536 117 543 c 1,190,191
 117 551 117 551 148 551 c 1,192,-1
 148 579 l 1,193,194
 131 579 131 579 128 587 c 1,195,196
 137 587 137 587 139.5 589 c 128,-1,197
 142 591 142 591 142 597 c 0,198,199
 142 609 142 609 135 611 c 1,200,-1
 142 616 l 1,201,-1
 91 616 l 1,202,203
 91 608 91 608 99.5 601.5 c 128,-1,204
 108 595 108 595 117 592 c 1,205,206
 105 592 105 592 101.5 590 c 128,-1,207
 98 588 98 588 98 580 c 0,208,209
 98 575 98 575 101.5 563 c 128,-1,210
 105 551 105 551 105 544 c 0,211,212
 105 541 105 541 105 533 c 128,-1,213
 105 525 105 525 105 522.5 c 128,-1,214
 105 520 105 520 106 513.5 c 128,-1,215
 107 507 107 507 109 504 c 128,-1,216
 111 501 111 501 114.5 496.5 c 128,-1,217
 118 492 118 492 124 488 c 1,218,-1
 104 488 l 1,219,220
 114 468 114 468 113.5 462.5 c 128,-1,221
 113 457 113 457 108 449 c 128,-1,222
 103 441 103 441 103 433 c 0,223,224
 103 413 103 413 113 413 c 0,225,226
 115 413 115 413 117 414 c 1,227,228
 114 415 114 415 110 415 c 0,229,230
 97 415 97 415 97 398 c 0,231,232
 97 382 97 382 107 382 c 0,233,234
 108 382 108 382 108.5 382.5 c 2,235,-1
 110 383 l 1,236,237
 110 381 110 381 106 378 c 128,-1,238
 102 375 102 375 102 374 c 2,239,-1
 104 370 l 1,170,171
197 611 m 1,240,241
 189 607 189 607 185 587 c 1,242,243
 188 586 188 586 193 586 c 0,244,245
 203 586 203 586 203 597 c 0,246,247
 203 609 203 609 197 611 c 1,240,241
431 605 m 1,248,249
 431 595 431 595 464 595 c 1,250,251
 464 617 464 617 450 617 c 0,252,253
 438 617 438 617 431 605 c 1,248,249
283 611 m 0,254,255
 283 604 283 604 295 604 c 0,256,257
 306 604 306 604 334 623 c 1,258,-1
 291 623 l 2,259,260
 289 623 289 623 286 618 c 128,-1,261
 283 613 283 613 283 611 c 0,254,255
376 611 m 0,262,263
 376 610 376 610 378.5 607.5 c 128,-1,264
 381 605 381 605 382 605 c 2,265,-1
 392.5 609 l 2,266,267
 403 613 403 613 408.5 618 c 128,-1,268
 414 623 414 623 414 630 c 1,269,-1
 382 630 l 1,270,-1
 380.5 626.5 l 2,271,272
 379 623 379 623 377.5 618 c 128,-1,273
 376 613 376 613 376 611 c 0,262,263
EndSplineSet
EndChar

StartChar: G
Encoding: 71 71 19
Width: 627
Flags: MW
HStem: -29 41 -19 21G<470 496.5> -12 21G<453 456.5> 32 23 212 35 278 30<429 483 429 429 498 528 528 536.5 416 546 498 498> 543 62 568 37<356 374 354 402> 636 32<310 405.5 319.5 337>
VStem: 28 32 28 104<272 341.5 238 407 238 407> 391 117 552 25<254.5 272>
LayerCount: 2
Fore
SplineSet
207 -6 m 1,0,1
 208 -5 208 -5 201 1.5 c 128,-1,2
 194 8 194 8 183 17 c 128,-1,3
 172 26 172 26 161 35 c 128,-1,4
 150 44 150 44 141 50 c 128,-1,5
 132 56 132 56 130 56 c 0,6,7
 121 56 121 56 115 50 c 1,8,9
 115 57 115 57 75.5 117.5 c 128,-1,10
 36 178 36 178 34 198 c 0,11,12
 33 203 33 203 33 212 c 0,13,14
 33 218 33 218 33.5 227.5 c 128,-1,15
 34 237 34 237 34 241 c 0,16,17
 34 258 34 258 28 272 c 1,18,-1
 28 407 l 1,19,20
 37 417 37 417 44 459 c 128,-1,21
 51 501 51 501 59 513 c 0,22,23
 161 668 161 668 388 668 c 0,24,25
 463 668 463 668 463 648 c 1,26,-1
 498 648 l 1,27,28
 499 641 499 641 519 641 c 1,29,-1
 526.5 638.5 l 2,30,31
 534 636 534 636 543.5 631.5 c 128,-1,32
 553 627 553 627 558 623 c 0,33,34
 558 622 558 622 557.5 621.5 c 2,35,-1
 557 620 l 1,36,37
 557 616 557 616 561.5 613.5 c 128,-1,38
 566 611 566 611 566 588 c 0,39,40
 566 543 566 543 547 543 c 0,41,42
 517 543 517 543 459.5 555.5 c 128,-1,43
 402 568 402 568 373 568 c 0,44,45
 341 568 341 568 281 543 c 0,46,47
 132 483 132 483 132 283 c 0,48,49
 132 234 132 234 143.5 190 c 128,-1,50
 155 146 155 146 184.5 110 c 128,-1,51
 214 74 214 74 257 67 c 1,52,53
 368 55 368 55 410 55 c 0,54,55
 415 55 415 55 438.5 55.5 c 128,-1,56
 462 56 462 56 466 56 c 1,57,58
 483 67 483 67 483 111 c 0,59,60
 483 132 483 132 472 191 c 0,61,62
 467 213 467 213 443 213 c 0,63,64
 441 213 441 213 436.5 212.5 c 128,-1,65
 432 212 432 212 429 212 c 0,66,67
 411 212 411 212 401 223.5 c 128,-1,68
 391 235 391 235 391 271 c 0,69,70
 391 309 391 309 409 309 c 0,71,72
 413 309 413 309 416 308 c 1,73,-1
 528 308 l 2,74,75
 577 308 577 308 577 296 c 2,76,-1
 577 50 l 2,77,78
 577 13 577 13 546 -3 c 128,-1,79
 515 -19 515 -19 475 -19 c 0,80,81
 470 -19 470 -19 463 -15.5 c 128,-1,82
 456 -12 456 -12 453 -12 c 1,83,84
 432 -29 432 -29 355 -29 c 0,85,86
 352 -29 352 -29 335.5 -29 c 128,-1,87
 319 -29 319 -29 314 -29 c 128,-1,88
 309 -29 309 -29 294.5 -28.5 c 128,-1,89
 280 -28 280 -28 273.5 -27 c 128,-1,90
 267 -26 267 -26 255 -24.5 c 128,-1,91
 243 -23 243 -23 236.5 -20.5 c 128,-1,92
 230 -18 230 -18 221.5 -14.5 c 128,-1,93
 213 -11 213 -11 207 -6 c 1,0,1
306 12 m 1,94,-1
 305 11 l 1,95,96
 305 4 305 4 343 4 c 1,97,98
 343 32 343 32 313 32 c 0,99,100
 311 32 311 32 308.5 24.5 c 128,-1,101
 306 17 306 17 306 12 c 1,94,-1
347 25 m 1,102,103
 347 6 347 6 365 6 c 0,104,105
 384 6 384 6 392 12 c 1,106,-1
 459 12 l 1,107,-1
 466 19 l 1,108,109
 391 24 391 24 361 24 c 0,110,111
 360 24 360 24 354 24.5 c 128,-1,112
 348 25 348 25 347 25 c 1,102,103
213 24 m 1,113,114
 221 12 221 12 242 12 c 0,115,116
 251 12 251 12 255 20 c 128,-1,117
 259 28 259 28 262 31 c 1,118,119
 260 37 260 37 247 37 c 0,120,121
 218 37 218 37 213 24 c 1,113,114
301 36 m 1,122,123
 282 36 282 36 274.5 30 c 128,-1,124
 267 24 267 24 267 8 c 1,125,126
 286 8 286 8 293.5 13.5 c 128,-1,127
 301 19 301 19 301 36 c 1,122,123
478 24 m 1,128,129
 485 18 485 18 499 18 c 0,130,131
 534 18 534 18 540 31 c 1,132,133
 527 37 527 37 508 37 c 0,134,135
 488 37 488 37 478 24 c 1,128,129
95 124 m 1,136,137
 104 116 104 116 125 91 c 128,-1,138
 146 66 146 66 165 51 c 128,-1,139
 184 36 184 36 205 36 c 0,140,141
 207 36 207 36 219 43 c 1,142,143
 218 44 218 44 215.5 47 c 2,144,-1
 213 50 l 1,145,146
 199 57 199 57 198.5 64 c 128,-1,147
 198 71 198 71 195 74 c 0,148,149
 184 85 184 85 174 86 c 128,-1,150
 164 87 164 87 157 99 c 0,151,152
 149 112 149 112 125.5 164.5 c 128,-1,153
 102 217 102 217 102 228 c 0,154,155
 102 229 102 229 105 231.5 c 128,-1,156
 108 234 108 234 108 237 c 0,157,158
 108 247 108 247 95 265 c 1,159,-1
 108 272 l 1,160,-1
 108 315 l 2,161,162
 108 322 108 322 76 322 c 1,163,-1
 83 326 l 1,164,-1
 76 334 l 1,165,-1
 108 334 l 1,166,-1
 108 348 l 1,167,-1
 102 364 l 1,168,169
 88 373 88 373 88 385 c 1,170,171
 46 385 46 385 46 377 c 2,172,-1
 46 326 l 1,173,174
 55 325 55 325 55 315 c 0,175,176
 55 312 55 312 54 305 c 128,-1,177
 53 298 53 298 53 295 c 0,178,179
 53 282 53 282 70 282 c 0,180,181
 78 282 78 282 83 283 c 1,182,183
 80 278 80 278 65.5 273.5 c 128,-1,184
 51 269 51 269 51 259 c 0,185,186
 51 254 51 254 55.5 244 c 128,-1,187
 60 234 60 234 60 224 c 0,188,189
 60 216 60 216 59.5 201.5 c 128,-1,190
 59 187 59 187 59 186 c 0,191,192
 63 184 63 184 65.5 177 c 128,-1,193
 68 170 68 170 69 163 c 128,-1,194
 70 156 70 156 71 155 c 0,195,196
 73 151 73 151 84.5 139.5 c 128,-1,197
 96 128 96 128 96 127 c 2,198,-1
 95 124 l 1,136,137
508 59 m 0,199,200
 508 57 508 57 522 50 c 128,-1,201
 536 43 536 43 540 43 c 0,202,203
 549 43 549 43 549 69 c 1,204,205
 508 69 508 69 508 59 c 0,199,200
515 99 m 1,206,-1
 515 86 l 1,207,-1
 546 86 l 1,208,-1
 546 111 l 1,209,-1
 515 99 l 1,206,-1
509 121 m 1,210,-1
 509 110 l 1,211,212
 541 110 541 110 546 143 c 1,213,214
 525 143 525 143 515 130 c 1,215,-1
 528 131 l 1,216,-1
 522 123 l 1,217,-1
 509 121 l 1,210,-1
527 167 m 1,218,219
 525 163 525 163 515.5 158 c 128,-1,220
 506 153 506 153 506 144 c 1,221,222
 552.747883478 144 552.747883478 144 552.051812172 261.787363529 c 0,223,224
 552 270.554883571 552 270.554883571 552 272 c 1,225,-1
 546 278 l 1,226,-1
 498 278 l 1,227,-1
 472 248 l 1,228,-1
 475 247.5 l 1,229,-1
 478 247 l 1,230,231
 486 247 486 247 499 252.5 c 128,-1,232
 512 258 512 258 520 258 c 1,233,234
 520 251 520 251 510.5 238 c 128,-1,235
 501 225 501 225 501 216 c 1,236,-1
 538 216 l 1,237,238
 538 205 538 205 522.5 190.5 c 128,-1,239
 507 176 507 176 507 167 c 1,240,-1
 527 167 l 1,218,219
525 210 m 2,241,242
 498 210 498 210 498 186 c 1,243,-1
 509 186 l 1,244,-1
 527 210 l 1,245,-1
 525 210 l 2,241,242
469 259 m 2,246,247
 456 259 456 259 441 241 c 1,248,-1
 444 240 l 2,249,250
 447 240 447 240 472 259 c 1,251,-1
 469 259 l 2,246,247
416 253 m 1,252,253
 416 248 416 248 426 248 c 0,254,255
 432 248 432 248 454.5 260.5 c 128,-1,256
 477 273 477 273 483 278 c 1,257,-1
 429 278 l 1,258,-1
 416 253 l 1,252,253
51 414 m 1,259,260
 51 396 51 396 65 396 c 2,261,-1
 109 396 l 1,262,263
 109 412 109 412 90 426 c 1,264,-1
 93 426 l 1,265,-1
 97.5 424.5 l 2,266,267
 102 423 102 423 107 421.5 c 128,-1,268
 112 420 112 420 115 420 c 1,269,270
 110 429 110 429 110 433 c 128,-1,271
 110 437 110 437 118.5 439 c 128,-1,272
 127 441 127 441 127 446 c 0,273,274
 127 452 127 452 123 459.5 c 128,-1,275
 119 467 119 467 119 472 c 2,276,-1
 119.5 476.5 l 2,277,278
 120 481 120 481 120 482 c 2,279,-1
 139 463 l 1,280,281
 143 465 143 465 157 493 c 1,282,283
 143 500 143 500 139 506 c 1,284,285
 146 507 146 507 146 520 c 0,286,287
 146 523 146 523 145.5 526 c 128,-1,288
 145 529 145 529 145 531 c 128,-1,289
 145 533 145 533 144.5 535 c 2,290,-1
 144 537 l 1,291,292
 157 518 157 518 169 518 c 0,293,294
 174 518 174 518 177.5 521 c 128,-1,295
 181 524 181 524 184 530 c 128,-1,296
 187 536 187 536 188.5 541 c 128,-1,297
 190 546 190 546 192 553 c 128,-1,298
 194 560 194 560 195 562 c 1,299,300
 199 547 199 547 207 543 c 1,301,302
 213 546 213 546 213 555 c 0,303,304
 213 572 213 572 199 583 c 0,305,306
 199 584 199 584 199.5 585 c 128,-1,307
 200 586 200 586 200 587 c 2,308,-1
 219 574 l 1,309,-1
 226 580 l 1,310,-1
 219 611 l 1,311,312
 209 607 209 607 203 600 c 128,-1,313
 197 593 197 593 194.5 587 c 128,-1,314
 192 581 192 581 188 568 c 1,315,316
 185 580 185 580 176 587 c 1,317,318
 142 562 142 562 142 556 c 0,319,320
 142 555 142 555 153 552 c 128,-1,321
 164 549 164 549 164 548 c 2,322,-1
 162.5 546 l 2,323,324
 161 544 161 544 161 543 c 1,325,-1
 126 543 l 2,326,327
 123 543 123 543 109 528.5 c 128,-1,328
 95 514 95 514 90 506 c 1,329,330
 86 502 86 502 76 479 c 128,-1,331
 66 456 66 456 58 435 c 128,-1,332
 50 414 50 414 51 414 c 1,259,260
237 600 m 1,333,334
 237 567 237 567 246 567 c 0,335,336
 259 567 259 567 268 580 c 1,337,338
 252 600 252 600 237 600 c 1,333,334
293 630 m 1,339,340
 281 592 281 592 281 579 c 1,341,342
 290 579 290 579 298 585.5 c 128,-1,343
 306 592 306 592 306 601 c 0,344,345
 306 631 306 631 296 631 c 1,346,-1
 293 630 l 1,339,340
498 587 m 1,347,348
 504 579 504 579 537 579 c 1,349,350
 537 586 537 586 528.5 596.5 c 128,-1,351
 520 607 520 607 518 607 c 1,352,353
 518 608 518 608 513.5 604 c 128,-1,354
 509 600 509 600 504 595 c 128,-1,355
 499 590 499 590 498 587 c 1,347,348
243 617 m 1,356,357
 246 614 246 614 251 610 c 128,-1,358
 256 606 256 606 261 602.5 c 128,-1,359
 266 599 266 599 268 598 c 1,360,361
 281 620 281 620 281 636 c 1,362,363
 251 628 251 628 243 617 c 1,356,357
435 617 m 1,364,365
 427 614 427 614 427 598 c 1,366,-1
 442 598 l 1,367,368
 442 610 442 610 435 617 c 1,364,365
361 630 m 1,369,370
 354 620 354 620 354 605 c 1,371,-1
 374 605 l 1,372,373
 367 626 367 626 361 630 c 1,369,370
310 636 m 1,374,375
 310 629 310 629 317.5 619.5 c 128,-1,376
 325 610 325 610 328 610 c 0,377,378
 337 610 337 610 337 636 c 1,379,-1
 310 636 l 1,374,375
392 630 m 1,380,-1
 398 617 l 1,381,382
 405 619 405 619 405 630 c 1,383,-1
 392 630 l 1,380,-1
EndSplineSet
EndChar

StartChar: H
Encoding: 72 72 20
Width: 709
Flags: MW
HStem: -25 21G<129 145> -7 43<563 630> 139 145<104.5 124> 297 21 297 41 297 91 631 22 640 20G
VStem: 67 22 67 79 130 30 437 135<332 341.5 332 346.5> 527 23<158 175 158 220.5> 543 72 604 24 616 25<157.5 173>
LayerCount: 2
Fore
SplineSet
73 12 m 1,0,1
 67 146 67 146 67 518 c 1,2,3
 59 545 59 545 59 594 c 0,4,5
 59 599 59 599 59.5 621.5 c 128,-1,6
 60 644 60 644 60 648 c 1,7,-1
 67 653 l 1,8,-1
 141 653 l 1,9,-1
 155 641 l 2,10,11
 155 640 155 640 151 636 c 128,-1,12
 147 632 147 632 147 629 c 0,13,14
 147 614 147 614 153.5 581 c 128,-1,15
 160 548 160 548 160 537 c 0,16,17
 160 534 160 534 160.5 511 c 128,-1,18
 161 488 161 488 161 472 c 0,19,20
 161 462 161 462 161 451.5 c 128,-1,21
 161 441 161 441 160.5 432.5 c 128,-1,22
 160 424 160 424 160 417.5 c 128,-1,23
 160 411 160 411 160 407 c 2,24,-1
 160 403 l 2,25,26
 160 394 160 394 167 394 c 0,27,28
 168 394 168 394 171 394.5 c 128,-1,29
 174 395 174 395 176 395 c 0,30,31
 188 395 188 395 215 391.5 c 128,-1,32
 242 388 242 388 270 388 c 0,33,34
 286 388 286 388 310.5 391.5 c 128,-1,35
 335 395 335 395 338 395 c 0,36,37
 354 395 354 395 383.5 391.5 c 128,-1,38
 413 388 413 388 428 388 c 0,39,40
 480 388 480 388 542 408 c 1,41,42
 542 412 542 412 542.5 439 c 128,-1,43
 543 466 543 466 543 472 c 0,44,45
 543 496 543 496 539 544 c 128,-1,46
 535 592 535 592 535 617 c 0,47,48
 535 629 535 629 535.5 634.5 c 128,-1,49
 536 640 536 640 540 644 c 128,-1,50
 544 648 544 648 547 649 c 128,-1,51
 550 650 550 650 562.5 653.5 c 128,-1,52
 575 657 575 657 585 660 c 1,53,54
 594 660 594 660 604.5 650 c 128,-1,55
 615 640 615 640 623 640 c 1,56,57
 623 633 623 633 615 629 c 1,58,-1
 615 599 l 2,59,60
 615 577 615 577 624.5 535 c 128,-1,61
 634 493 634 493 634 475 c 0,62,63
 634 474 634 474 631 465 c 2,64,-1
 628 456 l 1,65,66
 628 441 628 441 631.5 417 c 128,-1,67
 635 393 635 393 635 382 c 0,68,69
 635 376 635 376 634.5 367.5 c 128,-1,70
 634 359 634 359 634 358 c 0,71,72
 640 357 640 357 644 305 c 128,-1,73
 648 253 648 253 648 227 c 0,74,75
 648 204 648 204 641 203 c 1,76,-1
 641 0 l 2,77,78
 641 -7 641 -7 627 -7 c 128,-1,79
 613 -7 613 -7 577 2 c 128,-1,80
 541 11 541 11 536 12 c 0,81,82
 526 13 526 13 526 72 c 0,83,84
 526 85 526 85 526.5 117.5 c 128,-1,85
 527 150 527 150 527 167 c 0,86,87
 527 171 527 171 527.015501914 179.338402889 c 0,88,89
 527 209 527 209 526.5 222 c 128,-1,90
 526 235 526 235 522.5 252 c 128,-1,91
 519 269 519 269 513 274 c 128,-1,92
 507 279 507 279 493 285.5 c 128,-1,93
 479 292 479 292 460.5 293.5 c 128,-1,94
 442 295 442 295 412 295 c 1,95,96
 408 304 408 304 402 304 c 0,97,98
 400 304 400 304 397 299.5 c 128,-1,99
 394 295 394 295 394 292 c 1,100,-1
 313 292 l 1,101,-1
 160 303 l 1,102,-1
 147 295 l 1,103,104
 146 264 146 264 146 253 c 0,105,106
 146 209 146 209 153 120 c 128,-1,107
 160 31 160 31 160 -14 c 0,108,109
 160 -25 160 -25 141 -25 c 0,110,111
 104 -25 104 -25 73 12 c 1,0,1
92 55 m 1,112,-1
 92 20 l 1,113,114
 130 20 130 20 130 100 c 1,115,-1
 122 95.5 l 2,116,117
 114 91 114 91 105 85 c 128,-1,118
 96 79 96 79 96 75 c 0,119,120
 96 74 96 74 97 74 c 2,121,-1
 103 62 l 1,122,-1
 92 55 l 1,112,-1
554 66 m 1,123,124
 554 36 554 36 570 36 c 0,125,126
 580 36 580 36 593.5 49.5 c 128,-1,127
 607 63 607 63 610 74 c 1,128,129
 601 74 601 74 583 70 c 128,-1,130
 565 66 565 66 554 66 c 1,123,124
611 51 m 1,131,132
 600 51 600 51 598 36 c 1,133,134
 611 36 611 36 611 51 c 1,131,132
610 118 m 1,135,136
 569 83 569 83 567 79 c 1,137,-1
 579 79 l 2,138,139
 610 79 610 79 610 86 c 2,140,-1
 610 118 l 1,135,136
124 139 m 1,141,142
 99 139 99 139 94 133 c 128,-1,143
 89 127 89 127 88.9357247603 101.925992968 c 0,144,145
 89 96 89 96 89 92 c 1,146,147
 124 92 124 92 124 139 c 1,141,142
554 121 m 0,148,149
 554 111 554 111 560 93 c 1,150,151
 572 93 572 93 586.5 107 c 128,-1,152
 601 121 601 121 610 136 c 1,153,-1
 603 136 l 2,154,155
 554 136 554 136 554 121 c 0,148,149
615 185 m 1,156,157
 592 176 592 176 560 142 c 1,158,159
 616 142 616 142 616 172 c 0,160,161
 616 173 616 173 615.5 179 c 2,162,-1
 615 185 l 1,156,157
92 203 m 2,163,-1
 92 160 l 2,164,165
 92 154 92 154 103.5 150.5 c 128,-1,166
 115 147 115 147 121 147 c 1,167,-1
 121 172 l 1,168,-1
 110 167 l 1,169,170
 122 185 122 185 125.5 194.5 c 128,-1,171
 129 204 129 204 129 225 c 128,-1,172
 129 246 129 246 120 260 c 1,173,174
 120 269 120 269 135 284 c 1,175,176
 100 279 100 279 85 260 c 1,177,178
 97 228 97 228 97 214 c 0,179,180
 97 212 97 212 94.5 208 c 128,-1,181
 92 204 92 204 92 203 c 2,163,-1
612 204 m 1,182,183
 550 204 550 204 550 158 c 1,184,185
 565 158 565 158 588.5 173.5 c 128,-1,186
 612 189 612 189 612 204 c 1,182,183
615 271 m 1,187,188
 615 269 615 269 591 239.5 c 2,189,-1
 567 210 l 1,190,-1
 567 202 l 1,191,192
 586 202 586 202 604.5 215.5 c 128,-1,193
 623 229 623 229 623 246 c 0,194,195
 623 262 623 262 615 271 c 1,187,188
542 246 m 0,196,197
 542 242 542 242 545.5 232 c 128,-1,198
 549 222 549 222 549 219 c 1,199,200
 567 219 567 219 591 271 c 1,201,202
 590 271 590 271 585 271.5 c 128,-1,203
 580 272 580 272 579 272 c 0,204,205
 567 272 567 272 554.5 265 c 128,-1,206
 542 258 542 258 542 246 c 0,196,197
96 292 m 2,207,-1
 103 284 l 1,208,209
 126 284 126 284 142.5 310.5 c 128,-1,210
 159 337 159 337 178 338 c 1,211,-1
 178 325 l 1,212,213
 208 325 208 325 233 338 c 1,214,-1
 233 332 l 1,215,216
 256 332 256 332 270 346 c 1,217,218
 263 332 263 332 263 325 c 1,219,220
 271 325 271 325 288 338 c 1,221,222
 288 327 288 327 295 327 c 0,223,224
 298 327 298 327 305 329.5 c 128,-1,225
 312 332 312 332 313 332 c 1,226,-1
 313 318 l 1,227,228
 380 318 380 318 424 370 c 1,229,230
 417 377 417 377 406 377 c 1,231,232
 365 371 365 371 362 338 c 1,233,-1
 357 338 l 1,234,-1
 357 364 l 1,235,236
 347 350 347 350 332 346 c 1,237,-1
 344 370 l 2,238,239
 344 372 344 372 337.5 377 c 128,-1,240
 331 382 331 382 327 382 c 1,241,242
 326 378 326 378 323.5 374 c 128,-1,243
 321 370 321 370 317 366.5 c 128,-1,244
 313 363 313 363 309.5 360.5 c 128,-1,245
 306 358 306 358 301 355 c 128,-1,246
 296 352 296 352 295 351 c 1,247,248
 290 364 290 364 264 364 c 1,249,-1
 264 371 l 1,250,251
 259 371 259 371 251.5 367.5 c 128,-1,252
 244 364 244 364 240 364 c 0,253,254
 234 364 234 364 231.5 367 c 128,-1,255
 229 370 229 370 227 370 c 0,256,257
 197 370 197 370 156 345 c 128,-1,258
 115 320 115 320 97 295 c 0,259,260
 96 293 96 293 96 292 c 2,207,-1
572 290 m 1,261,262
 575 283 575 283 587 283 c 0,263,264
 623 283 623 283 623 312 c 0,265,266
 623 314 623 314 620.5 317 c 128,-1,267
 618 320 618 320 615 320 c 0,268,269
 602 320 602 320 572 290 c 1,261,262
128 352 m 1,270,271
 111 351 111 351 101 341.5 c 128,-1,272
 91 332 91 332 91 324 c 0,273,274
 91 322 91 322 91.5 316 c 128,-1,275
 92 310 92 310 92 309 c 2,276,-1
 128 346 l 1,277,-1
 128 352 l 1,270,271
436 358 m 1,278,279
 408 347 408 347 388 320 c 1,280,281
 425.032090883 320 425.032090883 320 432.361618033 329.451572049 c 0,282,283
 437 335.432858488 437 335.432858488 437 346 c 2,284,-1
 436.5 351.5 l 2,285,286
 436 357 436 357 436 358 c 1,278,279
517 370 m 1,287,288
 514 364 514 364 496.5 346.5 c 128,-1,289
 479 329 479 329 479 320 c 1,290,-1
 510 320 l 2,291,292
 512 320 512 320 518.5 336 c 128,-1,293
 525 352 525 352 525 359 c 0,294,295
 525 367 525 367 517 370 c 1,287,288
467 377 m 1,296,297
 455 354 455 354 455 336 c 1,298,299
 456 328 456 328 456 327 c 1,300,301
 507 351 507 351 507 378 c 1,302,303
 501 378 501 378 493 373.5 c 128,-1,304
 485 369 485 369 480 369 c 0,305,306
 471 369 471 369 467 377 c 1,296,297
576 382 m 2,307,308
 536 382 536 382 536 334 c 1,309,310
 543 339 543 339 551 347 c 128,-1,311
 559 355 559 355 564.5 362.5 c 128,-1,312
 570 370 570 370 574.5 376 c 2,313,-1
 579 382 l 1,314,-1
 576 382 l 2,307,308
610 377 m 1,315,316
 572 351 572 351 572 332 c 1,317,318
 611 332 611 332 611 360 c 0,319,320
 611 362 611 362 610.5 369 c 128,-1,321
 610 376 610 376 610 377 c 1,315,316
92 364 m 0,322,323
 92 363 92 363 97 358 c 0,324,325
 98 358 98 358 102.5 358.5 c 128,-1,326
 107 359 107 359 110.5 359.5 c 128,-1,327
 114 360 114 360 118.5 361 c 128,-1,328
 123 362 123 362 125.5 364.5 c 128,-1,329
 128 367 128 367 128 370 c 0,330,331
 128 392 128 392 121 408 c 1,332,333
 98 388 98 388 92 364 c 0,322,323
85 426 m 0,334,335
 85 406 85 406 92 395 c 1,336,337
 95 397 95 397 102.5 402.5 c 128,-1,338
 110 408 110 408 112 410 c 128,-1,339
 114 412 114 412 118.5 416.5 c 128,-1,340
 123 421 123 421 125 426 c 128,-1,341
 127 431 127 431 128 438 c 1,342,343
 127 438 127 438 121 438.5 c 128,-1,344
 115 439 115 439 114 439 c 0,345,346
 85 439 85 439 85 426 c 0,334,335
579 413 m 1,347,348
 580 407 580 407 591 407 c 0,349,350
 601 407 601 407 606 412.5 c 128,-1,351
 611 418 611 418 611.5 423.5 c 128,-1,352
 612 429 612 429 612 440 c 1,353,354
 601 440 601 440 579 413 c 1,347,348
567 444 m 0,355,356
 567 443 567 443 569 440.5 c 128,-1,357
 571 438 571 438 572 438 c 0,358,359
 576 438 576 438 581.5 441.5 c 128,-1,360
 587 445 587 445 592 450.5 c 128,-1,361
 597 456 597 456 598 456 c 2,362,-1
 593 456.5 l 1,363,-1
 588 457 l 1,364,365
 572 457 572 457 567 444 c 0,355,356
128 486 m 1,366,367
 110 460 110 460 103 456 c 1,368,-1
 128 456 l 1,369,-1
 135 486 l 1,370,-1
 128 486 l 1,366,367
85 481 m 0,371,372
 85 469 85 469 95 469 c 0,373,374
 98 469 98 469 104 474.5 c 128,-1,375
 110 480 110 480 114.5 486.5 c 128,-1,376
 119 493 119 493 123.5 499 c 2,377,-1
 128 505 l 1,378,379
 128 512 128 512 121 512 c 0,380,381
 107 512 107 512 96 503.5 c 128,-1,382
 85 495 85 495 85 481 c 0,371,372
598 525 m 1,383,384
 570 502 570 502 570 472 c 1,385,386
 582 472 582 472 586 472 c 128,-1,387
 590 472 590 472 595.5 474 c 128,-1,388
 601 476 601 476 602.5 480.5 c 128,-1,389
 604 485 604 485 604 493 c 0,390,391
 604 509 604 509 598 525 c 1,383,384
121 561 m 1,392,393
 103 528 103 528 103 522 c 1,394,395
 104 522 104 522 108 522 c 128,-1,396
 112 522 112 522 113.5 522 c 128,-1,397
 115 522 115 522 118 522 c 128,-1,398
 121 522 121 522 122 522.5 c 128,-1,399
 123 523 123 523 125.5 523.5 c 128,-1,400
 128 524 128 524 129 525 c 128,-1,401
 130 526 130 526 131.5 527.5 c 128,-1,402
 133 529 133 529 133.5 531 c 128,-1,403
 134 533 134 533 134.5 535.5 c 128,-1,404
 135 538 135 538 135 541 c 0,405,406
 135 556 135 556 121 561 c 1,392,393
567 537 m 2,407,-1
 566 535 l 1,408,409
 566 528 566 528 572 525 c 1,410,411
 598 527 598 527 598 589 c 0,412,413
 598 592 598 592 598.026739325 596.449310687 c 0,414,415
 598 621 598 621 593 626 c 128,-1,416
 588 631 588 631 560 631 c 1,417,-1
 560 580 l 1,418,419
 563 579 563 579 568.5 565.5 c 128,-1,420
 574 552 574 552 579 552 c 0,421,422
 582 552 582 552 585 555 c 1,423,424
 582 554 582 554 575 547 c 128,-1,425
 568 540 568 540 567 537 c 2,407,-1
110 574 m 1,426,427
 85 565 85 565 85 537 c 1,428,429
 110 559 110 559 110 574 c 1,426,427
97 592 m 1,430,431
 100 585 100 585 110 585 c 0,432,433
 128 585 128 585 128 600 c 0,434,435
 128 618 128 618 121 623 c 1,436,437
 119 618 119 618 113 610.5 c 128,-1,438
 107 603 107 603 102 597.5 c 2,439,-1
 97 592 l 1,430,431
79 623 m 0,440,441
 79 618 79 618 83 609.5 c 128,-1,442
 87 601 87 601 92 599 c 1,443,-1
 110 623 l 1,444,445
 110 630 110 630 95 630 c 0,446,447
 79 630 79 630 79 623 c 0,440,441
EndSplineSet
EndChar

StartChar: I
Encoding: 73 73 21
Width: 278
Flags: MW
HStem: -27 21G<161.5 168> -14 21G<81 131 81 81 173 173> 638 20G<124 135>
VStem: 57 36 75 80 137 36<-8 -8> 150 23<53.5 66.5 104.5 118.5>
LayerCount: 2
Fore
SplineSet
137 -8 m 1,0,-1
 131 -14 l 1,1,-1
 81 -14 l 1,2,-1
 75 -8 l 1,3,-1
 75 66 l 2,4,5
 75 68 75 68 72 79 c 128,-1,6
 69 90 69 90 69 91 c 0,7,8
 69 94 69 94 72 127.5 c 128,-1,9
 75 161 75 161 75 165 c 0,10,11
 75 201 75 201 72 324 c 128,-1,12
 69 447 69 447 69 454 c 0,13,14
 69 457 69 457 69.5 464 c 128,-1,15
 70 471 70 471 70 476 c 2,16,-1
 63.5 543.5 l 2,17,18
 57 611 57 611 57 646 c 0,19,20
 57 658 57 658 131 658 c 0,21,22
 168 658 168 658 168 640 c 0,23,24
 168 634 168 634 155 621 c 1,25,26
 155 588 155 588 164 519 c 128,-1,27
 173 450 173 450 173 417 c 0,28,29
 173 411 173 411 170.5 402.5 c 128,-1,30
 168 394 168 394 168 387 c 0,31,32
 173 337 173 337 173 318 c 2,33,-1
 173 -14 l 2,34,35
 173 -22 173 -22 168 -27 c 1,36,37
 150 -27 150 -27 137 -8 c 1,0,-1
94 41 m 0,38,39
 98 29 98 29 103.5 25.5 c 128,-1,40
 109 22 109 22 122 22 c 2,41,-1
 144 22 l 1,42,43
 150 41 150 41 150 61 c 0,44,45
 150 67 150 67 147 74 c 128,-1,46
 144 81 144 81 144 84 c 0,47,48
 144 86 144 86 147 94.5 c 128,-1,49
 150 103 150 103 150 116 c 0,50,51
 150 141 150 141 140 141 c 0,52,53
 139 141 139 141 130 135.5 c 128,-1,54
 121 130 121 130 119 127 c 1,55,56
 121 130 121 130 128 138 c 128,-1,57
 135 146 135 146 141 155 c 128,-1,58
 147 164 147 164 149 170 c 1,59,-1
 101 170 l 1,60,61
 101 155 101 155 97 126 c 128,-1,62
 93 97 93 97 93 81 c 0,63,64
 93 78 93 78 93.5 61 c 128,-1,65
 94 44 94 44 94 41 c 0,38,39
131 103 m 0,66,67
 132 103 132 103 134 102.5 c 128,-1,68
 136 102 136 102 137 102 c 1,69,70
 133 102 133 102 123.5 99 c 128,-1,71
 114 96 114 96 112 96 c 1,72,73
 121 103 121 103 131 103 c 0,66,67
140 221 m 0,74,75
 130 221 130 221 120 206 c 128,-1,76
 110 191 110 191 110 181 c 1,77,78
 133 181 133 181 141 186.5 c 128,-1,79
 149 192 149 192 149 214 c 1,80,-1
 146 217.5 l 2,81,82
 143 221 143 221 140 221 c 0,74,75
144 245 m 1,83,84
 120 245 120 245 112 237.5 c 128,-1,85
 104 230 104 230 104 208 c 1,86,-1
 112 208 l 1,87,-1
 144 239 l 1,88,-1
 144 245 l 1,83,84
105 258 m 1,89,-1
 112 251 l 1,90,-1
 144 258 l 1,91,-1
 144 293 l 1,92,93
 119 283 119 283 105 258 c 1,89,-1
100 297 m 128,-1,95
 100 281 100 281 109 281 c 0,96,97
 119 281 119 281 130 294 c 128,-1,98
 141 307 141 307 141 318 c 1,99,-1
 105 318 l 1,100,94
 100 313 100 313 100 297 c 128,-1,95
105 336 m 1,101,102
 105 329 105 329 146 329 c 1,103,104
 146 368 146 368 137 368 c 1,105,-1
 105 336 l 1,101,102
131 412 m 0,106,107
 122 412 122 412 111.5 408.5 c 128,-1,108
 101 405 101 405 100 399 c 2,109,-1
 94 349 l 1,110,111
 111 354 111 354 127.5 371.5 c 128,-1,112
 144 389 144 389 144 406 c 0,113,114
 144 412 144 412 131 412 c 0,106,107
137 460 m 1,115,116
 108 435 108 435 105 424 c 1,117,-1
 119 424 l 2,118,119
 145 424 145 424 145 441 c 0,120,121
 145 459 145 459 137 460 c 1,115,116
94 485 m 2,122,-1
 94 479 l 2,123,124
 94 471 94 471 97 459.5 c 128,-1,125
 100 448 100 448 103 448 c 0,126,127
 116 448 116 448 126.5 465.5 c 128,-1,128
 137 483 137 483 137 498 c 0,129,130
 137 504 137 504 122 504 c 0,131,132
 102 504 102 504 98 500 c 128,-1,133
 94 496 94 496 94 485 c 2,122,-1
131 541 m 1,134,135
 129 539 129 539 116.5 530 c 128,-1,136
 104 521 104 521 104 516 c 1,137,-1
 131 516 l 1,138,-1
 131 541 l 1,134,135
93 538 m 0,139,140
 93 536 93 536 95.5 532 c 128,-1,141
 98 528 98 528 100 528 c 0,142,143
 110 528 110 528 118 539.5 c 128,-1,144
 126 551 126 551 126 560 c 1,145,146
 117 560 117 560 105 553 c 128,-1,147
 93 546 93 546 93 538 c 0,139,140
105 597 m 1,148,-1
 105 590 l 2,149,150
 105 588 105 588 94 566 c 1,151,152
 98 565 98 565 100 565 c 0,153,154
 132 565 132 565 132 592 c 0,155,156
 132 622 132 622 106 622 c 0,157,158
 88 622 88 622 88 615 c 0,159,160
 88 602 88 602 94 590 c 1,161,-1
 105 597 l 1,148,-1
EndSplineSet
EndChar

StartChar: Iacute
Encoding: 205 205 22
Width: 278
Flags: MW
HStem: -27 21G<197.5 204> -14 21G<117 167 117 117 209 209> 832 20G<187 193>
VStem: 93 36 111 80 173 36<-8 -8> 186 23<53.5 66.5 104.5 118.5>
LayerCount: 2
Fore
SplineSet
173 -8 m 1,0,-1
 167 -14 l 1,1,-1
 117 -14 l 1,2,-1
 111 -8 l 1,3,-1
 111 66 l 2,4,5
 111 68 111 68 108 79 c 128,-1,6
 105 90 105 90 105 91 c 0,7,8
 105 94 105 94 108 127.5 c 128,-1,9
 111 161 111 161 111 165 c 0,10,11
 111 201 111 201 108 324 c 128,-1,12
 105 447 105 447 105 454 c 0,13,14
 105 457 105 457 105.5 464 c 128,-1,15
 106 471 106 471 106 476 c 2,16,-1
 99.5 543.5 l 2,17,18
 93 611 93 611 93 646 c 0,19,20
 93 658 93 658 167 658 c 0,21,22
 204 658 204 658 204 640 c 0,23,24
 204 634 204 634 191 621 c 1,25,26
 191 588 191 588 200 519 c 128,-1,27
 209 450 209 450 209 417 c 0,28,29
 209 411 209 411 206.5 402.5 c 128,-1,30
 204 394 204 394 204 387 c 0,31,32
 209 337 209 337 209 318 c 2,33,-1
 209 -14 l 2,34,35
 209 -22 209 -22 204 -27 c 1,36,37
 186 -27 186 -27 173 -8 c 1,0,-1
130 41 m 0,38,39
 134 29 134 29 139.5 25.5 c 128,-1,40
 145 22 145 22 158 22 c 2,41,-1
 180 22 l 1,42,43
 186 41 186 41 186 61 c 0,44,45
 186 67 186 67 183 74 c 128,-1,46
 180 81 180 81 180 84 c 0,47,48
 180 86 180 86 183 94.5 c 128,-1,49
 186 103 186 103 186 116 c 0,50,51
 186 141 186 141 176 141 c 0,52,53
 175 141 175 141 166 135.5 c 128,-1,54
 157 130 157 130 155 127 c 1,55,56
 157 130 157 130 164 138 c 128,-1,57
 171 146 171 146 177 155 c 128,-1,58
 183 164 183 164 185 170 c 1,59,-1
 137 170 l 1,60,61
 137 155 137 155 133 126 c 128,-1,62
 129 97 129 97 129 81 c 0,63,64
 129 78 129 78 129.5 61 c 128,-1,65
 130 44 130 44 130 41 c 0,38,39
167 103 m 0,66,67
 168 103 168 103 170 102.5 c 128,-1,68
 172 102 172 102 173 102 c 1,69,70
 169 102 169 102 159.5 99 c 128,-1,71
 150 96 150 96 148 96 c 1,72,73
 157 103 157 103 167 103 c 0,66,67
176 221 m 0,74,75
 166 221 166 221 156 206 c 128,-1,76
 146 191 146 191 146 181 c 1,77,78
 169 181 169 181 177 186.5 c 128,-1,79
 185 192 185 192 185 214 c 1,80,-1
 182 217.5 l 2,81,82
 179 221 179 221 176 221 c 0,74,75
180 245 m 1,83,84
 156 245 156 245 148 237.5 c 128,-1,85
 140 230 140 230 140 208 c 1,86,-1
 148 208 l 1,87,-1
 180 239 l 1,88,-1
 180 245 l 1,83,84
141 258 m 1,89,-1
 148 251 l 1,90,-1
 180 258 l 1,91,-1
 180 293 l 1,92,93
 155 283 155 283 141 258 c 1,89,-1
136 297 m 128,-1,95
 136 281 136 281 145 281 c 0,96,97
 155 281 155 281 166 294 c 128,-1,98
 177 307 177 307 177 318 c 1,99,-1
 141 318 l 1,100,94
 136 313 136 313 136 297 c 128,-1,95
141 336 m 1,101,102
 141 329 141 329 182 329 c 1,103,104
 182 368 182 368 173 368 c 1,105,-1
 141 336 l 1,101,102
167 412 m 0,106,107
 158 412 158 412 147.5 408.5 c 128,-1,108
 137 405 137 405 136 399 c 2,109,-1
 130 349 l 1,110,111
 147 354 147 354 163.5 371.5 c 128,-1,112
 180 389 180 389 180 406 c 0,113,114
 180 412 180 412 167 412 c 0,106,107
173 460 m 1,115,116
 144 435 144 435 141 424 c 1,117,-1
 155 424 l 2,118,119
 181 424 181 424 181 441 c 0,120,121
 181 459 181 459 173 460 c 1,115,116
130 485 m 2,122,-1
 130 479 l 2,123,124
 130 471 130 471 133 459.5 c 128,-1,125
 136 448 136 448 139 448 c 0,126,127
 152 448 152 448 162.5 465.5 c 128,-1,128
 173 483 173 483 173 498 c 0,129,130
 173 504 173 504 158 504 c 0,131,132
 138 504 138 504 134 500 c 128,-1,133
 130 496 130 496 130 485 c 2,122,-1
167 541 m 1,134,135
 165 539 165 539 152.5 530 c 128,-1,136
 140 521 140 521 140 516 c 1,137,-1
 167 516 l 1,138,-1
 167 541 l 1,134,135
129 538 m 0,139,140
 129 536 129 536 131.5 532 c 128,-1,141
 134 528 134 528 136 528 c 0,142,143
 146 528 146 528 154 539.5 c 128,-1,144
 162 551 162 551 162 560 c 1,145,146
 153 560 153 560 141 553 c 128,-1,147
 129 546 129 546 129 538 c 0,139,140
141 597 m 1,148,-1
 141 590 l 2,149,150
 141 588 141 588 130 566 c 1,151,152
 134 565 134 565 136 565 c 0,153,154
 168 565 168 565 168 592 c 0,155,156
 168 622 168 622 142 622 c 0,157,158
 124 622 124 622 124 615 c 0,159,160
 124 602 124 602 130 590 c 1,161,-1
 141 597 l 1,148,-1
172 814 m 1,162,163
 157 814 157 814 154 807 c 1,164,165
 169 807 169 807 172 814 c 1,162,163
148 802 m 1,166,167
 130 802 130 802 122 795 c 1,168,169
 145 795 145 795 148 802 c 1,166,167
110 789 m 1,170,171
 112 786 112 786 114 786 c 0,172,173
 117 786 117 786 117 789 c 0,174,175
 117 793 117 793 114 793 c 0,176,177
 110 793 110 793 110 789 c 1,170,171
198 823 m 0,178,179
 198 802 198 802 191.5 793.5 c 128,-1,180
 185 785 185 785 166 777 c 0,181,182
 140 767 140 767 36 721 c 1,183,-1
 15 721 l 1,184,185
 15 766 15 766 24 770 c 2,186,-1
 184 851 l 1,187,-1
 187 852 l 1,188,189
 198 852 198 852 198 823 c 0,178,179
EndSplineSet
EndChar

StartChar: Icircumflex
Encoding: 206 206 23
Width: 278
Flags: MW
HStem: -27 21G<192.5 199> -14 21G<112 162 112 112 204 204> 742 118<56 209> 781 79<56 94.5>
VStem: -39 243 88 36 106 80 168 36<-8 -8> 181 23<53.5 66.5 104.5 118.5>
LayerCount: 2
Fore
SplineSet
168 -8 m 1,0,-1
 162 -14 l 1,1,-1
 112 -14 l 1,2,-1
 106 -8 l 1,3,-1
 106 66 l 2,4,5
 106 68 106 68 103 79 c 128,-1,6
 100 90 100 90 100 91 c 0,7,8
 100 94 100 94 103 127.5 c 128,-1,9
 106 161 106 161 106 165 c 0,10,11
 106 201 106 201 103 324 c 128,-1,12
 100 447 100 447 100 454 c 0,13,14
 100 457 100 457 100.5 464 c 128,-1,15
 101 471 101 471 101 476 c 2,16,-1
 94.5 543.5 l 2,17,18
 88 611 88 611 88 646 c 0,19,20
 88 658 88 658 162 658 c 0,21,22
 199 658 199 658 199 640 c 0,23,24
 199 634 199 634 186 621 c 1,25,26
 186 588 186 588 195 519 c 128,-1,27
 204 450 204 450 204 417 c 0,28,29
 204 411 204 411 201.5 402.5 c 128,-1,30
 199 394 199 394 199 387 c 0,31,32
 204 337 204 337 204 318 c 2,33,-1
 204 -14 l 2,34,35
 204 -22 204 -22 199 -27 c 1,36,37
 181 -27 181 -27 168 -8 c 1,0,-1
125 41 m 0,38,39
 129 29 129 29 134.5 25.5 c 128,-1,40
 140 22 140 22 153 22 c 2,41,-1
 175 22 l 1,42,43
 181 41 181 41 181 61 c 0,44,45
 181 67 181 67 178 74 c 128,-1,46
 175 81 175 81 175 84 c 0,47,48
 175 86 175 86 178 94.5 c 128,-1,49
 181 103 181 103 181 116 c 0,50,51
 181 141 181 141 171 141 c 0,52,53
 170 141 170 141 161 135.5 c 128,-1,54
 152 130 152 130 150 127 c 1,55,56
 152 130 152 130 159 138 c 128,-1,57
 166 146 166 146 172 155 c 128,-1,58
 178 164 178 164 180 170 c 1,59,-1
 132 170 l 1,60,61
 132 155 132 155 128 126 c 128,-1,62
 124 97 124 97 124 81 c 0,63,64
 124 78 124 78 124.5 61 c 128,-1,65
 125 44 125 44 125 41 c 0,38,39
162 103 m 1,66,-1
 165 102.5 l 1,67,-1
 168 102 l 2,68,69
 164 102 164 102 154.5 99 c 128,-1,70
 145 96 145 96 143 96 c 1,71,72
 152 103 152 103 162 103 c 1,66,-1
171 221 m 0,73,74
 161 221 161 221 151 206 c 128,-1,75
 141 191 141 191 141 181 c 1,76,77
 164 181 164 181 172 186.5 c 128,-1,78
 180 192 180 192 180 214 c 1,79,-1
 177 217.5 l 2,80,81
 174 221 174 221 171 221 c 0,73,74
175 245 m 1,82,83
 151 245 151 245 143 237.5 c 128,-1,84
 135 230 135 230 135 208 c 1,85,-1
 143 208 l 1,86,-1
 175 239 l 1,87,-1
 175 245 l 1,82,83
136 258 m 1,88,-1
 143 251 l 1,89,-1
 175 258 l 1,90,-1
 175 293 l 1,91,92
 150 283 150 283 136 258 c 1,88,-1
131 297 m 128,-1,94
 131 281 131 281 140 281 c 0,95,96
 150 281 150 281 161 294 c 128,-1,97
 172 307 172 307 172 318 c 1,98,-1
 136 318 l 1,99,93
 131 313 131 313 131 297 c 128,-1,94
136 336 m 1,100,101
 136 329 136 329 177 329 c 1,102,103
 177 368 177 368 168 368 c 1,104,-1
 136 336 l 1,100,101
162 412 m 0,105,106
 153 412 153 412 142.5 408.5 c 128,-1,107
 132 405 132 405 131 399 c 2,108,-1
 125 349 l 1,109,110
 142 354 142 354 158.5 371.5 c 128,-1,111
 175 389 175 389 175 406 c 0,112,113
 175 412 175 412 162 412 c 0,105,106
168 460 m 1,114,115
 139 435 139 435 136 424 c 1,116,-1
 150 424 l 2,117,118
 176 424 176 424 176 441 c 0,119,120
 176 459 176 459 168 460 c 1,114,115
125 485 m 2,121,-1
 125 479 l 2,122,123
 125 471 125 471 128 459.5 c 128,-1,124
 131 448 131 448 134 448 c 0,125,126
 147 448 147 448 157.5 465.5 c 128,-1,127
 168 483 168 483 168 498 c 0,128,129
 168 504 168 504 153 504 c 0,130,131
 133 504 133 504 129 500 c 128,-1,132
 125 496 125 496 125 485 c 2,121,-1
162 541 m 1,133,134
 160 539 160 539 147.5 530 c 128,-1,135
 135 521 135 521 135 516 c 1,136,-1
 162 516 l 1,137,-1
 162 541 l 1,133,134
124 538 m 0,138,139
 124 536 124 536 126.5 532 c 128,-1,140
 129 528 129 528 131 528 c 0,141,142
 141 528 141 528 149 539.5 c 128,-1,143
 157 551 157 551 157 560 c 1,144,145
 148 560 148 560 136 553 c 128,-1,146
 124 546 124 546 124 538 c 0,138,139
136 597 m 1,147,-1
 136 590 l 2,148,149
 136 588 136 588 125 566 c 1,150,151
 129 565 129 565 131 565 c 0,152,153
 163 565 163 565 163 592 c 0,154,155
 163 622 163 622 137 622 c 0,156,157
 119 622 119 622 119 615 c 0,158,159
 119 602 119 602 125 590 c 1,160,-1
 136 597 l 1,147,-1
71 781 m 0,161,162
 54 781 54 781 28 765 c 128,-1,163
 2 749 2 749 -13 749 c 0,164,165
 -39 749 -39 749 -39 768 c 0,166,167
 -39 781 -39 781 4.5 820.5 c 128,-1,168
 48 860 48 860 82 860 c 0,169,170
 99 860 99 860 126.5 833.5 c 128,-1,171
 154 807 154 807 155 807 c 0,172,173
 161 805 161 805 183.5 783 c 128,-1,174
 206 761 206 761 209 760 c 1,175,-1
 209 742 l 1,176,177
 184 742 184 742 139 761.5 c 128,-1,178
 94 781 94 781 71 781 c 0,161,162
117 801 m 1,179,180
 125 790 125 790 137 790 c 1,181,-1
 123 805 l 1,182,-1
 117 801 l 1,179,180
56 821 m 1,183,-1
 32 796 l 1,184,185
 57 803 57 803 57 815 c 0,186,187
 57 816 57 816 56.5 818.5 c 2,188,-1
 56 821 l 1,183,-1
EndSplineSet
EndChar

StartChar: Idieresis
Encoding: 207 207 24
Width: 278
Flags: MW
HStem: -27 21G<179.5 186> -14 21G<99 149 99 99 191 191> 790 28<-7 40>
VStem: -27 90<745 802 802 802> 75 36 93 80 155 36<-8 -8> 168 23<53.5 66.5 104.5 118.5>
LayerCount: 2
Fore
SplineSet
155 -8 m 1,0,-1
 149 -14 l 1,1,-1
 99 -14 l 1,2,-1
 93 -8 l 1,3,-1
 93 66 l 2,4,5
 93 68 93 68 90 79 c 128,-1,6
 87 90 87 90 87 91 c 0,7,8
 87 94 87 94 90 127.5 c 128,-1,9
 93 161 93 161 93 165 c 0,10,11
 93 201 93 201 90 324 c 128,-1,12
 87 447 87 447 87 454 c 0,13,14
 87 457 87 457 87.5 464 c 128,-1,15
 88 471 88 471 88 476 c 2,16,-1
 81.5 543.5 l 2,17,18
 75 611 75 611 75 646 c 0,19,20
 75 658 75 658 149 658 c 0,21,22
 186 658 186 658 186 640 c 0,23,24
 186 634 186 634 173 621 c 1,25,26
 173 588 173 588 182 519 c 128,-1,27
 191 450 191 450 191 417 c 0,28,29
 191 411 191 411 188.5 402.5 c 128,-1,30
 186 394 186 394 186 387 c 0,31,32
 191 337 191 337 191 318 c 2,33,-1
 191 -14 l 2,34,35
 191 -22 191 -22 186 -27 c 1,36,37
 168 -27 168 -27 155 -8 c 1,0,-1
112 41 m 0,38,39
 116 29 116 29 121.5 25.5 c 128,-1,40
 127 22 127 22 140 22 c 2,41,-1
 162 22 l 1,42,43
 168 41 168 41 168 61 c 0,44,45
 168 67 168 67 165 74 c 128,-1,46
 162 81 162 81 162 84 c 0,47,48
 162 86 162 86 165 94.5 c 128,-1,49
 168 103 168 103 168 116 c 0,50,51
 168 141 168 141 158 141 c 0,52,53
 157 141 157 141 148 135.5 c 128,-1,54
 139 130 139 130 137 127 c 1,55,56
 139 130 139 130 146 138 c 128,-1,57
 153 146 153 146 159 155 c 128,-1,58
 165 164 165 164 167 170 c 1,59,-1
 119 170 l 1,60,61
 119 155 119 155 115 126 c 128,-1,62
 111 97 111 97 111 81 c 0,63,64
 111 78 111 78 111.5 61 c 128,-1,65
 112 44 112 44 112 41 c 0,38,39
149 103 m 0,66,67
 150 103 150 103 152 102.5 c 128,-1,68
 154 102 154 102 155 102 c 1,69,70
 151 102 151 102 141.5 99 c 128,-1,71
 132 96 132 96 130 96 c 1,72,73
 139 103 139 103 149 103 c 0,66,67
158 221 m 0,74,75
 148 221 148 221 138 206 c 128,-1,76
 128 191 128 191 128 181 c 1,77,78
 151 181 151 181 159 186.5 c 128,-1,79
 167 192 167 192 167 214 c 1,80,-1
 164 217.5 l 2,81,82
 161 221 161 221 158 221 c 0,74,75
162 245 m 1,83,84
 138 245 138 245 130 237.5 c 128,-1,85
 122 230 122 230 122 208 c 1,86,-1
 130 208 l 1,87,-1
 162 239 l 1,88,-1
 162 245 l 1,83,84
123 258 m 1,89,-1
 130 251 l 1,90,-1
 162 258 l 1,91,-1
 162 293 l 1,92,93
 137 283 137 283 123 258 c 1,89,-1
118 297 m 128,-1,95
 118 281 118 281 127 281 c 0,96,97
 137 281 137 281 148 294 c 128,-1,98
 159 307 159 307 159 318 c 1,99,-1
 123 318 l 1,100,94
 118 313 118 313 118 297 c 128,-1,95
123 336 m 1,101,102
 123 329 123 329 164 329 c 1,103,104
 164 368 164 368 155 368 c 1,105,-1
 123 336 l 1,101,102
149 412 m 0,106,107
 140 412 140 412 129.5 408.5 c 128,-1,108
 119 405 119 405 118 399 c 2,109,-1
 112 349 l 1,110,111
 129 354 129 354 145.5 371.5 c 128,-1,112
 162 389 162 389 162 406 c 0,113,114
 162 412 162 412 149 412 c 0,106,107
155 460 m 1,115,116
 126 435 126 435 123 424 c 1,117,-1
 137 424 l 2,118,119
 163 424 163 424 163 441 c 0,120,121
 163 459 163 459 155 460 c 1,115,116
112 485 m 2,122,-1
 112 479 l 2,123,124
 112 471 112 471 115 459.5 c 128,-1,125
 118 448 118 448 121 448 c 0,126,127
 134 448 134 448 144.5 465.5 c 128,-1,128
 155 483 155 483 155 498 c 0,129,130
 155 504 155 504 140 504 c 0,131,132
 120 504 120 504 116 500 c 128,-1,133
 112 496 112 496 112 485 c 2,122,-1
149 541 m 1,134,135
 147 539 147 539 134.5 530 c 128,-1,136
 122 521 122 521 122 516 c 1,137,-1
 149 516 l 1,138,-1
 149 541 l 1,134,135
111 538 m 0,139,140
 111 536 111 536 113.5 532 c 128,-1,141
 116 528 116 528 118 528 c 0,142,143
 128 528 128 528 136 539.5 c 128,-1,144
 144 551 144 551 144 560 c 1,145,146
 135 560 135 560 123 553 c 128,-1,147
 111 546 111 546 111 538 c 0,139,140
123 597 m 1,148,-1
 123 590 l 2,149,150
 123 588 123 588 112 566 c 1,151,152
 116 565 116 565 118 565 c 0,153,154
 150 565 150 565 150 592 c 0,155,156
 150 622 150 622 124 622 c 0,157,158
 106 622 106 622 106 615 c 0,159,160
 106 602 106 602 112 590 c 1,161,-1
 123 597 l 1,148,-1
-27 802 m 1,162,-1
 -15 812 l 2,163,164
 -9 818 -9 818 35 818 c 0,165,166
 43 818 43 818 53 814 c 128,-1,167
 63 810 63 810 63 806 c 2,168,-1
 63 740 l 2,169,170
 63 728 63 728 39 728 c 0,171,172
 -27 728 -27 728 -27 745 c 2,173,-1
 -27 802 l 1,162,-1
-7 790 m 1,174,175
 -7 762 -7 762 9 762 c 0,176,177
 20 762 20 762 25 762.5 c 128,-1,178
 30 763 30 763 34 766.5 c 128,-1,179
 38 770 38 770 38 778 c 0,180,181
 38 784 38 784 35 790 c 1,182,183
 21 784 21 784 18 784 c 1,184,-1
 25 790 l 1,185,-1
 -7 790 l 1,174,175
97 802 m 1,186,-1
 109 812 l 2,187,188
 115 818 115 818 159 818 c 0,189,190
 167 818 167 818 177 814 c 128,-1,191
 187 810 187 810 187 806 c 2,192,-1
 187 740 l 2,193,194
 187 728 187 728 163 728 c 0,195,196
 97 728 97 728 97 745 c 2,197,-1
 97 802 l 1,186,-1
117 790 m 1,198,199
 117 762 117 762 133 762 c 0,200,201
 144 762 144 762 149 762.5 c 128,-1,202
 154 763 154 763 158 766.5 c 128,-1,203
 162 770 162 770 162 778 c 0,204,205
 162 784 162 784 159 790 c 1,206,207
 145 784 145 784 142 784 c 1,208,-1
 149 790 l 1,209,-1
 117 790 l 1,198,199
EndSplineSet
EndChar

StartChar: Igrave
Encoding: 204 204 25
Width: 278
Flags: MW
HStem: -27 21G<197.5 204> -14 21G<117 167 117 117 209 209> 842 20G<21 27>
VStem: 93 36 111 80 186 23<53.5 66.5 104.5 118.5>
LayerCount: 2
Fore
SplineSet
173 -8 m 1,0,-1
 167 -14 l 1,1,-1
 117 -14 l 1,2,-1
 111 -8 l 1,3,-1
 111 66 l 2,4,5
 111 68 111 68 108 79 c 128,-1,6
 105 90 105 90 105 91 c 0,7,8
 105 94 105 94 108 127.5 c 128,-1,9
 111 161 111 161 111 165 c 0,10,11
 111 201 111 201 108 324 c 128,-1,12
 105 447 105 447 105 454 c 0,13,14
 105 457 105 457 105.5 464 c 128,-1,15
 106 471 106 471 106 476 c 2,16,-1
 99.5 543.5 l 2,17,18
 93 611 93 611 93 646 c 0,19,20
 93 658 93 658 167 658 c 0,21,22
 204 658 204 658 204 640 c 0,23,24
 204 634 204 634 191 621 c 1,25,26
 191 588 191 588 200 519 c 128,-1,27
 209 450 209 450 209 417 c 0,28,29
 209 411 209 411 206.5 402.5 c 128,-1,30
 204 394 204 394 204 387 c 0,31,32
 209 337 209 337 209 318 c 2,33,-1
 209 -14 l 2,34,35
 209 -22 209 -22 204 -27 c 1,36,37
 186 -27 186 -27 173 -8 c 1,0,-1
130 41 m 0,38,39
 134 29 134 29 139.5 25.5 c 128,-1,40
 145 22 145 22 158 22 c 2,41,-1
 180 22 l 1,42,43
 186 41 186 41 186 61 c 0,44,45
 186 67 186 67 183 74 c 128,-1,46
 180 81 180 81 180 84 c 0,47,48
 180 86 180 86 183 94.5 c 128,-1,49
 186 103 186 103 186 116 c 0,50,51
 186 141 186 141 176 141 c 0,52,53
 175 141 175 141 166 135.5 c 128,-1,54
 157 130 157 130 155 127 c 1,55,56
 157 130 157 130 164 138 c 128,-1,57
 171 146 171 146 177 155 c 128,-1,58
 183 164 183 164 185 170 c 1,59,-1
 137 170 l 1,60,61
 137 155 137 155 133 126 c 128,-1,62
 129 97 129 97 129 81 c 0,63,64
 129 78 129 78 129.5 61 c 128,-1,65
 130 44 130 44 130 41 c 0,38,39
167 103 m 0,66,67
 168 103 168 103 170 102.5 c 128,-1,68
 172 102 172 102 173 102 c 1,69,70
 169 102 169 102 159.5 99 c 128,-1,71
 150 96 150 96 148 96 c 1,72,73
 157 103 157 103 167 103 c 0,66,67
176 221 m 0,74,75
 166 221 166 221 156 206 c 128,-1,76
 146 191 146 191 146 181 c 1,77,78
 169 181 169 181 177 186.5 c 128,-1,79
 185 192 185 192 185 214 c 1,80,-1
 182 217.5 l 2,81,82
 179 221 179 221 176 221 c 0,74,75
180 245 m 1,83,84
 156 245 156 245 148 237.5 c 128,-1,85
 140 230 140 230 140 208 c 1,86,-1
 148 208 l 1,87,-1
 180 239 l 1,88,-1
 180 245 l 1,83,84
141 258 m 1,89,-1
 148 251 l 1,90,-1
 180 258 l 1,91,-1
 180 293 l 1,92,93
 155 283 155 283 141 258 c 1,89,-1
136 297 m 128,-1,95
 136 281 136 281 145 281 c 0,96,97
 155 281 155 281 166 294 c 128,-1,98
 177 307 177 307 177 318 c 1,99,-1
 141 318 l 1,100,94
 136 313 136 313 136 297 c 128,-1,95
141 336 m 1,101,102
 141 329 141 329 182 329 c 1,103,104
 182 368 182 368 173 368 c 1,105,-1
 141 336 l 1,101,102
167 412 m 0,106,107
 158 412 158 412 147.5 408.5 c 128,-1,108
 137 405 137 405 136 399 c 2,109,-1
 130 349 l 1,110,111
 147 354 147 354 163.5 371.5 c 128,-1,112
 180 389 180 389 180 406 c 0,113,114
 180 412 180 412 167 412 c 0,106,107
173 460 m 1,115,116
 144 435 144 435 141 424 c 1,117,-1
 155 424 l 2,118,119
 181 424 181 424 181 441 c 0,120,121
 181 459 181 459 173 460 c 1,115,116
130 485 m 2,122,-1
 130 479 l 2,123,124
 130 471 130 471 133 459.5 c 128,-1,125
 136 448 136 448 139 448 c 0,126,127
 152 448 152 448 162.5 465.5 c 128,-1,128
 173 483 173 483 173 498 c 0,129,130
 173 504 173 504 158 504 c 0,131,132
 138 504 138 504 134 500 c 128,-1,133
 130 496 130 496 130 485 c 2,122,-1
167 541 m 1,134,135
 165 539 165 539 152.5 530 c 128,-1,136
 140 521 140 521 140 516 c 1,137,-1
 167 516 l 1,138,-1
 167 541 l 1,134,135
129 538 m 0,139,140
 129 536 129 536 131.5 532 c 128,-1,141
 134 528 134 528 136 528 c 0,142,143
 146 528 146 528 154 539.5 c 128,-1,144
 162 551 162 551 162 560 c 1,145,146
 153 560 153 560 141 553 c 128,-1,147
 129 546 129 546 129 538 c 0,139,140
141 597 m 1,148,-1
 141 590 l 2,149,150
 141 588 141 588 130 566 c 1,151,152
 134 565 134 565 136 565 c 0,153,154
 168 565 168 565 168 592 c 0,155,156
 168 622 168 622 142 622 c 0,157,158
 124 622 124 622 124 615 c 0,159,160
 124 602 124 602 130 590 c 1,161,-1
 141 597 l 1,148,-1
16 833 m 0,162,163
 16 862 16 862 27 862 c 1,164,165
 59 847 59 847 117 817.5 c 128,-1,166
 175 788 175 788 190 780 c 0,167,168
 199 776 199 776 199 731 c 1,169,-1
 178 731 l 1,170,171
 74 777 74 777 48 787 c 0,172,173
 29 795 29 795 22.5 803.5 c 128,-1,174
 16 812 16 812 16 833 c 0,162,163
93 797 m 1,175,176
 94 794 94 794 94.5 792 c 128,-1,177
 95 790 95 790 96.5 788.5 c 128,-1,178
 98 787 98 787 99 786 c 128,-1,179
 100 785 100 785 102 784.5 c 128,-1,180
 104 784 104 784 105.5 783.5 c 128,-1,181
 107 783 107 783 110.5 783 c 128,-1,182
 114 783 114 783 115.5 783 c 128,-1,183
 117 783 117 783 122 783 c 128,-1,184
 127 783 127 783 130 783 c 1,185,186
 128 786 128 786 125.5 788 c 128,-1,187
 123 790 123 790 121 791.5 c 128,-1,188
 119 793 119 793 116.5 794 c 128,-1,189
 114 795 114 795 112.5 796 c 128,-1,190
 111 797 111 797 108 797 c 128,-1,191
 105 797 105 797 103.5 797 c 128,-1,192
 102 797 102 797 98 797 c 128,-1,193
 94 797 94 797 93 797 c 1,175,176
42 824 m 1,194,195
 44 817 44 817 60 817 c 1,196,197
 57 824 57 824 42 824 c 1,194,195
EndSplineSet
EndChar

StartChar: J
Encoding: 74 74 26
Width: 281
Flags: MW
HStem: 647 20G<174 186.5>
VStem: 7 185<-167 2.5 -111 2.5> 90 35 90 89 162 30<-82 -75 -42 -35 -14.5 -6 622.5 623>
LayerCount: 2
Fore
SplineSet
7 -167 m 1,0,-1
 7 -111 l 1,1,-1
 25.5 -106.5 l 2,2,3
 44 -102 44 -102 66 -90.5 c 128,-1,4
 88 -79 88 -79 94 -62 c 1,5,6
 94 -58 94 -58 94.5 -35.5 c 128,-1,7
 95 -13 95 -13 95 -9 c 0,8,9
 95 13 95 13 90.5 56 c 128,-1,10
 86 99 86 99 86 120 c 0,11,12
 86 162 86 162 94 191 c 1,13,-1
 87 641 l 2,14,15
 87 652 87 652 100 660 c 1,16,17
 104 659 104 659 130 659 c 0,18,19
 150 659 150 659 163 663 c 128,-1,20
 176 667 176 667 183 667 c 0,21,22
 188 667 188 667 193 660 c 128,-1,23
 198 653 198 653 198 648 c 0,24,25
 198 646 198 646 195 635 c 128,-1,26
 192 624 192 624 192 623 c 2,27,-1
 192 570 l 2,28,29
 192 521 192 521 198 481 c 1,30,31
 192 474 192 474 192 461 c 0,32,33
 192 459 192 459 192.5 454.5 c 128,-1,34
 193 450 193 450 193 447 c 0,35,36
 193 441 193 441 192 439 c 1,37,38
 192 436 192 436 186 413.5 c 128,-1,39
 180 391 180 391 180 388 c 0,40,41
 180 384 180 384 184 374.5 c 128,-1,42
 188 365 188 365 188 353 c 0,43,44
 188 342 188 342 184 338 c 128,-1,45
 180 334 180 334 180 333 c 2,46,-1
 183.5 327.5 l 2,47,48
 187 322 187 322 187 321 c 0,49,50
 187 317 187 317 183 302.5 c 128,-1,51
 179 288 179 288 179 266 c 0,52,53
 179 207 179 207 192 204 c 1,54,-1
 192 99 l 1,55,-1
 187 92 l 1,56,-1
 192 85 l 2,57,58
 192 84 192 84 191 76.5 c 128,-1,59
 190 69 190 69 188.5 60 c 128,-1,60
 187 51 187 51 187 49 c 2,61,-1
 187 43 l 1,62,63
 192 18 192 18 192 0 c 0,64,65
 192 -54 192 -54 179 -89.5 c 128,-1,66
 166 -125 166 -125 147 -138 c 128,-1,67
 128 -151 128 -151 109.5 -156.5 c 128,-1,68
 91 -162 91 -162 77 -163 c 128,-1,69
 63 -164 63 -164 63 -167 c 1,70,-1
 7 -167 l 1,0,-1
122 -105 m 0,71,72
 86 -105 86 -105 86 -125 c 0,73,74
 86 -126 86 -126 87 -126 c 0,75,76
 90 -126 90 -126 98.5 -122 c 128,-1,77
 107 -118 107 -118 118.5 -113 c 128,-1,78
 130 -108 130 -108 137 -106 c 1,79,80
 135 -106 135 -106 129 -105.5 c 128,-1,81
 123 -105 123 -105 122 -105 c 0,71,72
155 -74 m 0,82,83
 144 -74 144 -74 137 -86 c 1,84,-1
 146 -88 l 1,85,86
 162 -88 162 -88 162 -77 c 0,87,88
 162 -74 162 -74 155 -74 c 0,82,83
162 -35 m 1,89,90
 144 -35 144 -35 137 -50 c 1,91,92
 152 -50 152 -50 157 -47.5 c 128,-1,93
 162 -45 162 -45 162 -35 c 1,89,90
119 -12 m 0,94,95
 119 -15 119 -15 123.5 -25 c 128,-1,96
 128 -35 128 -35 130 -37 c 1,97,98
 137 -35 137 -35 149.5 -25.5 c 128,-1,99
 162 -16 162 -16 162 -9 c 0,100,101
 162 -6 162 -6 150.5 -2 c 128,-1,102
 139 2 139 2 137 6 c 1,103,104
 145 4 145 4 148 4 c 0,105,106
 156 4 156 4 159.5 9 c 128,-1,107
 163 14 163 14 163.5 20 c 128,-1,108
 164 26 164 26 164 38 c 1,109,110
 156 38 156 38 149.5 30 c 128,-1,111
 143 22 143 22 141 22 c 2,112,-1
 137 24 l 1,113,114
 139 32 139 32 151 43 c 128,-1,115
 163 54 163 54 163 64 c 1,116,117
 124 64 124 64 124 56 c 0,118,119
 124 55 124 55 124.5 45.5 c 128,-1,120
 125 36 125 36 125 30 c 0,121,122
 125 15 125 15 122 4 c 128,-1,123
 119 -7 119 -7 119 -12 c 0,94,95
164 112 m 1,124,125
 159 112 159 112 141.5 101 c 128,-1,126
 124 90 124 90 124 85 c 2,127,-1
 124 71 l 1,128,129
 153 71 153 71 158.5 77 c 128,-1,130
 164 83 164 83 164 112 c 1,124,125
141 125 m 0,131,132
 126 125 126 125 121 120.5 c 128,-1,133
 116 116 116 116 116 102 c 1,134,135
 138 102 138 102 155 124 c 1,136,137
 154 124 154 124 148 124.5 c 128,-1,138
 142 125 142 125 141 125 c 0,131,132
119 142 m 1,139,-1
 124 135 l 1,140,141
 130 135 130 135 149 140 c 128,-1,142
 168 145 168 145 168 148 c 2,143,-1
 168 180 l 1,144,145
 149 180 149 180 119 142 c 1,139,-1
138 204 m 1,146,147
 138 182 138 182 130 182 c 0,148,149
 129 182 129 182 126.5 183 c 128,-1,150
 124 184 124 184 123 184 c 0,151,152
 117 184 117 184 117 170 c 1,153,154
 144 170 144 170 157.5 192.5 c 128,-1,155
 171 215 171 215 171 244 c 1,156,157
 156 244 156 244 143 232 c 128,-1,158
 130 220 130 220 130 204 c 1,159,-1
 138 204 l 1,146,147
149 277 m 1,160,161
 116 277 116 277 116 226 c 1,162,163
 141 226 141 226 150 258 c 128,-1,164
 159 290 159 290 159 323 c 1,165,166
 153 323 153 323 147 319 c 128,-1,167
 141 315 141 315 137.5 310.5 c 128,-1,168
 134 306 134 306 129.5 299 c 128,-1,169
 125 292 125 292 124 290 c 1,170,171
 129 281 129 281 149 277 c 1,160,161
124 345 m 1,172,-1
 124 320 l 1,173,174
 135 320 135 320 146 327.5 c 128,-1,175
 157 335 157 335 157 345 c 0,176,177
 157 350 157 350 155 352 c 1,178,-1
 124 345 l 1,172,-1
124 370 m 0,179,180
 124 363 124 363 144 363 c 0,181,182
 162 363 162 363 162 370 c 2,183,-1
 162 414 l 1,184,185
 159 411 159 411 153 405 c 128,-1,186
 147 399 147 399 142.5 395 c 128,-1,187
 138 391 138 391 133.5 386 c 128,-1,188
 129 381 129 381 126.5 377 c 128,-1,189
 124 373 124 373 124 370 c 0,179,180
155 431 m 1,190,191
 138 430 138 430 131 428 c 128,-1,192
 124 426 124 426 120 419.5 c 128,-1,193
 116 413 116 413 116 398 c 1,194,195
 126 398 126 398 141 408.5 c 128,-1,196
 156 419 156 419 156 428 c 1,197,-1
 155 431 l 1,190,191
168 493 m 1,198,199
 123 453 123 453 123 441 c 0,200,201
 123 439 123 439 124 439 c 0,202,203
 154 440 154 440 164 447 c 128,-1,204
 174 454 174 454 174 481 c 1,205,-1
 168 493 l 1,198,199
149 493 m 1,206,207
 118 491 118 491 118 472 c 1,208,-1
 118.5 468 l 2,209,210
 119 464 119 464 119 463 c 2,211,-1
 149 493 l 1,206,207
119 512 m 1,212,-1
 119 499 l 1,213,214
 175 499 175 499 175 536 c 0,215,216
 175 551 175 551 168.5 587.5 c 128,-1,217
 162 624 162 624 162 630 c 1,218,-1
 106 641 l 2,219,220
 106 640 106 640 105.5 635 c 2,221,-1
 105 630 l 1,222,223
 105 602 105 602 119 602 c 0,224,225
 124 602 124 602 130 605 c 1,226,227
 129 601 129 601 125.5 593.5 c 128,-1,228
 122 586 122 586 119.5 580.5 c 128,-1,229
 117 575 117 575 117 574 c 1,230,-1
 134 574 l 1,231,232
 134 569 134 569 124 558 c 128,-1,233
 114 547 114 547 112 536 c 1,234,-1
 119 536 l 1,235,-1
 155 574 l 1,236,-1
 155 562 l 1,237,-1
 119 512 l 1,212,-1
EndSplineSet
EndChar

